<?xml version="1.0" encoding="UTF-8" standalone="no"?><!DOCTYPE svg PUBLIC "-//W3C//DTD SVG 1.1//EN" "http://www.w3.org/Graphics/SVG/1.1/DTD/svg11.dtd"><svg width="100%" height="100%" viewBox="0 0 1920 1080" version="1.1" xmlns="http://www.w3.org/2000/svg" xmlns:xlink="http://www.w3.org/1999/xlink" xml:space="preserve" xmlns:serif="http://www.serif.com/" style="fill-rule:evenodd;clip-rule:evenodd;stroke-linejoin:round;stroke-miterlimit:2;"><path d="M342.585,319.97c-0,-0 5.765,-16.499 27.216,-13.54c17.405,2.4 22.545,19.917 22.545,19.917c-0,-0 9.758,-11.222 27.53,-8.141c18.587,3.223 22.228,27.331 22.228,27.331c0,-0 -7.325,-21.04 -22.606,-22.516c-15.282,-1.475 -24.288,16.901 -31.168,15.433c-6.472,-1.381 -1.571,-24.433 -19.529,-27.695c-17.661,-3.209 -26.216,9.211 -26.216,9.211Z" style="fill:#111;"/><path d="M1443.33,239.684c-0,-0 4.689,-26.639 38.192,-27.473c27.183,-0.677 39.405,24.796 39.405,24.796c-0,0 12.105,-19.576 40.018,-19.304c29.195,0.284 40.773,36.198 40.773,36.198c-0,0 -16.439,-30.308 -40.149,-28.749c-23.709,1.56 -32.88,31.875 -43.755,31.349c-10.23,-0.494 -8.496,-36.927 -36.74,-37.428c-27.777,-0.494 -37.744,20.611 -37.744,20.611Z" style="fill:#111;"/></svg>