<?xml version="1.0" encoding="UTF-8" standalone="no"?>
<!DOCTYPE svg PUBLIC "-//W3C//DTD SVG 1.1//EN" "http://www.w3.org/Graphics/SVG/1.1/DTD/svg11.dtd">
<svg width="100%" height="100%" viewBox="0 0 757 758" version="1.1" xmlns="http://www.w3.org/2000/svg" xmlns:xlink="http://www.w3.org/1999/xlink" xml:space="preserve" style="fill-rule:evenodd;clip-rule:evenodd;stroke-linejoin:round;stroke-miterlimit:2;">
    <g transform="matrix(1,0,0,1,-161.235,-161.445)">
        <g id="logo-v2" transform="matrix(0.701027,0,0,0.701027,161.235,161.445)">
            <g transform="matrix(2.59784,0,0,2.59784,-863.535,-702.546)">
                <path d="M333.016,329.245C337.483,296.058 365.948,270.435 400.35,270.435L540,270.435L679.649,270.437C714.364,270.437 743.032,296.527 747.1,330.152C712.844,329.38 682.068,331.555 679.988,331.694C606.087,336.637 579.935,350.37 568.342,362.308C566.35,364.359 564.714,366.445 563.379,368.535C557.423,363.679 550.133,359.036 541.22,354.772C489.11,329.843 402.169,327.94 337.689,329.155C337.325,329.162 335.169,329.202 333.016,329.245Z" style="fill:url(#_Linear1);"/>
            </g>
            <g transform="matrix(2.59784,0,0,2.59784,-863.535,-702.546)">
                <path d="M747.413,333.394C747.533,335.041 747.594,336.704 747.594,338.382C747.594,375.881 717.149,406.326 679.649,406.326L647.658,406.326C645.841,406.373 631.949,407.111 620.341,418.719C608.042,431.018 607.945,445.881 607.945,446.23L607.945,609.099C584.306,599.762 558.79,587.973 543.497,574.807C531.771,564.711 528.011,555.742 526.562,542.617C525.866,536.317 525.457,528.864 527.783,520.882C534.743,496.997 562.521,484.266 578.676,460.966C592.291,441.331 592.216,421.511 586.503,402.164C585.129,397.511 583.153,392.721 580.339,387.93C579.881,386.451 579.572,384.785 579.656,383.057C580.095,374.037 591.3,366.522 598.493,362.54C632.913,343.485 700.656,334.789 747.413,333.394Z" style="fill:url(#_Linear2);"/>
            </g>
            <g transform="matrix(2.59784,0,0,2.59784,-863.535,-702.546)">
                <path d="M582.795,670.981C571.109,680.474 556.214,686.166 540,686.166C502.5,686.166 472.055,655.721 472.055,618.221L472.055,446.228C472.054,445.879 471.957,431.016 459.659,418.717C448.051,407.11 434.158,406.371 432.341,406.325L400.35,406.325C362.851,406.325 332.406,375.88 332.406,338.38C332.406,337.011 332.446,335.651 332.526,334.301C362.569,335.058 419.822,337.24 470.796,349.168C495.701,354.997 554.915,371.346 562.098,407.396C564.608,419.997 562.63,427.228 562.182,428.923C558.611,442.425 546.644,450.383 531.286,461.267C511.73,475.127 485.134,494.664 481.957,537.618C480.613,555.789 482.633,570.572 488.506,584.604C500.421,613.072 528.14,638.254 582.795,670.981Z" style="fill:url(#_Linear3);"/>
            </g>
        </g>
    </g>
    <defs>
        <linearGradient id="_Linear1" x1="0" y1="0" x2="1" y2="0" gradientUnits="userSpaceOnUse" gradientTransform="matrix(2.54562e-14,415.731,-415.731,2.54562e-14,550.568,270.435)"><stop offset="0" style="stop-color:rgb(70,188,198);stop-opacity:1"/><stop offset="0.47" style="stop-color:rgb(30,147,157);stop-opacity:1"/><stop offset="1" style="stop-color:rgb(18,135,145);stop-opacity:1"/></linearGradient>
        <linearGradient id="_Linear2" x1="0" y1="0" x2="1" y2="0" gradientUnits="userSpaceOnUse" gradientTransform="matrix(2.52058e-14,411.642,-411.642,2.52058e-14,540,270.435)"><stop offset="0" style="stop-color:rgb(127,82,51);stop-opacity:1"/><stop offset="1" style="stop-color:rgb(77,40,15);stop-opacity:1"/></linearGradient>
        <linearGradient id="_Linear3" x1="0" y1="0" x2="1" y2="0" gradientUnits="userSpaceOnUse" gradientTransform="matrix(-6.68546e-14,415.731,-415.731,-6.68546e-14,540,270.435)"><stop offset="0" style="stop-color:rgb(37,156,109);stop-opacity:1"/><stop offset="1" style="stop-color:rgb(7,97,61);stop-opacity:1"/></linearGradient>
    </defs>
</svg>
