<?xml version="1.0" encoding="UTF-8" standalone="no"?><!DOCTYPE svg PUBLIC "-//W3C//DTD SVG 1.1//EN" "http://www.w3.org/Graphics/SVG/1.1/DTD/svg11.dtd"><svg width="100%" height="100%" viewBox="0 0 689 132" version="1.1" xmlns="http://www.w3.org/2000/svg" xmlns:xlink="http://www.w3.org/1999/xlink" xml:space="preserve" style="fill-rule:evenodd;clip-rule:evenodd;stroke-linejoin:round;stroke-miterlimit:2;"><g id="Long-Logo"><g><path d="M136.31,56.629c-2.917,0 -9.48,0.146 -15.459,3.209c-2.042,-1.75 -4.521,-2.771 -7.292,-2.771c-6.126,-0 -10.939,4.958 -10.939,10.938l0,50.462c0,6.417 5.105,11.521 11.522,11.521c6.417,0 11.522,-5.104 11.522,-11.521l-0,-29.752c-0,-4.959 4.229,-8.751 9.334,-8.897c6.417,-0.146 11.959,-4.667 12.25,-11.084c0.292,-6.417 -4.521,-11.959 -10.938,-12.105Z" style="fill-rule:nonzero;"/><path d="M217.545,57.067c-3.501,-0 -6.417,1.458 -8.459,4.083c-5.542,-2.917 -11.522,-4.667 -17.939,-4.667c-20.564,0 -37.336,16.772 -37.336,37.336c0,20.564 16.772,37.336 37.336,37.336c6.709,-0 12.688,-1.75 18.23,-4.667c2.042,2.042 4.959,3.5 8.168,3.5c5.979,0 10.938,-4.958 10.938,-10.938l-0,-51.045c-0,-5.98 -4.959,-10.938 -10.938,-10.938Zm-26.398,50.899c-7.875,-0 -14.147,-6.271 -14.147,-14.147c0,-7.875 6.272,-14.147 14.147,-14.147c7.876,0 14.147,6.272 14.147,14.147c-0,7.876 -6.271,14.147 -14.147,14.147Z" style="fill-rule:nonzero;"/><path d="M251.818,129.988c-6.417,0 -11.668,-5.25 -11.668,-11.667l0,-50.462c0,-6.417 5.251,-11.667 11.668,-11.667c6.417,-0 11.667,5.25 11.667,11.667l0,50.462c0,6.417 -5.25,11.667 -11.667,11.667Z" style="fill-rule:nonzero;"/><circle cx="251.818" cy="39.416" r="11.667"/><path d="M286.091,129.988c-6.417,0 -11.668,-5.25 -11.668,-11.667l0,-73.651c0,-6.417 5.251,-11.667 11.668,-11.667c6.417,-0 11.667,5.25 11.667,11.667l0,73.651c0,6.417 -5.25,11.667 -11.667,11.667Z" style="fill-rule:nonzero;"/><path d="M404.661,22.064c-6.125,0 -9.626,4.23 -11.959,9.043c-0.875,1.896 -18.96,38.648 -30.19,61.837c-11.375,-23.189 -29.314,-60.087 -30.189,-61.837c-2.479,-4.813 -5.98,-9.043 -12.105,-9.043c-6.271,0 -11.522,5.251 -11.522,11.668l0,84.589c0,6.417 5.251,11.667 11.522,11.667c6.563,0 11.813,-5.25 11.813,-11.667l0,-41.274l21.293,43.316c1.75,3.646 5.397,5.833 9.188,5.833c3.647,0 7.293,-2.042 9.189,-5.833l21.147,-43.316l-0,41.274c-0,6.417 5.25,11.667 11.813,11.667c6.417,0 11.668,-5.25 11.668,-11.667l-0,-84.589c-0,-6.417 -5.251,-11.668 -11.668,-11.668Z" style="fill-rule:nonzero;"/><path d="M490.271,57.067c-3.5,-0 -6.417,1.458 -8.459,4.083c-5.542,-2.917 -11.522,-4.667 -17.939,-4.667c-20.564,0 -37.335,16.772 -37.335,37.336c-0,20.564 16.771,37.336 37.335,37.336c6.709,-0 12.689,-1.75 18.231,-4.667c2.042,2.042 4.958,3.5 8.167,3.5c5.979,0 10.938,-4.958 10.938,-10.938l0,-51.045c0,-5.98 -4.959,-10.938 -10.938,-10.938Zm-26.398,50.899c-7.875,-0 -14.146,-6.271 -14.146,-14.147c-0,-7.875 6.271,-14.147 14.146,-14.147c7.876,0 14.147,6.272 14.147,14.147c0,7.876 -6.271,14.147 -14.147,14.147Z" style="fill-rule:nonzero;"/><path d="M544.524,106.653l-2.187,0c-4.23,0 -6.126,-3.5 -6.126,-7.146l0,-22.168l10.647,-0c5.688,-0 10.209,-4.521 10.209,-10.063c-0,-5.688 -4.521,-10.209 -10.209,-10.209l-10.647,-0l0,-11.522c0,-6.417 -5.25,-11.667 -11.667,-11.667c-6.417,-0 -11.667,5.25 -11.667,11.667l-0,53.962c-0,16.918 12.25,30.481 29.46,30.481l2.187,0c6.418,0 11.668,-5.25 11.668,-11.667c-0,-6.417 -5.25,-11.668 -11.668,-11.668Z" style="fill-rule:nonzero;"/><path d="M634.801,89.152c-2.333,-18.668 -18.084,-32.669 -36.898,-32.669c-16.48,0 -29.169,10.355 -34.273,22.752c-3.938,9.48 -4.084,21.001 0.437,30.335c5.834,12.105 18.96,21.585 35.732,21.585c7.438,-0 14.584,-1.896 20.855,-5.542c4.667,-2.771 6.272,-8.897 3.501,-13.709c-2.771,-4.667 -8.897,-6.417 -13.564,-3.501c-9.334,5.105 -21.439,3.646 -27.856,-6.125l38.795,0c8.313,0 14.146,-4.375 13.271,-13.126Zm-51.92,-3.5c1.313,-5.542 7.584,-10.792 14.876,-10.792c7.438,-0 13.564,5.25 14.876,10.792l-29.752,-0Z" style="fill-rule:nonzero;"/><path d="M671.408,76.318c-2.771,-0.875 -6.855,-1.896 -7.584,1.313c-0.729,2.916 4.521,4.375 6.709,4.812c4.375,0.875 8.605,3.355 11.667,6.709c6.709,7.001 8.167,18.085 4.376,26.835c-3.938,9.043 -12.981,14.439 -22.606,15.022c-5.396,0.292 -16.626,-1.167 -21.147,-7.146c-5.688,-7.584 -0.146,-18.231 9.042,-17.793c3.646,0.146 7.584,2.917 10.646,3.063c5.251,0.437 6.418,-5.98 1.459,-7.293c-9.188,-2.771 -15.897,-6.417 -20.126,-14.876c-3.063,-6.417 -2.334,-14.438 2.041,-20.272c7.001,-9.479 20.272,-12.688 31.211,-8.459c5.833,2.334 10.646,8.313 7,14.731c-2.625,4.375 -7.146,5.25 -12.688,3.354Z" style="fill-rule:nonzero;"/></g><g id="logo-v2"><path d="M0.191,18.413c1.399,-10.39 10.311,-18.413 21.082,-18.413l43.723,0l43.724,0.001c10.869,-0 19.845,8.168 21.118,18.696c-10.725,-0.242 -20.361,0.439 -21.012,0.483c-23.138,1.547 -31.326,5.847 -34.956,9.585c-0.624,0.642 -1.136,1.295 -1.554,1.949c-1.865,-1.52 -4.147,-2.974 -6.937,-4.309c-16.316,-7.805 -43.537,-8.4 -63.725,-8.02c-0.114,0.002 -0.789,0.015 -1.463,0.028Z"/><path d="M129.936,19.712c0.038,0.516 0.057,1.036 0.057,1.562c-0,11.741 -9.532,21.273 -21.273,21.273l-10.016,-0c-0.569,0.014 -4.919,0.246 -8.553,3.88c-3.851,3.85 -3.881,8.504 -3.882,8.613l0,50.994c-7.401,-2.924 -15.39,-6.615 -20.178,-10.737c-3.671,-3.161 -4.848,-5.969 -5.302,-10.079c-0.218,-1.972 -0.346,-4.305 0.382,-6.805c2.179,-7.478 10.877,-11.464 15.935,-18.759c4.263,-6.147 4.239,-12.353 2.45,-18.411c-0.43,-1.456 -1.049,-2.956 -1.93,-4.456c-0.143,-0.463 -0.24,-0.985 -0.213,-1.526c0.137,-2.824 3.645,-5.177 5.897,-6.423c10.777,-5.967 31.987,-8.689 46.626,-9.126Z"/><path d="M78.395,125.409c-3.659,2.972 -8.322,4.754 -13.399,4.754c-11.74,-0 -21.273,-9.533 -21.273,-21.273l0,-53.85c0,-0.109 -0.03,-4.763 -3.881,-8.614c-3.634,-3.634 -7.984,-3.865 -8.553,-3.88l-10.016,0c-11.741,0 -21.273,-9.532 -21.273,-21.273c0,-0.429 0.013,-0.854 0.038,-1.277c9.406,0.237 27.332,0.92 43.291,4.655c7.798,1.825 26.337,6.944 28.586,18.231c0.786,3.945 0.167,6.209 0.026,6.74c-1.118,4.227 -4.864,6.719 -9.673,10.126c-6.123,4.34 -14.45,10.457 -15.444,23.905c-0.421,5.689 0.211,10.318 2.05,14.711c3.73,8.913 12.409,16.798 29.521,27.045Z"/></g></g></svg>