<?xml version="1.0" encoding="UTF-8" standalone="no"?><!DOCTYPE svg PUBLIC "-//W3C//DTD SVG 1.1//EN" "http://www.w3.org/Graphics/SVG/1.1/DTD/svg11.dtd"><svg width="100%" height="100%" viewBox="0 0 690 133" version="1.1" xmlns="http://www.w3.org/2000/svg" xmlns:xlink="http://www.w3.org/1999/xlink" xml:space="preserve" style="fill-rule:evenodd;clip-rule:evenodd;stroke-linejoin:round;stroke-miterlimit:2;"><g id="Long-Logo"><g><path d="M136.31,58.086c-2.917,-0 -9.48,0.145 -15.459,3.208c-2.042,-1.75 -4.521,-2.771 -7.292,-2.771c-6.126,0 -10.939,4.959 -10.939,10.938l0,50.462c0,6.417 5.105,11.522 11.522,11.522c6.417,-0 11.522,-5.105 11.522,-11.522l-0,-29.752c-0,-4.959 4.229,-8.751 9.334,-8.896c6.417,-0.146 11.959,-4.667 12.25,-11.085c0.292,-6.417 -4.521,-11.959 -10.938,-12.104Z" style="fill-rule:nonzero;"/><path d="M217.545,58.523c-3.501,0 -6.417,1.458 -8.459,4.084c-5.542,-2.917 -11.522,-4.667 -17.939,-4.667c-20.564,-0 -37.336,16.772 -37.336,37.335c0,20.564 16.772,37.336 37.336,37.336c6.709,0 12.688,-1.75 18.23,-4.667c2.042,2.042 4.959,3.501 8.168,3.501c5.979,-0 10.938,-4.959 10.938,-10.939l-0,-51.045c-0,-5.979 -4.959,-10.938 -10.938,-10.938Zm-26.398,50.899c-7.875,0 -14.147,-6.271 -14.147,-14.147c0,-7.875 6.272,-14.146 14.147,-14.146c7.876,-0 14.147,6.271 14.147,14.146c-0,7.876 -6.271,14.147 -14.147,14.147Z" style="fill-rule:nonzero;"/><path d="M251.818,131.445c-6.417,-0 -11.668,-5.251 -11.668,-11.668l0,-50.462c0,-6.417 5.251,-11.667 11.668,-11.667c6.417,-0 11.667,5.25 11.667,11.667l0,50.462c0,6.417 -5.25,11.668 -11.667,11.668Z" style="fill-rule:nonzero;"/><path d="M286.091,131.445c-6.417,-0 -11.668,-5.251 -11.668,-11.668l0,-73.651c0,-6.417 5.251,-11.667 11.668,-11.667c6.417,-0 11.667,5.25 11.667,11.667l0,73.651c0,6.417 -5.25,11.668 -11.667,11.668Z" style="fill-rule:nonzero;"/><path d="M404.661,23.521c-6.125,-0 -9.626,4.229 -11.959,9.042c-0.875,1.896 -18.96,38.648 -30.19,61.837c-11.375,-23.189 -29.314,-60.087 -30.189,-61.837c-2.479,-4.813 -5.98,-9.042 -12.105,-9.042c-6.271,-0 -11.522,5.25 -11.522,11.667l0,84.589c0,6.417 5.251,11.668 11.522,11.668c6.563,-0 11.813,-5.251 11.813,-11.668l0,-41.273l21.293,43.315c1.75,3.646 5.397,5.834 9.188,5.834c3.647,-0 7.293,-2.042 9.189,-5.834l21.147,-43.315l-0,41.273c-0,6.417 5.25,11.668 11.813,11.668c6.417,-0 11.668,-5.251 11.668,-11.668l-0,-84.589c-0,-6.417 -5.251,-11.667 -11.668,-11.667Z" style="fill-rule:nonzero;"/><path d="M490.271,58.523c-3.5,0 -6.417,1.458 -8.459,4.084c-5.542,-2.917 -11.522,-4.667 -17.939,-4.667c-20.564,-0 -37.335,16.772 -37.335,37.335c-0,20.564 16.771,37.336 37.335,37.336c6.709,0 12.689,-1.75 18.231,-4.667c2.042,2.042 4.958,3.501 8.167,3.501c5.979,-0 10.938,-4.959 10.938,-10.939l0,-51.045c0,-5.979 -4.959,-10.938 -10.938,-10.938Zm-26.398,50.899c-7.875,0 -14.146,-6.271 -14.146,-14.147c-0,-7.875 6.271,-14.146 14.146,-14.146c7.876,-0 14.147,6.271 14.147,14.146c0,7.876 -6.271,14.147 -14.147,14.147Z" style="fill-rule:nonzero;"/><path d="M544.524,108.11l-2.187,-0c-4.23,-0 -6.126,-3.501 -6.126,-7.147l0,-22.168l10.647,0c5.688,0 10.209,-4.521 10.209,-10.063c-0,-5.688 -4.521,-10.209 -10.209,-10.209l-10.647,0l0,-11.522c0,-6.417 -5.25,-11.667 -11.667,-11.667c-6.417,0 -11.667,5.25 -11.667,11.667l-0,53.962c-0,16.918 12.25,30.482 29.46,30.482l2.187,-0c6.418,-0 11.668,-5.251 11.668,-11.668c-0,-6.417 -5.25,-11.667 -11.668,-11.667Z" style="fill-rule:nonzero;"/><path d="M634.801,90.608c-2.333,-18.667 -18.084,-32.668 -36.898,-32.668c-16.48,-0 -29.169,10.355 -34.273,22.751c-3.938,9.48 -4.084,21.002 0.437,30.336c5.834,12.104 18.96,21.584 35.732,21.584c7.438,0 14.584,-1.896 20.855,-5.542c4.667,-2.771 6.272,-8.896 3.501,-13.709c-2.771,-4.667 -8.897,-6.417 -13.564,-3.5c-9.334,5.104 -21.439,3.646 -27.856,-6.126l38.795,0c8.313,0 14.146,-4.375 13.271,-13.126Zm-51.92,-3.5c1.313,-5.542 7.584,-10.792 14.876,-10.792c7.438,-0 13.564,5.25 14.876,10.792l-29.752,0Z" style="fill-rule:nonzero;"/><path d="M671.408,77.774c-2.771,-0.875 -6.855,-1.896 -7.584,1.313c-0.729,2.917 4.521,4.375 6.709,4.813c4.375,0.875 8.605,3.354 11.667,6.708c6.709,7.001 8.167,18.085 4.376,26.836c-3.938,9.042 -12.981,14.438 -22.606,15.021c-5.396,0.292 -16.626,-1.166 -21.147,-7.146c-5.688,-7.584 -0.146,-18.23 9.042,-17.793c3.646,0.146 7.584,2.917 10.646,3.063c5.251,0.438 6.418,-5.98 1.459,-7.292c-9.188,-2.771 -15.897,-6.417 -20.126,-14.876c-3.063,-6.417 -2.334,-14.439 2.041,-20.272c7.001,-9.48 20.272,-12.689 31.211,-8.459c5.833,2.333 10.646,8.313 7,14.73c-2.625,4.375 -7.146,5.25 -12.688,3.354Z" style="fill-rule:nonzero;"/></g><g id="logo-v2"><path d="M0.191,19.869c1.399,-10.39 10.311,-18.413 21.082,-18.413l43.723,0l43.724,0.001c10.869,-0 19.845,8.169 21.118,18.696c-10.725,-0.241 -20.361,0.44 -21.012,0.483c-23.138,1.548 -31.326,5.847 -34.956,9.585c-0.624,0.642 -1.136,1.296 -1.554,1.95c-1.865,-1.521 -4.147,-2.974 -6.937,-4.309c-16.316,-7.805 -43.537,-8.401 -63.725,-8.021c-0.114,0.002 -0.789,0.015 -1.463,0.028Z"/><path d="M129.936,21.168c0.038,0.516 0.057,1.037 0.057,1.562c-0,11.741 -9.532,21.273 -21.273,21.273l-10.016,0c-0.569,0.015 -4.919,0.246 -8.553,3.88c-3.851,3.851 -3.881,8.504 -3.882,8.614l0,50.993c-7.401,-2.923 -15.39,-6.614 -20.178,-10.737c-3.671,-3.161 -4.848,-5.969 -5.302,-10.078c-0.218,-1.973 -0.346,-4.306 0.382,-6.805c2.179,-7.479 10.877,-11.465 15.935,-18.759c4.263,-6.148 4.239,-12.354 2.45,-18.411c-0.43,-1.457 -1.049,-2.957 -1.93,-4.457c-0.143,-0.463 -0.24,-0.984 -0.213,-1.525c0.137,-2.825 3.645,-5.177 5.897,-6.424c10.777,-5.966 31.987,-8.689 46.626,-9.126Z"/><path d="M78.395,126.865c-3.659,2.972 -8.322,4.754 -13.399,4.754c-11.74,-0 -21.273,-9.532 -21.273,-21.273l0,-53.85c0,-0.109 -0.03,-4.763 -3.881,-8.613c-3.634,-3.635 -7.984,-3.866 -8.553,-3.881l-10.016,0c-11.741,0 -21.273,-9.532 -21.273,-21.273c0,-0.428 0.013,-0.854 0.038,-1.276c9.406,0.236 27.332,0.919 43.291,4.654c7.798,1.825 26.337,6.944 28.586,18.231c0.786,3.945 0.167,6.209 0.026,6.74c-1.118,4.227 -4.864,6.719 -9.673,10.127c-6.123,4.339 -14.45,10.456 -15.444,23.904c-0.421,5.69 0.211,10.318 2.05,14.712c3.73,8.913 12.409,16.797 29.521,27.044Z"/></g><g id="Extra-Objects"><g><path d="M201.309,37.354c1.339,-0.262 2.209,-1.562 1.947,-2.902c-0.261,-1.339 -1.555,-2.21 -2.894,-1.948c-1.339,0.261 -2.218,1.555 -1.956,2.895c0.262,1.339 1.564,2.216 2.903,1.955Z" style="fill-rule:nonzero;"/><path d="M223.857,53.027c-0.392,-0.735 -1.024,-0.733 -1.412,0.004l-0.48,0.912c-0.389,0.737 -1.378,1.335 -2.21,1.335l-1.131,-0c-0.833,-0 -2,0.462 -2.607,1.031l-2.19,2.053c-0.256,0.241 -0.609,0.417 -0.986,0.524c0.052,-0.11 0.074,-0.234 0.047,-0.357l-3.479,-22.604l-0.015,-0.043c-0.1,-0.289 -0.422,-0.451 -0.719,-0.347c-0.267,0.093 -0.4,0.373 -0.366,0.654l1.073,6.961l-3.506,-0.188l-1.798,-3.862c-0.302,-0.65 -1.127,-1.148 -1.844,-1.112l-2.273,0.206c-0.204,0.01 -0.395,0.071 -0.569,0.163c-0.493,-0.063 -1.061,0.144 -1.511,0.373c-0.01,-0.02 -0.021,-0.038 -0.031,-0.058c0.286,-0.398 0.418,-0.905 0.317,-1.424c-0.194,-0.995 -1.161,-1.647 -2.156,-1.452c-0.995,0.194 -1.646,1.162 -1.452,2.156c0.077,0.398 0.282,0.736 0.558,0.992c-0.141,0.218 -0.212,0.458 -0.159,0.694c0.229,1.013 0.482,2.379 0.36,3.075c-0.208,1.191 -1.059,4.13 0.502,4.172c0.891,0.024 1.848,-0.193 2.506,-0.384l-0.524,12.341c0.002,0.122 0.017,0.237 0.039,0.35c0.028,0.143 0.078,0.276 0.136,0.403l-0.794,0.652c-0.644,0.528 -1.799,0.724 -2.581,0.437l-2.079,-0.762c-0.781,-0.287 -1.727,0.078 -2.114,0.816l-0.486,0.931c-0.386,0.738 -0.024,1.336 0.809,1.336l32.792,-0c0.832,-0 1.64,-0.662 1.803,-1.479l0.539,-2.697c0.164,-0.816 -0.022,-2.074 -0.414,-2.809l-1.595,-2.993Zm-27.246,-14.152c-0.42,0.082 -0.832,-0.053 -1.125,-0.323c-0.015,-0.014 -0.033,-0.027 -0.048,-0.041c-0.008,-0.008 -0.014,-0.017 -0.02,-0.024c-0.057,-0.064 -0.109,-0.131 -0.154,-0.206c-0.161,-0.268 -0.202,-0.585 -0.116,-0.894c0.086,-0.304 0.286,-0.564 0.565,-0.732c0.228,-0.137 0.496,-0.182 0.751,-0.125c0.259,0.057 0.475,0.211 0.608,0.433c0.111,0.185 0.139,0.405 0.081,0.618c-0.059,0.21 -0.196,0.389 -0.387,0.503c-0.333,0.199 -0.76,0.102 -0.951,-0.217c-0.162,-0.271 -0.066,-0.629 0.216,-0.798c0.241,-0.146 0.551,-0.073 0.689,0.159c0.121,0.201 0.05,0.466 -0.158,0.591c-0.01,0.006 -0.02,0.011 -0.029,0.016c-0.016,0.008 -0.007,0.007 0.02,-0.005c0.015,-0.007 0.031,-0.015 0.046,-0.024c0.119,-0.071 0.205,-0.182 0.241,-0.311c0.036,-0.127 0.019,-0.256 -0.045,-0.365c-0.087,-0.144 -0.229,-0.246 -0.4,-0.283c-0.175,-0.039 -0.357,-0.008 -0.515,0.087c-0.207,0.124 -0.355,0.316 -0.418,0.541c-0.062,0.222 -0.033,0.449 0.082,0.64c0.149,0.249 0.391,0.421 0.683,0.486c0.296,0.067 0.605,0.013 0.873,-0.147c0.217,-0.13 0.386,-0.307 0.51,-0.504c-0.13,0.455 -0.501,0.828 -0.999,0.925Zm1.468,0.462c-0.005,-0.032 -0.018,-0.058 -0.024,-0.089c0.233,-0.122 0.495,-0.237 0.743,-0.305c-0.102,0.186 -0.168,0.393 -0.176,0.613l-0.11,2.574l-0.433,-2.793Zm4.61,19.57l-1.297,-0.452c-0.029,-0.01 -0.062,-0.015 -0.093,-0.024l0.399,-9.434l4.652,8.965c0.109,0.238 0.272,0.439 0.467,0.6l-1.264,0.393c-0.796,0.247 -2.078,0.226 -2.864,-0.048Zm7.485,-0.435c-0.253,-0.092 -0.56,-0.153 -0.883,-0.191c0.293,-0.381 0.431,-0.877 0.332,-1.389c-0.025,-0.129 -0.065,-0.247 -0.111,-0.367l-5.818,-11.434l0.046,-1.475l0.471,1.062c0.368,0.678 1.043,0.623 1.043,0.623l4.143,0.23c0.084,-0.001 0.162,-0.008 0.24,-0.023c0.037,-0.007 0.069,-0.021 0.104,-0.031l2.053,13.318c0.005,0.014 0.003,0.031 0.006,0.038c0.021,0.062 0.056,0.113 0.094,0.161c-0.205,-0.013 -0.404,-0.047 -0.584,-0.112l-1.136,-0.41Z" style="fill-rule:nonzero;"/></g><path d="M680.127,40.486c-1.337,-0.358 -2.133,-1.732 -1.776,-3.071c0.358,-1.335 1.738,-2.133 3.075,-1.775c1.338,0.359 2.135,1.739 1.777,3.075c-0.359,1.339 -1.738,2.13 -3.076,1.771Zm-4.94,-1.873c0.825,-0.551 1.684,-0.196 1.684,-0.197c1.072,0.287 1.385,1.377 1.385,1.377l1.542,4.886l0.389,0.095c1.453,0.39 0.945,2.286 -0.508,1.896l-1.024,-0.274c-0.356,-0.088 -0.689,-0.365 -0.848,-0.876l-0.913,-2.888l-4.112,2.346l2.586,2.394c1.08,0.927 0.604,1.964 0.604,1.964l-1.829,6.823c-0.207,0.773 -1,1.235 -1.774,1.028c-0.772,-0.207 -1.227,-1.006 -1.021,-1.777l1.464,-5.46l-4.444,-4.303c-0.529,-0.512 -0.774,-1.295 -0.57,-2.054c0.139,-0.521 0.459,-0.947 0.885,-1.216l6.504,-3.764Zm0.716,16.923c0.979,-3.655 4.733,-5.816 8.384,-4.838c3.645,0.977 5.815,4.724 4.836,8.38c-0.979,3.653 -4.734,5.817 -8.379,4.841c-3.648,-0.978 -5.821,-4.727 -4.841,-8.383Zm6.61,-2.081c-2.126,0 -3.853,1.727 -3.853,3.853c0,2.126 1.727,3.852 3.853,3.852c2.126,0 3.852,-1.726 3.852,-3.852c0,-2.126 -1.726,-3.853 -3.852,-3.853Zm-12.365,0.539c-0.979,3.653 -4.73,5.818 -8.386,4.838c-3.642,-0.976 -5.814,-4.727 -4.835,-8.38c0.979,-3.654 4.735,-5.816 8.377,-4.84c3.654,0.978 5.823,4.727 4.844,8.382Zm-6.61,-5.624c-2.126,0 -3.853,1.726 -3.853,3.853c0,2.126 1.727,3.852 3.853,3.852c2.126,0 3.852,-1.726 3.852,-3.852c0,-2.127 -1.726,-3.853 -3.852,-3.853Z"/><g><path d="M491.841,53.107c-0.393,-0.738 -1.028,-0.736 -1.417,0.004l-0.482,0.915c-0.39,0.74 -1.382,1.339 -2.217,1.339l-1.135,0c-0.836,0 -2.007,0.464 -2.616,1.035l-2.19,2.055l-0.084,-7.136c0.056,-1.249 -0.717,-1.668 -0.717,-1.668l-3.829,-1.758l2.28,-4.58l2.609,1.551c-0,0 1.047,0.658 1.809,-0.631l2.507,-4.272c0.11,-0.238 0.142,-0.512 0.071,-0.786c-0.161,-0.627 -0.799,-1.006 -1.428,-0.845c-0.276,0.071 -0.505,0.236 -0.66,0.454l-2.084,3.519l-4.25,-2.512c-0.321,-0.184 -0.712,-0.25 -1.101,-0.15l-5.305,1.362c-0.34,0.088 -0.606,0.323 -0.745,0.619l-2.58,5.157c-0.175,0.261 -0.245,0.591 -0.16,0.922c0.154,0.605 0.775,0.972 1.383,0.816c0.341,-0.087 0.606,-0.321 0.745,-0.62l2.391,-4.798l1.959,-0.494l-5.16,10.151l-4.467,1.133c-0.119,0.027 -0.236,0.069 -0.35,0.124c-0.717,0.367 -0.993,1.231 -0.627,1.95c0.32,0.628 1.033,0.924 1.686,0.744l5.286,-1.367c1.259,-0.277 1.578,-0.978 1.578,-0.978l2.071,-3.981l4.217,2.416l0.04,5.837c0,0.073 0.017,0.147 0.028,0.22l-0.785,-0.284c-0.786,-0.283 -2.07,-0.312 -2.868,-0.065l-1.77,0.551c-0.798,0.248 -2.085,0.226 -2.874,-0.049l-1.301,-0.453c-0.79,-0.275 -1.952,-0.067 -2.599,0.463l-1.625,1.335c-0.646,0.53 -1.805,0.726 -2.589,0.439l-2.086,-0.765c-0.784,-0.288 -1.734,0.078 -2.122,0.819l-0.488,0.933c-0.388,0.74 -0.024,1.341 0.811,1.341l32.906,-0c0.835,-0 1.645,-0.664 1.809,-1.484l0.542,-2.707c0.163,-0.819 -0.022,-2.081 -0.416,-2.817l-1.601,-3.004Z" style="fill-rule:nonzero;"/><path d="M479.734,39.543c1.205,-0.308 1.934,-1.538 1.624,-2.744c-0.31,-1.208 -1.54,-1.933 -2.746,-1.623c-1.205,0.31 -1.932,1.537 -1.623,2.744c0.31,1.207 1.54,1.934 2.745,1.623Z" style="fill-rule:nonzero;"/></g><path d="M449.363,25.637c5.997,0 10.859,-4.051 10.859,-9.048c0,-3.961 -3.054,-7.327 -7.306,-8.553c-0.605,-4.521 -5.205,-8.036 -10.792,-8.036c-5.997,-0 -10.858,4.051 -10.858,9.048c-0,1.106 0.237,2.165 0.673,3.144c-0.511,-0.084 -1.038,-0.127 -1.578,-0.127c-4.498,-0 -8.144,3.038 -8.144,6.786c-0,3.748 3.646,6.786 8.144,6.786l19.002,0Z" style="fill-rule:nonzero;"/><path d="M218.825,18.934c-4.601,-0 -8.332,-2.992 -8.332,-6.683c0,-2.925 2.343,-5.411 5.606,-6.316c0.464,-3.339 3.994,-5.935 8.28,-5.935c4.601,-0 8.331,2.992 8.331,6.683c0,0.816 -0.182,1.598 -0.516,2.321c0.392,-0.062 0.797,-0.094 1.211,-0.094c3.451,0 6.248,2.244 6.248,5.012c0,2.768 -2.797,5.012 -6.248,5.012l-14.58,-0Z" style="fill-rule:nonzero;"/><path d="M620.913,28.268c-6.95,0 -12.584,-4.467 -12.584,-9.977c-0,-4.367 3.539,-8.079 8.467,-9.431c0.7,-4.984 6.032,-8.86 12.506,-8.86c6.95,-0 12.584,4.467 12.584,9.977c0,1.219 -0.275,2.386 -0.78,3.466c0.592,-0.092 1.203,-0.14 1.829,-0.14c5.212,-0 9.438,3.35 9.438,7.482c0,4.133 -4.226,7.483 -9.438,7.483l-22.022,0Z" style="fill-rule:nonzero;"/><path d="M567.597,31.752c4.472,0 8.098,-2.991 8.098,-6.682c0,-2.925 -2.277,-5.411 -5.449,-6.317c-0.451,-3.338 -3.882,-5.934 -8.048,-5.934c-4.473,-0 -8.099,2.992 -8.099,6.682c0,0.817 0.178,1.599 0.502,2.322c-0.381,-0.062 -0.774,-0.094 -1.177,-0.094c-3.354,-0 -6.074,2.244 -6.074,5.012c0,2.768 2.72,5.011 6.074,5.011l14.173,0Z" style="fill-rule:nonzero;"/><g><path d="M323.204,11.572c0.976,0.488 2.764,-0.434 2.764,-0.434c-3.904,-4.338 -6.072,-10.41 -6.072,-10.41c-0,0 -2.169,6.072 -6.072,10.41c-0,0 1.788,0.922 2.764,0.434c0,-0 -0.976,3.741 -5.367,8.675c3.903,1.084 6.831,-0.705 6.831,-0.705l0,5.367l3.688,0l-0,-5.367c-0,-0 2.928,1.789 6.831,0.705c-4.391,-4.934 -5.367,-8.675 -5.367,-8.675Z" style="fill-rule:nonzero;"/></g><g><path d="M602.401,41.705c1.369,0.685 3.878,-0.608 3.878,-0.608c-5.476,-6.084 -8.518,-14.602 -8.518,-14.602c0,0 -3.042,8.518 -8.518,14.602c0,0 2.509,1.293 3.879,0.608c-0,0 -1.37,5.248 -7.529,12.169c5.475,1.52 9.582,-0.989 9.582,-0.989l-0,7.529l5.173,-0l-0,-7.529c-0,-0 4.106,2.509 9.581,0.989c-6.159,-6.921 -7.528,-12.169 -7.528,-12.169Z" style="fill-rule:nonzero;"/></g><clipPath id="_clip1"><rect id="tree-svgrepo-com.svg" x="124.321" y="36.808" width="23.606" height="23.606"/></clipPath><g clip-path="url(#_clip1)"><g><path d="M139.353,47.394c0.953,0.476 2.699,-0.424 2.699,-0.424c-3.811,-4.234 -5.928,-10.162 -5.928,-10.162c0,0 -2.117,5.928 -5.928,10.162c0,0 1.746,0.9 2.699,0.424c0,-0 -0.953,3.652 -5.239,8.469c3.81,1.058 6.668,-0.689 6.668,-0.689l0,5.24l3.6,-0l0,-5.24c0,-0 2.858,1.747 6.668,0.689c-4.286,-4.817 -5.239,-8.469 -5.239,-8.469Z" style="fill-rule:nonzero;"/></g></g></g><path d="M263.485,47.785c0,-1.529 -0.61,-2.914 -1.598,-3.929c0.035,-0.267 0.061,-0.536 0.061,-0.813c-0,-3.076 -2.308,-5.608 -5.286,-5.972c-1.497,-1.604 -3.623,-2.612 -5.99,-2.612c-4.529,-0 -8.2,3.671 -8.2,8.2c0,0.024 0.004,0.047 0.004,0.071c-1.703,1.151 -2.823,3.1 -2.823,5.31c0,3.031 2.107,5.564 4.933,6.23c0.573,1.402 1.95,2.392 3.558,2.392c0.6,-0 1.165,-0.141 1.671,-0.386l-0,7.267l4.404,-0l-0,-4.771l1.717,-2.934c1.758,-0.129 3.244,-1.237 3.905,-2.786c2.128,-0.806 3.644,-2.857 3.644,-5.267Zm-11.654,6.114c0.038,0.053 0.077,0.104 0.116,0.155l-0.195,0.079c0.029,-0.077 0.056,-0.155 0.079,-0.234Zm1.378,3.589l0,-2.305c0.408,0.248 0.857,0.434 1.335,0.546l-1.335,1.759Z" style="fill-rule:nonzero;"/></g></svg>