<svg xmlns="http://www.w3.org/2000/svg" xmlns:xlink="http://www.w3.org/1999/xlink" version="1.1" x="0px" y="0px" viewBox="0 0 500 500" style="enable-background:new 0 0 500 500;" xml:space="preserve">
<g id="Background_Complete">
	<g>
		<rect y="382.398" style="fill:#ebebeb;" width="500" height="0.25"/>
		<rect x="416.779" y="398.494" style="fill:#ebebeb;" width="33.122" height="0.25"/>
		<rect x="322.527" y="401.208" style="fill:#ebebeb;" width="8.693" height="0.25"/>
		<rect x="396.586" y="389.208" style="fill:#ebebeb;" width="19.192" height="0.25"/>
		<rect x="52.459" y="390.888" style="fill:#ebebeb;" width="43.193" height="0.25"/>
		<rect x="104.556" y="390.888" style="fill:#ebebeb;" width="6.333" height="0.25"/>
		<rect x="131.471" y="395.111" style="fill:#ebebeb;" width="93.676" height="0.25"/>
		<path style="fill:#ebebeb;" d="M237.014,337.8H43.915c-3.147,0-5.708-2.561-5.708-5.708V60.66c0-3.147,2.561-5.708,5.708-5.708    h193.099c3.146,0,5.707,2.561,5.707,5.708v271.432C242.721,335.239,240.16,337.8,237.014,337.8z M43.915,55.203    c-3.01,0-5.458,2.448-5.458,5.458v271.432c0,3.01,2.448,5.458,5.458,5.458h193.099c3.009,0,5.457-2.448,5.457-5.458V60.66    c0-3.009-2.448-5.458-5.457-5.458H43.915z"/>
		<path style="fill:#ebebeb;" d="M453.31,337.8H260.212c-3.147,0-5.707-2.561-5.707-5.708V60.66c0-3.147,2.561-5.708,5.707-5.708    H453.31c3.148,0,5.708,2.561,5.708,5.708v271.432C459.019,335.239,456.458,337.8,453.31,337.8z M260.212,55.203    c-3.009,0-5.457,2.448-5.457,5.458v271.432c0,3.01,2.448,5.458,5.457,5.458H453.31c3.01,0,5.458-2.448,5.458-5.458V60.66    c0-3.009-2.448-5.458-5.458-5.458H260.212z"/>
	</g>
	<g>
		<path style="fill:#E0E0E0;" d="M93.049,382.412H23.984c7.49-6.882,25.118-6.458,25.118-6.458s-12.227-13.139-7.717-21.56    c4.51-8.421,16.583,10.044,16.583,10.044s-15.185-27.49-9.536-34.343c5.649-6.854,20.835,30.105,20.835,30.105    s-9.224-39.111-3.676-40.22c5.549-1.109,11.346,37.086,11.346,37.086s-1.995-34.914,2.676-33.919    c4.671,0.996,2.407,46.562,2.407,46.562s4.697-23.245,6.705-15.834c2.009,7.412-2.015,23.313-2.015,23.313    C91.338,377.253,92.669,380.418,93.049,382.412z"/>
		<g>
			<path style="fill:#E0E0E0;" d="M88.921,374.81c-0.362-4.971-11.953-174.329-10.67-237.308l-4.905-0.332     c0,0-6.091,190.204-0.995,236.987L88.921,374.81z"/>
			<polygon style="fill:#E0E0E0;" points="76.948,158.52 89.553,148.273 90.812,141.913 98.385,130.364 100.008,129.771      92.543,142.827 92.246,147.213 103.592,145.129 108.344,136.366 113.356,132.427 114.102,133.726 109.833,137.54      106.337,146.905 90.795,150.814 74.578,170.457    "/>
			<polygon style="fill:#E0E0E0;" points="74.47,148.995 73.86,153.286 60.228,140.241 51.829,138.577 45.349,134.109      45.796,133.677 51.95,137.597 58.77,137.926 52.308,129.887 45.948,125.258 46.384,124.99 52.762,129.124 63.263,139.751      62.223,130.029 59.789,125.897 59.553,124.757 62.615,129.262 70.596,126.629 71.261,127.127 63.076,130.045 64.552,140.763         "/>
			<path style="fill:#E0E0E0;" d="M119.844,132.253c0.308-1.742-2.45-2.986-5.427-3.188c-1.494-0.101-4.18-0.416-6.516-1.03     c0.279-0.622,0.08-1.378,0.48-2.459c0.87-2.352,0.406-3.944-2.207-5.996c-2.613-2.051-5.247-1.654-10.965-0.983     c-5.718,0.671-4.914-1.919-10.081-4.384c-5.166-2.465-23.124-1.44-26.432,0.856c-1.99,1.381-9.751,0.574-11.909,3.954     c-2.158,3.38-14.896,2.518-13.211,5.452c1.684,2.935,3.702,3.071,3.37,7.985c-0.333,4.914,4.123,3.276,8.585,5.128     c4.462,1.852,3.864-1.62,6.783-1.842c2.919-0.222,2.113-0.516,5.112-1.903c2.999-1.387,2.574,0.353,7.332,2.745     c2.624,1.319,3.599-0.274,4.408-1.952c0.481,1.113-0.061,2.735,0.919,4.614c0.785,1.505,3.937,1.837,6.936,1.557     c3.286,6.248,4.701,1.039,8.821,1.485c4.345,0.47,10.885-2.965,13.951-3.333c3.066-0.367,3.264-1.144,6.433,1.312     c3.169,2.455,16.809-2.338,18.094-4.812C125.605,132.985,119.536,133.995,119.844,132.253z"/>
		</g>
		<g>
			<path style="fill:#E0E0E0;" d="M177.913,384.378c-0.31-4.252-10.223-149.095-9.125-202.958l-4.195-0.284     c0,0-5.209,162.672-0.851,202.683L177.913,384.378z"/>
			<polygon style="fill:#E0E0E0;" points="167.672,199.396 178.453,190.633 179.53,185.193 186.007,175.316 187.395,174.809      181.01,185.975 180.757,189.726 190.46,187.944 194.524,180.449 198.811,177.08 199.448,178.191 195.797,181.453      192.807,189.462 179.515,192.805 165.646,209.605    "/>
			<polygon style="fill:#E0E0E0;" points="165.553,191.25 165.032,194.919 153.373,183.763 146.189,182.34 140.648,178.519      141.03,178.149 146.293,181.501 152.126,181.783 146.6,174.907 141.16,170.949 141.532,170.72 146.987,174.255 155.969,183.344      155.079,175.029 152.997,171.495 152.795,170.521 155.414,174.373 162.24,172.121 162.809,172.547 155.808,175.043      157.071,184.21    "/>
			<path style="fill:#E0E0E0;" d="M204.359,176.931c0.263-1.49-2.095-2.554-4.641-2.726c-1.278-0.086-3.575-0.356-5.573-0.881     c0.239-0.532,0.069-1.178,0.411-2.103c0.744-2.012,0.347-3.373-1.888-5.128c-2.235-1.755-4.487-1.414-9.378-0.84     c-4.89,0.574-4.203-1.641-8.622-3.75c-4.419-2.108-19.777-1.231-22.606,0.732c-1.702,1.181-8.339,0.491-10.185,3.382     c-1.846,2.891-12.74,2.153-11.299,4.663c1.44,2.51,3.166,2.627,2.882,6.829c-0.284,4.202,3.526,2.802,7.343,4.386     s3.304-1.385,5.801-1.575c2.496-0.19,1.807-0.442,4.372-1.628c2.565-1.186,2.202,0.302,6.271,2.348     c2.244,1.128,3.078-0.234,3.77-1.67c0.411,0.952-0.052,2.339,0.786,3.946c0.671,1.287,3.367,1.571,5.932,1.332     c2.81,5.343,4.021,0.889,7.544,1.27c3.716,0.402,9.31-2.536,11.932-2.85c2.622-0.314,2.791-0.978,5.501,1.122     c2.711,2.1,14.376-1.999,15.475-4.115C209.287,177.558,204.096,178.421,204.359,176.931z"/>
		</g>
		<path style="fill:#E6E6E6;" d="M142.874,314.579c-0.93-6.585-18.446-141.867-22.411-225.812h-6.559    c0,0,3.686,169.594,14.682,231.407L142.874,314.579z"/>
		<path style="fill:#E6E6E6;" d="M122.571,381.741c0,0,34.154-63.833,55.851-73.699c3.067-1.394,9.914,2.492,14.015,0    c4.101-2.492,13.053-19.539,19.918-19.191c6.865,0.348,38.513-50.418,50.645-54.046l9.192-1.006c0,0,14.017-13.533,17.181-14.143    c3.165-0.611,12.271,13.869,12.271,13.869l-4.285,10.984c0,0,7.311,15.973,8.366,17.672c1.055,1.699-4.47,41.177-4.081,43.592    c0.389,2.415,9.356,35.394,14.103,40.531c4.747,5.137,0,36.221,0,36.221L122.571,381.741z"/>
		<path style="fill:#F0F0F0;" d="M48.97,381.505H223.1c-18.883-10.301-63.328-9.665-63.328-9.665s30.827-19.665,19.456-32.268    c-11.371-12.603-41.81,15.032-41.81,15.032s38.285-41.142,24.043-51.4c-14.242-10.257-52.531,45.056-52.531,45.056    s23.257-58.535,9.267-60.196c-13.989-1.66-28.607,55.505-28.607,55.505s5.031-52.255-6.747-50.764    c-11.778,1.491-6.068,69.688-6.068,69.688s-11.841-34.79-16.905-23.697c-5.064,11.092,5.08,34.891,5.08,34.891    C53.284,373.784,49.927,378.52,48.97,381.505z"/>
		<polygon style="fill:#E6E6E6;" points="120.621,116.862 136.477,102.087 137.581,93.507 146.62,77.453 148.727,76.518     139.967,94.568 139.967,100.434 154.881,96.637 160.417,84.545 166.734,78.851 167.843,80.512 162.504,85.973 158.694,98.754     138.359,105.356 118.542,132.964   "/>
		<polygon style="fill:#E6E6E6;" points="116.465,104.407 116.04,110.173 96.72,94.036 85.39,92.578 76.362,87.215 76.918,86.599     85.462,91.262 94.571,91.087 85.245,80.967 76.362,75.379 76.918,74.983 85.78,79.911 100.715,93.11 98.455,80.263 94.843,74.983     94.426,73.488 98.908,79.207 109.295,74.983 110.225,75.586 99.592,80.209 102.522,94.342   "/>
		<path style="fill:#F0F0F0;" d="M175.354,78.034c0.253-2.347-3.529-3.754-7.511-3.754c-1.998,0-5.601-0.178-8.766-0.784    c0.316-0.853-0.018-1.841,0.417-3.316c0.947-3.21,0.185-5.287-3.478-7.782c-3.663-2.495-7.133-1.728-14.683-0.32    c-7.551,1.408-6.714-2.112-13.813-4.928c-7.099-2.816-30.909,0.166-35.106,3.52c-2.524,2.017-12.927,1.643-15.496,6.336    c-2.568,4.693-19.601,4.693-17.094,8.448c2.506,3.754,5.205,3.754,5.205,10.325c0,6.57,5.783,3.989,11.89,6.053    c6.106,2.063,4.997-2.504,8.862-3.063c3.865-0.559,2.766-0.878,6.633-2.994c3.867-2.116,3.458,0.239,10.007,2.994    c3.612,1.52,4.765-0.689,5.692-2.995c0.741,1.438,0.165,3.646,1.639,6.058c1.18,1.932,5.406,2.091,9.373,1.448    c4.937,8.02,6.352,0.959,11.875,1.182c5.826,0.235,14.222-4.928,18.271-5.693c4.048-0.765,4.241-1.816,8.68,1.166    c4.44,2.983,22.163-4.625,23.651-8.034S175.101,80.38,175.354,78.034z"/>
		<circle style="fill:#FAFAFA;" cx="349.644" cy="116.53" r="41.546"/>
		<path style="fill:#f5f5f5;" d="M423.795,108.339c0-3.737-3.03-6.767-6.767-6.767c-0.676,0-1.327,0.102-1.943,0.286    c0.099-0.679,0.152-1.372,0.152-2.078c0-7.914-6.416-14.33-14.33-14.33c-0.902,0-1.784,0.087-2.64,0.247    c-2.203-3.605-6.162-6.019-10.695-6.019c-6.862,0-12.428,5.513-12.53,12.351c-0.07-0.001-0.138-0.011-0.209-0.011    c-6.376,0-11.544,5.168-11.544,11.544c0,6.376,5.168,11.544,11.544,11.544h42.394l-0.009-0.01    C420.867,114.995,423.795,112.012,423.795,108.339z"/>
		<path style="fill:#f5f5f5;" d="M351.288,169.415c0-3.737-3.03-6.767-6.767-6.767c-0.676,0-1.327,0.102-1.943,0.286    c0.099-0.679,0.152-1.372,0.152-2.078c0-7.915-6.416-14.331-14.331-14.331c-0.902,0-1.784,0.087-2.64,0.247    c-2.202-3.605-6.162-6.019-10.695-6.019c-6.862,0-12.428,5.513-12.53,12.351c-0.07-0.001-0.138-0.011-0.209-0.011    c-6.376,0-11.544,5.168-11.544,11.544s5.168,11.544,11.544,11.544h42.394l-0.009-0.01    C348.36,176.071,351.288,173.089,351.288,169.415z"/>
		<path style="fill:#f5f5f5;" d="M468.828,254.947c0-3.737-3.03-6.767-6.767-6.767c-0.676,0-1.327,0.102-1.943,0.286    c0.099-0.678,0.152-1.372,0.152-2.078c0-7.914-6.416-14.33-14.33-14.33c-0.902,0-1.784,0.087-2.64,0.247    c-2.203-3.605-6.162-6.019-10.696-6.019c-6.862,0-12.428,5.513-12.53,12.351c-0.07-0.001-0.138-0.011-0.209-0.011    c-6.376,0-11.544,5.168-11.544,11.544c0,6.376,5.168,11.544,11.544,11.544h42.394l-0.009-0.01    C465.899,261.603,468.828,258.62,468.828,254.947z"/>
		<path style="fill:#f5f5f5;" d="M373.13,266.396c0-2.259-1.831-4.09-4.09-4.09c-0.408,0-0.802,0.062-1.174,0.173    c0.06-0.41,0.092-0.829,0.092-1.256c0-4.784-3.878-8.661-8.661-8.661c-0.545,0-1.078,0.053-1.595,0.149    c-1.331-2.179-3.724-3.638-6.464-3.638c-4.147,0-7.511,3.332-7.573,7.465c-0.042-0.001-0.084-0.006-0.126-0.006    c-3.853,0-6.977,3.124-6.977,6.977c0,3.854,3.124,6.977,6.977,6.977h25.623l-0.005-0.006    C371.36,270.419,373.13,268.616,373.13,266.396z"/>
		<path style="fill:#f5f5f5;" d="M266.513,90.915c0-2.259-1.831-4.09-4.09-4.09c-0.408,0-0.802,0.062-1.174,0.173    c0.06-0.41,0.092-0.829,0.092-1.256c0-4.784-3.878-8.661-8.661-8.661c-0.545,0-1.078,0.053-1.596,0.149    c-1.331-2.179-3.724-3.638-6.464-3.638c-4.147,0-7.511,3.332-7.573,7.465c-0.042-0.001-0.083-0.006-0.126-0.006    c-3.854,0-6.977,3.124-6.977,6.977c0,3.854,3.124,6.977,6.977,6.977h25.623l-0.005-0.006    C264.744,94.938,266.513,93.135,266.513,90.915z"/>
	</g>
</g>
<g id="Background_Simple" style="display:none;">
	<g style="display:inline;">
		<path style="fill:#386641;" d="M125.864,190.872c-5.993-1.134-12.115-1.238-18.473,0.471    c-31.709,8.521-31.984,48.658-22.845,73.861c14.808,40.836,49.26,73.49,90.021,88.501c40.761,15.011,87.082,12.829,127.311-3.555    c40.229-16.383,74.327-46.423,97.947-82.877c26.334-40.643,50.31-99.616,21.787-145.173    c-21.098-33.697-65.533-51.13-103.814-39.966c-7.86,2.292-15.359,5.767-22.176,10.304c-26.634,17.725-37.731,48.316-54.403,74.201    c-11.382,17.672-28.121,35.465-49.472,39.918C168.282,211.451,148.016,195.063,125.864,190.872z"/>
		<path style="opacity:0.9;fill:#FFFFFF;" d="M125.864,190.872c-5.993-1.134-12.115-1.238-18.473,0.471    c-31.709,8.521-31.984,48.658-22.845,73.861c14.808,40.836,49.26,73.49,90.021,88.501c40.761,15.011,87.082,12.829,127.311-3.555    c40.229-16.383,74.327-46.423,97.947-82.877c26.334-40.643,50.31-99.616,21.787-145.173    c-21.098-33.697-65.533-51.13-103.814-39.966c-7.86,2.292-15.359,5.767-22.176,10.304c-26.634,17.725-37.731,48.316-54.403,74.201    c-11.382,17.672-28.121,35.465-49.472,39.918C168.282,211.451,148.016,195.063,125.864,190.872z"/>
	</g>
</g>
<g id="Shadow_1_">
	<ellipse id="_x3C_Path_x3E__359_" style="fill:#f5f5f5;" cx="250" cy="416.238" rx="193.889" ry="11.323"/>
</g>
<g id="Plant_1">
	<g>
		<g>
			<path style="fill:#386641;" d="M107.917,416.734H71.283c0,0,7.295-11.162,10.404-9.746c4.047,1.844,7.046-8.268,11.526-5.873     c1.578,0.844,0.806,3.549,1.801,4.638c1.642,1.798,3.73,1.449,5.715,2.438C104.616,410.127,105.999,412.693,107.917,416.734z"/>
			<path style="opacity:0.2;enable-background:new    ;" d="M107.917,416.734H71.283c0,0,7.295-11.162,10.404-9.746     c4.047,1.844,7.046-8.268,11.526-5.873c1.578,0.844,0.806,3.549,1.801,4.638c1.642,1.798,3.73,1.449,5.715,2.438     C104.616,410.127,105.999,412.693,107.917,416.734z" fill="#000000"/>
		</g>
		<g>
			<path style="fill:#386641;" d="M75.287,413.621c0,0,2.405-13.953,0.745-15.998c-1.66-2.045-1.951,7.613-1.951,7.613     s-5.58-20.161-9.151-20.267c-3.571-0.106,4.24,17.49,4.24,17.49s-15.262-24.942-19.699-22.619     c-4.436,2.323,15.975,24.432,15.975,24.432s-11.164-9.605-13.623-6.893c-2.459,2.712,12.393,11.007,12.393,11.007     s-6.549-1.473-6.542,0.708C57.68,411.272,68.73,414.859,75.287,413.621z"/>
			<path style="opacity:0.2;fill:#FFFFFF;enable-background:new    ;" d="M75.287,413.621c0,0,2.405-13.953,0.745-15.998     c-1.66-2.045-1.951,7.613-1.951,7.613s-5.58-20.161-9.151-20.267c-3.571-0.106,4.24,17.49,4.24,17.49     s-15.262-24.942-19.699-22.619c-4.436,2.323,15.975,24.432,15.975,24.432s-11.164-9.605-13.623-6.893     c-2.459,2.712,12.393,11.007,12.393,11.007s-6.549-1.473-6.542,0.708C57.68,411.272,68.73,414.859,75.287,413.621z"/>
		</g>
		<g>
			<path style="fill:#386641;" d="M77.486,411.628c0,0,11.47-2.081,12.583-3.942c1.113-1.861-6.439,0.641-6.439,0.641     s14.016-10.009,13.089-12.8c-0.926-2.791-12.329,8.218-12.329,8.218s14.979-18.847,11.929-21.621     c-3.049-2.775-14.383,19.254-14.383,19.254s4.275-11.346,1.484-12.482c-2.792-1.136-5.012,12.692-5.012,12.692     s-0.711-5.48-2.395-4.859C74.33,397.349,74.677,406.907,77.486,411.628z"/>
			<path style="opacity:0.2;fill:#FFFFFF;enable-background:new    ;" d="M77.486,411.628c0,0,11.47-2.081,12.583-3.942     c1.113-1.861-6.439,0.641-6.439,0.641s14.016-10.009,13.089-12.8c-0.926-2.791-12.329,8.218-12.329,8.218     s14.979-18.847,11.929-21.621c-3.049-2.775-14.383,19.254-14.383,19.254s4.275-11.346,1.484-12.482     c-2.792-1.136-5.012,12.692-5.012,12.692s-0.711-5.48-2.395-4.859C74.33,397.349,74.677,406.907,77.486,411.628z"/>
		</g>
		<g>
			<path style="fill:#386641;" d="M78.347,410.103c0,0,11.077-11.097,10.879-14.007s-6.622,5.647-6.622,5.647     s7.809-21.81,4.644-24.183c-3.165-2.374-7.319,18.536-7.319,18.536s2.094-32.313-3.404-33.04     c-5.498-0.727-1.123,32.306-1.123,32.306s-3.979-15.815-7.935-14.93c-3.956,0.886,4.198,17.868,4.198,17.868     s-4.989-5.51-6.373-3.532C63.907,396.747,71.622,407.042,78.347,410.103z"/>
			<path style="opacity:0.4;fill:#FFFFFF;enable-background:new    ;" d="M78.347,410.103c0,0,11.077-11.097,10.879-14.007     s-6.622,5.647-6.622,5.647s7.809-21.81,4.644-24.183c-3.165-2.374-7.319,18.536-7.319,18.536s2.094-32.313-3.404-33.04     c-5.498-0.727-1.123,32.306-1.123,32.306s-3.979-15.815-7.935-14.93c-3.956,0.886,4.198,17.868,4.198,17.868     s-4.989-5.51-6.373-3.532C63.907,396.747,71.622,407.042,78.347,410.103z"/>
		</g>
		<path style="fill:#386641;" d="M91.775,416.734H62.582c0,0,5.813-8.895,8.291-7.766c3.225,1.469,5.615-6.589,9.185-4.68    c1.258,0.672,0.642,2.828,1.435,3.696c1.308,1.433,2.973,1.155,4.554,1.943C89.144,411.469,90.247,413.514,91.775,416.734z"/>
	</g>
</g>
<g id="Plant_2">
	<g>
		<g>
			<path style="fill:#386641;" d="M367.615,193.833c0,0-3.983,4.659-5.405,4.009c-1.422-0.649-2.062-1.11-3.984-0.05     c-1.922,1.061-4.69,1.638-4.549-0.204c0.141-1.842,2.96-4.074,3.034-5.338c0.074-1.264,0.315-3.974,1.731-4.553     c1.417-0.579,6.115-2.9,7.19-2.001s1.583,1.122,3.033,0.953c1.45-0.169,3.002,0.196,2.631,1.622     c-0.37,1.426,0.101,1.93-0.082,3.346C371.031,193.033,368.904,194.072,367.615,193.833z"/>
			<path style="opacity:0.6;fill:#FFFFFF;enable-background:new    ;" d="M367.615,193.833c0,0-3.983,4.659-5.405,4.009     c-1.422-0.649-2.062-1.11-3.984-0.05c-1.922,1.061-4.69,1.638-4.549-0.204c0.141-1.842,2.96-4.074,3.034-5.338     c0.074-1.264,0.315-3.974,1.731-4.553c1.417-0.579,6.115-2.9,7.19-2.001s1.583,1.122,3.033,0.953     c1.45-0.169,3.002,0.196,2.631,1.622c-0.37,1.426,0.101,1.93-0.082,3.346C371.031,193.033,368.904,194.072,367.615,193.833z"/>
		</g>
		<g>
			<path style="fill:#386641;" d="M379.4,184.634c0.154-0.133,0.301-0.282,0.439-0.45c0.93-1.124,1.169-2.901,2.499-3.5     c0.668-0.3,1.439-0.204,2.164-0.101c4.039,0.573,11.382,1.228,11.651,6.525c0.21,4.114-4.322,6.941-5.348,10.684     c-0.93,3.395-1.468,7.486-4.568,9.154c-1.985,1.068-4.433,0.725-6.574,0.021c-2.138-0.704-4.193-1.743-6.426-2.023     c-3.307-0.415-8.92,2.241-11.854,0.337c-4.461-2.894,0.79-11.011,2.791-13.881c1.808-2.592,4.432-4.755,7.547-5.498     C374.125,185.33,377.382,186.378,379.4,184.634z"/>
			<path style="opacity:0.5;fill:#FFFFFF;enable-background:new    ;" d="M379.4,184.634c0.154-0.133,0.301-0.282,0.439-0.45     c0.93-1.124,1.169-2.901,2.499-3.5c0.668-0.3,1.439-0.204,2.164-0.101c4.039,0.573,11.382,1.228,11.651,6.525     c0.21,4.114-4.322,6.941-5.348,10.684c-0.93,3.395-1.468,7.486-4.568,9.154c-1.985,1.068-4.433,0.725-6.574,0.021     c-2.138-0.704-4.193-1.743-6.426-2.023c-3.307-0.415-8.92,2.241-11.854,0.337c-4.461-2.894,0.79-11.011,2.791-13.881     c1.808-2.592,4.432-4.755,7.547-5.498C374.125,185.33,377.382,186.378,379.4,184.634z"/>
		</g>
		<g>
			<path style="fill:#386641;" d="M425.34,224.054c0,0,6.435-0.944,6.708,1.05c0.274,1.994,0.25,3.062,2.316,3.803     c2.067,0.741,4.211,2.767,2.516,4.491c-1.695,1.724-5.318,1.318-6.467,2.522c-1.15,1.204-3.663,3.709-5.009,2.958     c-1.346-0.751-6.159-2.837-6.009-4.756c0.15-1.92,0.044-2.622-0.963-3.818c-1.007-1.195-1.606-3.025-0.139-4.114     s1.629-2.041,2.977-3.295C422.617,221.642,424.785,222.599,425.34,224.054z"/>
			<path style="opacity:0.6;fill:#FFFFFF;enable-background:new    ;" d="M425.34,224.054c0,0,6.435-0.944,6.708,1.05     c0.274,1.994,0.25,3.062,2.316,3.803c2.067,0.741,4.211,2.767,2.516,4.491c-1.695,1.724-5.318,1.318-6.467,2.522     c-1.15,1.204-3.663,3.709-5.009,2.958c-1.346-0.751-6.159-2.837-6.009-4.756c0.15-1.92,0.044-2.622-0.963-3.818     c-1.007-1.195-1.606-3.025-0.139-4.114s1.629-2.041,2.977-3.295C422.617,221.642,424.785,222.599,425.34,224.054z"/>
		</g>
		<g>
			<path style="fill:#386641;" d="M406.765,206.083c-0.15-0.01-0.305-0.007-0.465,0.009c-1.073,0.109-2.121,0.921-3.132,0.546     c-0.507-0.188-0.863-0.639-1.191-1.07c-1.829-2.397-5.354-6.552-2.748-9.48c2.024-2.274,5.877-1.412,8.359-2.85     c2.251-1.304,4.657-3.179,7.154-2.449c1.599,0.468,2.71,1.918,3.472,3.4c0.761,1.48,1.303,3.093,2.333,4.399     c1.526,1.935,5.859,3.448,6.416,5.973c0.846,3.838-6.129,5.387-8.672,5.859c-2.297,0.427-4.8,0.203-6.826-1.022     C409.903,208.454,408.732,206.212,406.765,206.083z"/>
			<path style="opacity:0.6;fill:#FFFFFF;enable-background:new    ;" d="M406.765,206.083c-0.15-0.01-0.305-0.007-0.465,0.009     c-1.073,0.109-2.121,0.921-3.132,0.546c-0.507-0.188-0.863-0.639-1.191-1.07c-1.829-2.397-5.354-6.552-2.748-9.48     c2.024-2.274,5.877-1.412,8.359-2.85c2.251-1.304,4.657-3.179,7.154-2.449c1.599,0.468,2.71,1.918,3.472,3.4     c0.761,1.48,1.303,3.093,2.333,4.399c1.526,1.935,5.859,3.448,6.416,5.973c0.846,3.838-6.129,5.387-8.672,5.859     c-2.297,0.427-4.8,0.203-6.826-1.022C409.903,208.454,408.732,206.212,406.765,206.083z"/>
		</g>
		<g>
			<path style="fill:#386641;" d="M391.016,207.555c0.121-0.089,0.237-0.191,0.349-0.307c0.748-0.777,1.023-2.074,2.037-2.441     c0.509-0.184,1.072-0.07,1.6,0.046c2.945,0.647,8.321,1.538,8.226,5.456c-0.074,3.044-3.571,4.876-4.535,7.578     c-0.874,2.451-1.498,5.436-3.875,6.493c-1.523,0.677-3.308,0.288-4.847-0.35c-1.537-0.637-2.994-1.517-4.624-1.848     c-2.415-0.49-6.699,1.156-8.756-0.41c-3.127-2.381,1.194-8.072,2.828-10.076c1.476-1.81,3.531-3.258,5.868-3.633     C387.089,207.775,389.432,208.728,391.016,207.555z"/>
			<path style="opacity:0.5;fill:#FFFFFF;enable-background:new    ;" d="M391.016,207.555c0.121-0.089,0.237-0.191,0.349-0.307     c0.748-0.777,1.023-2.074,2.037-2.441c0.509-0.184,1.072-0.07,1.6,0.046c2.945,0.647,8.321,1.538,8.226,5.456     c-0.074,3.044-3.571,4.876-4.535,7.578c-0.874,2.451-1.498,5.436-3.875,6.493c-1.523,0.677-3.308,0.288-4.847-0.35     c-1.537-0.637-2.994-1.517-4.624-1.848c-2.415-0.49-6.699,1.156-8.756-0.41c-3.127-2.381,1.194-8.072,2.828-10.076     c1.476-1.81,3.531-3.258,5.868-3.633C387.089,207.775,389.432,208.728,391.016,207.555z"/>
		</g>
		<g>
			<path style="fill:#386641;" d="M374.506,227.318c0.081-0.06,0.16-0.129,0.235-0.207c0.504-0.524,0.689-1.398,1.373-1.646     c0.343-0.124,0.723-0.047,1.079,0.031c1.986,0.436,5.61,1.036,5.546,3.679c-0.05,2.052-2.408,3.287-3.058,5.109     c-0.589,1.652-1.01,3.665-2.612,4.378c-1.027,0.456-2.23,0.194-3.268-0.236c-1.036-0.43-2.018-1.023-3.118-1.246     c-1.628-0.33-4.517,0.78-5.903-0.276c-2.108-1.605,0.805-5.442,1.907-6.793c0.995-1.22,2.381-2.197,3.956-2.449     C371.858,227.466,373.438,228.109,374.506,227.318z"/>
			<path style="opacity:0.5;fill:#FFFFFF;enable-background:new    ;" d="M374.506,227.318c0.081-0.06,0.16-0.129,0.235-0.207     c0.504-0.524,0.689-1.398,1.373-1.646c0.343-0.124,0.723-0.047,1.079,0.031c1.986,0.436,5.61,1.036,5.546,3.679     c-0.05,2.052-2.408,3.287-3.058,5.109c-0.589,1.652-1.01,3.665-2.612,4.378c-1.027,0.456-2.23,0.194-3.268-0.236     c-1.036-0.43-2.018-1.023-3.118-1.246c-1.628-0.33-4.517,0.78-5.903-0.276c-2.108-1.605,0.805-5.442,1.907-6.793     c0.995-1.22,2.381-2.197,3.956-2.449C371.858,227.466,373.438,228.109,374.506,227.318z"/>
		</g>
		<path style="fill:#386641;" d="M403.198,373.769c0,0,7.516,0.17,11.868-22.428c4.352-22.597,5.539-30.056,9.495-28.107    c3.956,1.949-6.782,33.074-6.782,33.074s4.409,1.604,10.738-12.782c6.33-14.387,10.681-24.894,15.429-19.442    c4.747,5.451-10.286,28.792-20.374,38.286c0,0,1.78,3.56,9.692-2.769c7.912-6.33,13.055-12.168,17.011-8.26    c3.956,3.908,3.956,7.864-2.374,7.864c-6.33,0-17.849,7.413-19.804,14.564c0,0,8.727-2.052,15.848,0    c7.121,2.052,11.473,9.08,3.956,11.698c-7.516,2.618-14.684-5.783-19.804,0c0,0,14.661,1.805,15.848,12.101    c1.187,10.297-17.802,13.758-17.802,13.758l-62.11-16.499l10.286-27.854L403.198,373.769z"/>
		<g>
			<path style="fill:#386641;" d="M383.386,374.434c0,0,10.056-48.12,14.078-55.483c0,0,10.294-14.058,11.683-21.436     c1.389-7.378-8.131-53.649-8.131-53.649l-27.016-12.448c0,0-7.374-14.963-12.737-18.512l2.681-2.754     c0,0,10.726,9.789,13.072,19.581l23.999,7.857l-1.877-10.404l-9.944-10.928l-3.921-21.661l3.921-0.394l3.69,17.348l8.131,6.746     l6.168-14.637l-0.335-10.827l2.298-1.562l0.848,10.745l11.602-18.462l2.43,2.079l-14.032,21.654l-0.848,14.768l3.065,9.667     l13.408-7.004l6.369-12.12l3.352-1.047l-6.033,15.55l-12.737,14.46c0,0,6.368,42.726,11.061,54.031     c0,0-13.743,23.196-12.067,34.178c1.676,10.981,4.693,21.743,4.693,21.743l-6.368,53.656l-36.871-2.926L383.386,374.434z"/>
			<path style="opacity:0.2;fill:#FFFFFF;enable-background:new    ;" d="M383.386,374.434c0,0,10.056-48.12,14.078-55.483     c0,0,10.294-14.058,11.683-21.436c1.389-7.378-8.131-53.649-8.131-53.649l-27.016-12.448c0,0-7.374-14.963-12.737-18.512     l2.681-2.754c0,0,10.726,9.789,13.072,19.581l23.999,7.857l-1.877-10.404l-9.944-10.928l-3.921-21.661l3.921-0.394l3.69,17.348     l8.131,6.746l6.168-14.637l-0.335-10.827l2.298-1.562l0.848,10.745l11.602-18.462l2.43,2.079l-14.032,21.654l-0.848,14.768     l3.065,9.667l13.408-7.004l6.369-12.12l3.352-1.047l-6.033,15.55l-12.737,14.46c0,0,6.368,42.726,11.061,54.031     c0,0-13.743,23.196-12.067,34.178c1.676,10.981,4.693,21.743,4.693,21.743l-6.368,53.656l-36.871-2.926L383.386,374.434z"/>
		</g>
		<path style="fill:#386641;" d="M284.912,401.521c0,0-9.898,3.865-10.667,15.213h45.767l4.514-23.142l-20.883-6.653    c0,0-1.302-30.397-5.863-34.263c-4.561-3.866-5.352,5.964-1.792,21.225c0,0-9.099-10.151-15.429-7.533    c-6.33,2.618,11.542,22.835,11.542,22.835s-11.146-3.429-16.685,1.43C269.879,395.491,284.912,401.521,284.912,401.521z"/>
		<g>
			<path style="fill:#386641;" d="M288.275,411.576c0,0-20.851-1.67-27.847,5.158h53.627v-8.403c0,0-10.154-18.692-15.297-19.129     c-5.143-0.436-0.978,15.708-0.978,15.708s-11.083-13.176-16.627-6.672C275.61,404.742,288.275,411.576,288.275,411.576z"/>
			<path style="opacity:0.2;fill:#FFFFFF;enable-background:new    ;" d="M288.275,411.576c0,0-20.851-1.67-27.847,5.158h53.627     v-8.403c0,0-10.154-18.692-15.297-19.129c-5.143-0.436-0.978,15.708-0.978,15.708s-11.083-13.176-16.627-6.672     C275.61,404.742,288.275,411.576,288.275,411.576z"/>
		</g>
		<g>
			<path style="fill:#386641;" d="M394.231,395.83c0,0,8.439-36.111,6.857-42.489c-1.582-6.378-36.125-44.117-42.326-48.983     c-6.201-4.867-22.553-1.777-48.399,13.821c-25.846,15.598-4.22,94.926-2.11,96.141     C310.363,415.535,394.231,395.83,394.231,395.83z"/>
			<path style="opacity:0.6;fill:#FFFFFF;enable-background:new    ;" d="M394.23,395.831c0,0-83.87,19.7-85.98,18.49     c-1.68-0.97-15.72-51.43-8.34-79.84c1.88-7.29,5.18-13.12,10.45-16.3c25.85-15.6,42.2-18.69,48.4-13.82     c6.2,4.86,40.75,42.6,42.33,48.98C402.67,359.721,394.23,395.831,394.23,395.831z"/>
			<path style="opacity:0.1;enable-background:new    ;" d="M394.23,395.831c0,0-83.87,19.7-85.98,18.49     c-1.68-0.97-15.72-51.43-8.34-79.84c2.12,17.73,5.26,42.34,6.76,45.48c2.37,4.98,26.55,0,26.55,0l18.94-16.78l2.77,12.59     l21.76-3.02L394.23,395.831z" fill="#000000"/>
		</g>
		<path style="fill:#223b27;" d="M437.163,416.734l-6.537-10.88l-12.848-8.351c0,0-11.943-15.91-16.69-19.362    c-4.747-3.452-12.659,1.272-12.659,1.272s-11.605,5.155-15.824,9.171c-4.22,4.016-20.044,2.137-27.956,4.69    c-7.912,2.553-23.736,18.985-30.594,18.58c-3.143-0.186-6.616,2.22-9.459,4.88H437.163z"/>
		<g>
			<path style="fill:#386641;" d="M369.176,218.37c0,0-8.96,4.781-10.414,1.995c-1.454-2.786-1.981-4.369-5.41-4.369     c-3.428,0-7.648-1.846-6.066-5.275c1.582-3.429,7.121-4.742,8.176-7.118c1.055-2.376,3.429-7.384,5.802-6.99     c2.374,0.394,10.549,0.921,11.341,3.822c0.791,2.901,1.319,3.877,3.429,5.104c2.11,1.226,3.956,3.6,2.374,5.973     c-1.582,2.374-1.319,3.859-2.637,6.413C374.451,220.48,370.758,220.217,369.176,218.37z"/>
			<path style="opacity:0.6;fill:#FFFFFF;enable-background:new    ;" d="M369.176,218.37c0,0-8.96,4.781-10.414,1.995     c-1.454-2.786-1.981-4.369-5.41-4.369c-3.428,0-7.648-1.846-6.066-5.275c1.582-3.429,7.121-4.742,8.176-7.118     c1.055-2.376,3.429-7.384,5.802-6.99c2.374,0.394,10.549,0.921,11.341,3.822c0.791,2.901,1.319,3.877,3.429,5.104     c2.11,1.226,3.956,3.6,2.374,5.973c-1.582,2.374-1.319,3.859-2.637,6.413C374.451,220.48,370.758,220.217,369.176,218.37z"/>
		</g>
		<g>
			<path style="fill:#386641;" d="M426.655,177.97c0,0,6.629,0.276,6.994,1.954c0.365,1.678,0.384,2.549,2.555,3.494     s4.476,2.954,2.79,4.09s-5.456,0.212-6.598,1.011s-3.644,2.441-5.069,1.606s-6.498-3.329-6.42-4.877     c0.078-1.548-0.062-2.141-1.154-3.285c-1.092-1.143-1.788-2.74-0.312-3.393c1.476-0.652,1.605-1.406,2.949-2.214     C423.735,175.549,426.021,176.687,426.655,177.97z"/>
			<path style="opacity:0.6;fill:#FFFFFF;enable-background:new    ;" d="M426.655,177.97c0,0,6.629,0.276,6.994,1.954     c0.365,1.678,0.384,2.549,2.555,3.494s4.476,2.954,2.79,4.09s-5.456,0.212-6.598,1.011s-3.644,2.441-5.069,1.606     s-6.498-3.329-6.42-4.877c0.078-1.548-0.062-2.141-1.154-3.285c-1.092-1.143-1.788-2.74-0.312-3.393     c1.476-0.652,1.605-1.406,2.949-2.214C423.735,175.549,426.021,176.687,426.655,177.97z"/>
		</g>
		<g>
			<path style="fill:#386641;" d="M429.659,217.396c-0.15-0.01-0.305-0.007-0.465,0.009c-1.073,0.109-2.121,0.921-3.132,0.546     c-0.507-0.188-0.863-0.639-1.191-1.07c-1.829-2.397-5.354-6.552-2.748-9.48c2.024-2.274,5.877-1.412,8.359-2.85     c2.251-1.304,4.657-3.179,7.154-2.449c1.599,0.468,2.71,1.918,3.472,3.4c0.76,1.48,1.303,3.093,2.333,4.399     c1.526,1.935,5.859,3.449,6.416,5.973c0.847,3.838-6.129,5.387-8.672,5.859c-2.297,0.427-4.8,0.203-6.826-1.022     C432.797,219.767,431.626,217.525,429.659,217.396z"/>
			<path style="opacity:0.5;fill:#FFFFFF;enable-background:new    ;" d="M429.659,217.396c-0.15-0.01-0.305-0.007-0.465,0.009     c-1.073,0.109-2.121,0.921-3.132,0.546c-0.507-0.188-0.863-0.639-1.191-1.07c-1.829-2.397-5.354-6.552-2.748-9.48     c2.024-2.274,5.877-1.412,8.359-2.85c2.251-1.304,4.657-3.179,7.154-2.449c1.599,0.468,2.71,1.918,3.472,3.4     c0.76,1.48,1.303,3.093,2.333,4.399c1.526,1.935,5.859,3.449,6.416,5.973c0.847,3.838-6.129,5.387-8.672,5.859     c-2.297,0.427-4.8,0.203-6.826-1.022C432.797,219.767,431.626,217.525,429.659,217.396z"/>
		</g>
		<g>
			<path style="fill:#386641;" d="M415.33,177.785c6.745,3.295,7.912-0.422,9.494,2.279s9.495,1.382,8.176,5.075     c-1.319,3.692-5.539,7.676-2.901,9.508c2.637,1.833-0.116,1.572-5.86,1.966c-5.744,0.394-3.094,5.562-8.909,2.44     c-5.814-3.121-10.022,0.876-12.659,0.997c-2.637,0.121-8.439,2.498-11.077-3.438c-2.637-5.936,0.527-8.054,1.055-13.061     c0.527-5.007-7.122-5.798,1.582-10.018s15.74-3.165,17.365,0C413.22,176.7,412.692,176.497,415.33,177.785z"/>
			<path style="opacity:0.5;fill:#FFFFFF;enable-background:new    ;" d="M415.33,177.785c6.745,3.295,7.912-0.422,9.494,2.279     s9.495,1.382,8.176,5.075c-1.319,3.692-5.539,7.676-2.901,9.508c2.637,1.833-0.116,1.572-5.86,1.966     c-5.744,0.394-3.094,5.562-8.909,2.44c-5.814-3.121-10.022,0.876-12.659,0.997c-2.637,0.121-8.439,2.498-11.077-3.438     c-2.637-5.936,0.527-8.054,1.055-13.061c0.527-5.007-7.122-5.798,1.582-10.018s15.74-3.165,17.365,0     C413.22,176.7,412.692,176.497,415.33,177.785z"/>
		</g>
		<g>
			<path style="fill:#386641;" d="M378.937,191.971c3.065-1.771,3.903-6.248,6.194-5.519c2.29,0.729,6.845,2.919,9.045,1.72     c2.2-1.199,5.323-1.141,5.531,1.12s-2.915,6.025-1.666,8.412c1.249,2.387,0.39,4.886-3.866,5.511     c-4.255,0.625-6.546,2.295-9.878,3.542c-3.332,1.247-2.707-3.05-6.247-4.337C374.511,201.133,369.203,197.593,378.937,191.971z"/>
			<path style="opacity:0.6;fill:#FFFFFF;enable-background:new    ;" d="M378.937,191.971c3.065-1.771,3.903-6.248,6.194-5.519     c2.29,0.729,6.845,2.919,9.045,1.72c2.2-1.199,5.323-1.141,5.531,1.12s-2.915,6.025-1.666,8.412     c1.249,2.387,0.39,4.886-3.866,5.511c-4.255,0.625-6.546,2.295-9.878,3.542c-3.332,1.247-2.707-3.05-6.247-4.337     C374.511,201.133,369.203,197.593,378.937,191.971z"/>
		</g>
		<g>
			<path style="fill:#386641;" d="M432.982,208.336c-3.385-1.035-7.232,1.406-8.26-0.767c-1.029-2.173-2.533-6.998-4.91-7.789     c-2.377-0.791-4.465-3.115-2.953-4.81c1.512-1.694,6.395-1.976,7.289-4.518c0.894-2.542,3.308-3.617,6.667-0.931     c3.359,2.686,6.143,3.223,9.327,4.809c3.184,1.586-0.384,4.06,1.088,7.527C442.701,205.325,443.732,211.621,432.982,208.336z"/>
			<path style="opacity:0.6;fill:#FFFFFF;enable-background:new    ;" d="M432.982,208.336c-3.385-1.035-7.232,1.406-8.26-0.767     c-1.029-2.173-2.533-6.998-4.91-7.789c-2.377-0.791-4.465-3.115-2.953-4.81c1.512-1.694,6.395-1.976,7.289-4.518     c0.894-2.542,3.308-3.617,6.667-0.931c3.359,2.686,6.143,3.223,9.327,4.809c3.184,1.586-0.384,4.06,1.088,7.527     C442.701,205.325,443.732,211.621,432.982,208.336z"/>
		</g>
		<g>
			<path style="fill:#386641;" d="M394.057,180.949c0,0-4.992,3.555-6.215,2.581c-1.222-0.975-1.732-1.577-3.854-1.013     c-2.122,0.564-4.947,0.453-4.364-1.3c0.583-1.753,3.859-3.236,4.237-4.444c0.378-1.208,1.268-3.779,2.783-3.998     c1.515-0.219,6.636-1.333,7.461-0.199c0.825,1.133,1.265,1.472,2.712,1.659c1.448,0.187,2.865,0.917,2.16,2.211     c-0.705,1.294-0.37,1.897-0.891,3.226C397.565,181,395.25,181.492,394.057,180.949z"/>
			<path style="opacity:0.6;fill:#FFFFFF;enable-background:new    ;" d="M394.057,180.949c0,0-4.992,3.555-6.215,2.581     c-1.222-0.975-1.732-1.577-3.854-1.013c-2.122,0.564-4.947,0.453-4.364-1.3c0.583-1.753,3.859-3.236,4.237-4.444     c0.378-1.208,1.268-3.779,2.783-3.998c1.515-0.219,6.636-1.333,7.461-0.199c0.825,1.133,1.265,1.472,2.712,1.659     c1.448,0.187,2.865,0.917,2.16,2.211c-0.705,1.294-0.37,1.897-0.891,3.226C397.565,181,395.25,181.492,394.057,180.949z"/>
		</g>
	</g>
</g>
<g id="Character_1">
	<g>
		<path style="fill:#e8b699;" d="M121.309,173.164c0,0,1.13-10.357,2.218-10.815c1.088-0.458,6.626,1.124,8.604,2.41    c1.978,1.286,2.374,2.958,2.374,2.958v3.273l3.066,3.947l-3.811,4.523l-6.079-3.624    C127.681,175.835,121.192,174.174,121.309,173.164z"/>
		<g>
			<path style="fill:#386641;" d="M122.757,178.891l17.644,7.303l-9.441-6.735l7.403-7.481c0,0,20.819,9.002,20.398,18.99     c-0.42,9.988-15.058,10.383-35.234,8.01L122.757,178.891z"/>
			<path style="opacity:0.1;enable-background:new    ;" d="M158.76,190.97c-0.35,8.39-10.75,10.01-26.02,8.91     c-2.9-0.21-5.99-0.52-9.21-0.9l-0.31-8.04l-0.46-12.05l17.64,7.3l-9.44-6.73l7.4-7.48C138.36,171.98,159.18,180.98,158.76,190.97     z" fill="#000000"/>
		</g>
		<path style="opacity:0.2;enable-background:new    ;" d="M132.74,199.88c-2.9-0.21-5.99-0.52-9.21-0.9l-0.31-8.04    C125.63,191.89,129.67,194.25,132.74,199.88z" fill="#000000"/>
		<path style="fill:#223b27;" d="M88.216,151.845c-0.177,0.062-8.996-0.173-10.974,7.474c-1.978,7.647,4.447,11.757,3.509,19.302    c-0.938,7.546-4.103,14.202-2.52,17.142c1.582,2.94,10.956,4.557,13.192-5.138c2.236-9.695-7.06-25.621-3.203-30.353    C92.077,155.54,88.216,151.845,88.216,151.845z"/>
		<g>
			<path style="fill:#223b27;" d="M118.405,198.712c0,0-1.111-23.646-23.775-23.393c-22.663,0.253-27.147,14.258-21.608,25.058     c0,0,2.459,14.061,2.839,26.013c0.381,11.952-4.701,22.238,14.823,23.556c19.524,1.319,30.118-3.482,30.623-5.961     C121.813,241.505,119.381,208.445,118.405,198.712z"/>
			<path style="opacity:0.2;fill:#FFFFFF;enable-background:new    ;" d="M118.405,198.712c0,0-1.111-23.646-23.775-23.393     c-22.663,0.253-27.147,14.258-21.608,25.058c0,0,2.459,14.061,2.839,26.013c0.381,11.952-4.701,22.238,14.823,23.556     c19.524,1.319,30.118-3.482,30.623-5.961C121.813,241.505,119.381,208.445,118.405,198.712z"/>
		</g>
		<path style="fill:#e8b699;" d="M157.752,405.537l-5.477,1.929c0,0-16.512-38.008-23.229-70.831c0,0-7.605-14.221-14.018-31.51    c-0.536-1.434-1.063-2.898-1.57-4.364c-1.416-4.081-2.737-8.278-3.837-12.446c-2.119-7.95-3.472-15.81-3.329-22.637l21.432,4.645    l3.203,14.112l1.705,7.501l1.733,7.65l5.534,24.384L157.752,405.537z"/>
		<path style="opacity:0.2;enable-background:new    ;" d="M132.632,291.936l-19.174,8.826c-1.416-4.081-2.737-8.278-3.837-12.446    l21.306-3.88L132.632,291.936z" fill="#000000"/>
		<g>
			<path style="fill:#386641;" d="M124.903,256.283l8.862,30.755l-25.513,7.846l-5.206-29.164     C103.045,265.72,112.995,251.374,124.903,256.283z"/>
			<path style="opacity:0.6;fill:#FFFFFF;enable-background:new    ;" d="M133.76,287.035l-18.84,5.795l-6.44,1.982l-0.225,0.069     l-4.018-22.507l-1.187-6.655c0,0,9.944-14.348,21.854-9.433l8.293,28.78L133.76,287.035z"/>
			<polygon style="fill:#386641;" points="135.679,288.664 115.406,295.951 110.737,297.627 108.48,294.812 108.267,294.538      114.796,292.058 133.197,285.065 134.676,284.502    "/>
		</g>
		<path style="opacity:0.2;enable-background:new    ;" d="M113.57,292.42l0.23,3.15l-4.79,1.29l-2.02-2.99l-0.23,0.05l-2.17-22.76    c0.68-1.96,1.1-3.15,1.1-3.15l12.69-8.83c0,0-0.43,5.86-6.34,12.79l1.47,19.67L113.57,292.42z" fill="#000000"/>
		<path style="fill:#223b27;" d="M149.967,405.564c0.017-0.728,8.968-0.157,8.968-0.157s5.506,5.601,10.855,6.859    c5.349,1.259,2.36,4.468-3.618,4.468c-5.978,0-10.541,0-14.789,0C147.135,416.734,149.79,413.116,149.967,405.564z"/>
		<g>
			<path style="fill:#386641;" d="M159.934,406.563c-0.029-0.013-0.054-0.033-0.074-0.055l-0.001-0.001l0,0     c-0.017-0.019-0.031-0.041-0.041-0.065l0,0l0-0.001c-0.01-0.023-0.016-0.048-0.017-0.073l0,0l-0.001-0.001c0,0,0,0,0-0.001l0,0     c-0.002-0.033,0.003-0.066,0.014-0.095c0.038-0.107,0.789-2.179,1.997-2.682c0.385-0.16,0.775-0.148,1.158,0.032     c0.408,0.194,0.606,0.446,0.589,0.753c-0.027,0.47-0.665,0.942-1.392,1.331c0.756-0.073,1.532-0.053,2.007,0.219     c0.252,0.145,0.413,0.349,0.478,0.606c0.135,0.53-0.043,0.812-0.216,0.954c-0.186,0.153-0.463,0.215-0.79,0.215     C162.393,407.698,160.405,406.787,159.934,406.563z M160.753,406.413c1.32,0.559,2.958,1.052,3.381,0.705     c0.037-0.031,0.148-0.122,0.059-0.473c-0.033-0.131-0.117-0.233-0.256-0.313c-0.248-0.142-0.626-0.196-1.055-0.196     C162.192,406.137,161.372,406.276,160.753,406.413z M161.993,404.024c-0.702,0.291-1.255,1.309-1.535,1.923     c1.325-0.504,2.605-1.199,2.628-1.602c0.007-0.125-0.197-0.241-0.32-0.298c-0.138-0.066-0.275-0.099-0.412-0.099     C162.235,403.948,162.115,403.974,161.993,404.024z"/>
		</g>
		<path style="fill:#e8b699;" d="M108.757,409.484l-5.75,0.75c0,0-8.25-40.61-8-74.12c0,0-4.48-15.49-7.16-33.73    c-2.02-13.72-3.02-29-0.34-40.4l20,9l0.41,30l0.34,25L108.757,409.484z"/>
		<path style="opacity:0.2;enable-background:new    ;" d="M107.917,300.984l-20.07,1.4c-2.02-13.72-3.02-29-0.34-40.4l20,9    L107.917,300.984z" fill="#000000"/>
		<path style="fill:#223b27;" d="M100.967,405.564c0.017-0.728,8.968-0.157,8.968-0.157s5.506,5.601,10.855,6.859    c5.349,1.259,2.36,4.468-3.618,4.468c-5.978,0-10.541,0-14.789,0C98.135,416.734,100.79,413.116,100.967,405.564z"/>
		<g>
			<path style="fill:#386641;" d="M110.934,406.563c-0.029-0.013-0.054-0.033-0.075-0.055l-0.001-0.001l0,0     c-0.017-0.019-0.031-0.041-0.041-0.065l0,0l0-0.001c-0.01-0.023-0.016-0.048-0.017-0.073l0,0l0-0.001c0,0,0,0,0-0.001l0,0     c-0.002-0.033,0.003-0.066,0.014-0.095c0.038-0.107,0.789-2.179,1.997-2.682c0.385-0.16,0.775-0.148,1.158,0.032     c0.408,0.194,0.606,0.446,0.589,0.753c-0.027,0.47-0.665,0.942-1.392,1.331c0.756-0.073,1.532-0.053,2.007,0.219     c0.252,0.145,0.413,0.349,0.478,0.606c0.135,0.53-0.043,0.812-0.216,0.954c-0.186,0.153-0.463,0.215-0.79,0.215     C113.393,407.698,111.405,406.787,110.934,406.563z M111.753,406.413c1.319,0.559,2.958,1.052,3.381,0.705     c0.037-0.031,0.148-0.122,0.059-0.473c-0.033-0.131-0.117-0.233-0.256-0.313c-0.248-0.142-0.626-0.196-1.055-0.196     C113.192,406.137,112.371,406.276,111.753,406.413z M112.993,404.024c-0.702,0.291-1.255,1.309-1.534,1.923     c1.325-0.504,2.604-1.199,2.628-1.602c0.007-0.125-0.197-0.241-0.32-0.298c-0.138-0.066-0.275-0.099-0.412-0.099     C113.235,403.948,113.115,403.974,112.993,404.024z"/>
		</g>
		<g>
			<path style="fill:#386641;" d="M110.101,296.401l-0.746-34.588l17.145-5.005c0,0-1.348-15.87-3.349-23.695     c0,0-27.847-6.932-32.094,2.507c-0.019,0.038-0.038,0.153-0.057,0.2l-0.066,0.089c0,0-17.12,12.718-5.612,60.493H110.101z"/>
			<path style="opacity:0.6;fill:#FFFFFF;enable-background:new    ;" d="M110.101,296.401l-0.746-34.588l17.145-5.005     c0,0-1.348-15.87-3.349-23.695c0,0-27.847-6.932-32.094,2.507c-0.019,0.038-0.038,0.153-0.057,0.2l-0.066,0.089     c0,0-17.12,12.718-5.612,60.493H110.101z"/>
		</g>
		<polygon style="fill:#223b27;" points="90.757,230.832 90.757,235.552 122.757,233.08 122.757,227.498   "/>
		
			<rect x="100.205" y="228.883" transform="matrix(0.9987 -0.051 0.051 0.9987 -11.7566 5.4579)" style="fill:#386641;" width="1.601" height="8.156"/>
		
			<rect x="108.735" y="228.954" transform="matrix(0.996 -0.0892 0.0892 0.996 -20.214 10.938)" style="fill:#FFFFFF;" width="7.077" height="5.367"/>
		
			<rect x="119.9" y="226.72" transform="matrix(0.9987 -0.051 0.051 0.9987 -11.6073 6.4524)" style="fill:#386641;" width="1.601" height="8.156"/>
		
			<rect x="100.205" y="228.883" transform="matrix(0.9987 -0.051 0.051 0.9987 -11.7566 5.4579)" style="opacity:0.6;fill:#FFFFFF;enable-background:new    ;" width="1.601" height="8.156"/>
		
			<rect x="119.9" y="226.72" transform="matrix(0.9987 -0.051 0.051 0.9987 -11.6073 6.4524)" style="opacity:0.6;fill:#FFFFFF;enable-background:new    ;" width="1.601" height="8.156"/>
		<path style="fill:#223b27;" d="M123.15,228.061l-32.245,2.79c-0.765-11.988-1.529-19.719-8.628-41.081    c-0.614-1.869-1.284-3.851-2.011-5.947c4.38-1.397,8.845-2.473,13.376-3.228c4.786-0.85,9.628-1.359,14.48-1.529    c6.277-0.047,13.479,0.661,13.479,0.661s1.029,0.245,1.671,6.891C123.868,192.866,124.443,205.349,123.15,228.061z"/>
		<path style="opacity:0.2;fill:#FFFFFF;enable-background:new    ;" d="M123.147,228.064l-32.24,2.79    c-0.53-8.21-1.05-14.42-3.6-24.37c-0.83-3.22-1.87-6.84-3.19-11.04c-0.56-1.78-1.17-3.66-1.84-5.67    c-0.61-1.87-1.28-3.86-2.01-5.95c4.38-1.4,8.84-2.47,13.38-3.23c4.78-0.85,9.62-1.36,14.48-1.53c6.27-0.05,13.48,0.66,13.48,0.66    s1.02,0.25,1.67,6.89C123.867,192.864,124.447,205.354,123.147,228.064z"/>
		<polygon style="fill:#386641;" points="83.257,294.984 111.507,294.734 111.007,298.984 84.507,298.734   "/>
		<path style="fill:#386641;" d="M91.42,267.83l-16.55-3.4l11.01-32.08l-3.71-19.48l-2.22-11.68l-3.1-16.26    c0,0,8.23-4.33,13.91-4.56C90.76,180.37,99.67,212.66,91.42,267.83z"/>
		<path style="fill:#386641;" d="M111.659,177.895c0,0,6.097,24.427,9.041,40.898c2.944,16.472,4.608,43.191,4.608,43.191    l5.652-2.804l-5.652-29.938c0,0,1.624-42.554-2.551-50.35L111.659,177.895z"/>
		<g>
			<path style="fill:#223b27;" d="M111.659,177.895c0,0,12.001,18.38,13.885,42.045l0.955-5.335c0,0-0.883-20.176-11.741-37.12     L111.659,177.895z"/>
			<path style="opacity:0.1;fill:#FFFFFF;enable-background:new    ;" d="M111.659,177.895c0,0,12.001,18.38,13.885,42.045     l0.955-5.335c0,0-0.883-20.176-11.741-37.12L111.659,177.895z"/>
		</g>
		<g>
			<path style="fill:#223b27;" d="M90.757,178.891c0,0,1.745,30.502-6.28,46.096l-1.203-2.274c0,0,6.364-17.892,2.803-42.342     L90.757,178.891z"/>
			<path style="opacity:0.1;fill:#FFFFFF;enable-background:new    ;" d="M90.757,178.891c0,0,1.745,30.502-6.28,46.096     l-1.203-2.274c0,0,6.364-17.892,2.803-42.342L90.757,178.891z"/>
		</g>
		<g>
			<path style="fill:#386641;" d="M114.541,189.876c0,0,1.173-11.864,0.678-13.496s-23.658-1.568-27.356,1.515     c-3.699,3.083,5.169,14.785,5.169,14.785s0.627-10.713,0.924-11.405c0.297-0.692,12.598-2.071,14.508-1.53     C110.374,180.286,114.541,189.876,114.541,189.876z"/>
			<path style="opacity:0.2;enable-background:new    ;" d="M114.541,189.876c0,0,1.173-11.864,0.678-13.496     s-23.658-1.568-27.356,1.515c-3.699,3.083,5.169,14.785,5.169,14.785s0.627-10.713,0.924-11.405     c0.297-0.692,12.598-2.071,14.508-1.53C110.374,180.286,114.541,189.876,114.541,189.876z" fill="#000000"/>
		</g>
		<path style="fill:#e8b699;" d="M105.467,186.194c-7.95-1.02-10.34-4.42-10.34-4.42c3.25-3.06,2.66-7.58,1.83-10.4    c-0.45-1.56-0.98-2.6-0.98-2.6l9.57,1.79c-0.25,1.58-0.36,2.91-0.37,4.03c-0.02,1.23,0.09,2.2,0.27,2.96    c0.65,2.86,2.28,2.9,2.28,2.9C109.407,183.594,105.467,186.194,105.467,186.194z"/>
		<path style="opacity:0.2;enable-background:new    ;" d="M105.177,174.594c-0.02,1.23,0.09,2.2,0.27,2.96    c-3.8-0.5-6.68-3.54-8.49-6.18c-0.45-1.56-0.98-2.6-0.98-2.6l9.57,1.79C105.297,172.144,105.187,173.474,105.177,174.594z" fill="#000000"/>
		<g>
			<path style="fill:#223b27;" d="M112.515,155.469c0,0,1.7-4.885-2.495-11.001c-4.195-6.116-13.013-7.434-19.335,0     c0,0-3.454,0.214-5.531,6.148c-2.077,5.934,0.421,17.104,10.298,19.382C105.33,172.275,112.515,155.469,112.515,155.469z"/>
			<path style="fill:#e8b699;" d="M98.983,145.347c8.183-1.546,11.644,2.338,13.837,10.657c2.74,10.397,1.817,18.325-8.839,18.007     C89.508,173.579,85.393,147.913,98.983,145.347z"/>
			<path style="fill:#DE5753;" d="M107.443,156.546c0,0,1.538,1.923,3.022,2.944c0,0-0.49,1.245-1.982,1.333L107.443,156.546z"/>
			<g>
				<path style="fill:#223b27;" d="M102.309,156.822c0.143,0.669-0.103,1.289-0.549,1.384c-0.446,0.095-0.924-0.37-1.066-1.039      c-0.143-0.669,0.103-1.289,0.549-1.384C101.688,155.688,102.166,156.153,102.309,156.822z"/>
				<path style="fill:#223b27;" d="M101.063,155.855l1.334-0.881C102.397,154.974,101.933,156.353,101.063,155.855z"/>
			</g>
			<g>
				<path style="fill:#223b27;" d="M110.598,154.909c0.143,0.669-0.103,1.289-0.549,1.384c-0.446,0.095-0.924-0.37-1.066-1.039      c-0.143-0.669,0.103-1.289,0.549-1.384C109.978,153.775,110.455,154.24,110.598,154.909z"/>
				<path style="fill:#223b27;" d="M109.353,153.942l1.334-0.881C110.686,153.061,110.223,154.44,109.353,153.942z"/>
			</g>
			
				<path style="fill:none;stroke:#223b27;stroke-width:0.708;stroke-linecap:round;stroke-linejoin:round;stroke-miterlimit:10;" d="     M101.159,151.187c0,0-2.356,0.135-3.315,1.907"/>
			
				<path style="fill:none;stroke:#223b27;stroke-width:0.708;stroke-linecap:round;stroke-linejoin:round;stroke-miterlimit:10;" d="     M107.041,149.718c0,0,1.344-0.808,3.388,0.057"/>
			<path style="fill:#223b27;" d="M92.645,160.828c0,0,2.556-7.446,0.996-12.527c0,0,14.964-9.688,18.874,6.62     c0,0-1.176-14.914-15.305-12.583c-14.106,2.328-10.181,22.9-1.758,27.659C95.452,169.997,91.072,165.479,92.645,160.828z"/>
			<path style="fill:#e8b699;" d="M94.308,162.302c-0.303-1.307-2.084-3.28-4.484-2.55c-2.483,0.756-2.709,6.19,3.835,6.25     C94.598,166.011,94.941,165.03,94.308,162.302z"/>
			<path style="fill:#223b27;" d="M112.823,161.462c0,0-1.195,0.429-1.163,1.337C111.682,163.449,113.846,163.637,112.823,161.462z"/>
			<path style="fill:#223b27;" d="M93.641,148.301c0,0,7.994-3.521,14.503,2.887c0,0-3.74-6.803-13.513-4.33     C94.63,146.857,92.831,147.272,93.641,148.301z"/>
			<path style="fill:none;stroke:#223b27;stroke-width:0.5;stroke-linecap:round;stroke-linejoin:round;stroke-miterlimit:10;" d="     M93.641,148.301c0,0,2.843,4.189,1.283,9.433"/>
		</g>
		<g>
			<path style="fill:#386641;" d="M115.29,162.279l-2.501-1.119l-1.957,4.376l2.501,1.119c0.673,0.301,1.188,0.872,1.417,1.573l0,0     c0.229,0.701,0.744,1.272,1.417,1.573l20.056,8.969c0.699,0.313,1.518-0.001,1.831-0.699l2.226-4.978     c0.313-0.699-0.001-1.519-0.699-1.831l-20.056-8.969c-0.673-0.301-1.442-0.304-2.117-0.007l0,0     C116.732,162.583,115.963,162.58,115.29,162.279z"/>
			<path style="opacity:0.7;fill:#FFFFFF;enable-background:new    ;" d="M125.82,165.109l-6.296-2.815     c-0.673-0.301-1.442-0.304-2.117-0.008c-0.675,0.296-1.444,0.294-2.118-0.007l-2.501-1.119l-1.957,4.376l2.501,1.119     c0.673,0.301,1.188,0.872,1.417,1.573c0.229,0.701,0.744,1.272,1.417,1.573l6.296,2.815L125.82,165.109z"/>
			<path style="opacity:0.7;fill:#FFFFFF;enable-background:new    ;" d="M130.33,176.135l5.893,2.635     c0.699,0.312,1.519-0.001,1.831-0.699l2.226-4.978c0.313-0.699-0.001-1.518-0.699-1.831l-5.893-2.635L130.33,176.135z"/>
		</g>
		<path style="opacity:0.2;enable-background:new    ;" d="M82.17,212.87l-2.22-11.68l1.78-1.75    C81.73,199.44,85.03,205.99,82.17,212.87z" fill="#000000"/>
		<path style="fill:#e8b699;" d="M78.165,212.743l5.109-3.48c0,0,5.57-9.824,7.483-9.824c1.913,0,3.034,8.864,2.705,9.509    c-0.33,0.645-5.418,5.195-6.5,5.129l-6.093,5.341L78.165,212.743z"/>
		<g>
			<path style="fill:#386641;" d="M76.846,184.933c-4.369,0.288-21.165,36.659-17.604,45.726     c3.56,9.067,25.076-11.537,25.076-11.537l-2.722-9.253l-6.728,3.856c1.993-3.444,6.475-8.768,6.475-8.768s0.937-7.562,0-13.1     C80.407,186.319,76.846,184.933,76.846,184.933z"/>
			<path style="opacity:0.1;enable-background:new    ;" d="M76.846,184.933c-4.369,0.288-21.165,36.659-17.604,45.726     c3.56,9.067,25.076-11.537,25.076-11.537l-2.722-9.253l-6.728,3.856c1.993-3.444,6.475-8.768,6.475-8.768s0.937-7.562,0-13.1     C80.407,186.319,76.846,184.933,76.846,184.933z" fill="#000000"/>
		</g>
	</g>
</g>
<g id="Character_2">
	<g id="_x3C_Group_x3E__51_">
		<path style="fill:#223b27;" d="M170.846,335.615l7.319,5.691l0.982-0.25l-7.312-6.682l-5.637-14.168    c-0.193-2.03-0.41-4.067-0.712-6.144c-0.118-0.839-0.311-1.795-0.493-2.643c-0.208-0.832-0.421-1.657-0.647-2.467    c-0.444-1.628-0.916-3.232-1.392-4.835c-1.888-6.287-3.886-12.501-5.934-18.721l-2.434-48.569l-6.107,0.389l3.772,48.77    l0.027,0.349l0.095,0.27l0,0c2.154,6.252,4.271,12.544,6.253,18.837c0.49,1.573,0.976,3.148,1.426,4.717    c0.231,0.786,0.443,1.565,0.648,2.341c0.171,0.772,0.32,1.443,0.446,2.245c0.505,3.16,0.831,6.475,1.167,9.749    c1.167,12.195,2.031,24.472,2.828,36.732l-2.294,10.336l1.624,12.066l-1.624,9.087l0.875,0.25l2.374-9.535l-1.385-10.732    l1.704-4.742l5.822,19.567l1.985,29.213l2.994-0.183l-1.603-29.437l-0.01-0.177l-0.054-0.193l-6.512-23.012    c-0.591-11.643-1.243-23.266-2.128-34.911L170.846,335.615z M156.913,285.064L156.913,285.064    C156.913,285.064,156.913,285.064,156.913,285.064L156.913,285.064z"/>
		<path style="fill:#e8b699;" d="M164.033,223.11l-8.44,7.424l-5.538-1.15c0,0-7.912,6.307-7.121,7.241    c0.791,0.935,3.428,5.84,5.275,5.893c1.846,0.053,9.543-4.633,9.543-4.633l9.973-6.816L164.033,223.11z"/>
		<g>
			<path style="fill:#386641;" d="M204.097,150.865c0,0-6.342,4.547-11.449,12.3c-5.107,7.753-11.473,35.27-15.033,41.684     c-3.561,6.413-18.849,21.148-18.849,21.148l4.607,10.512c0,0,21.396-12.139,30.281-24.232     c8.884-12.092,18.019-50.63,18.019-50.63L204.097,150.865z"/>
			<path style="opacity:0.6;fill:#FFFFFF;enable-background:new    ;" d="M204.097,150.865c0,0-6.342,4.547-11.449,12.3     c-5.107,7.753-11.473,35.27-15.033,41.684c-3.561,6.413-18.849,21.148-18.849,21.148l4.607,10.512     c0,0,21.396-12.139,30.281-24.232c8.884-12.092,18.019-50.63,18.019-50.63L204.097,150.865z"/>
		</g>
		<path style="fill:#e8b699;" d="M252.723,111.57l-11.162-2.19c0,0-1.974-1.469-5.981-2.459c-4.008-0.989-6.975-1.879-8.161-0.593    c-1.187,1.286-3.154,5.934-2.071,6.626c1.082,0.692,9.687,3.462,10.972,3.561c1.286,0.099,2.902-0.396,2.902-0.396l12.131,3.461    L252.723,111.57z"/>
		<polygon style="fill:#e8b699;" points="243.439,408.954 251.912,409.842 252.34,404.932 253.5,391.569 245.027,390.671     243.742,405.433   "/>
		<polygon style="fill:#e8b699;" points="201.147,407.878 209.359,407.878 209.432,406.018 209.443,405.788 209.861,393.878     209.871,393.638 210.038,389.072 201.816,389.072   "/>
		<polygon style="opacity:0.2;enable-background:new    ;" points="245.027,390.671 243.742,405.433 252.34,404.932 253.5,391.569       " fill="#000000"/>
		<polygon style="opacity:0.2;enable-background:new    ;" points="201.199,406.833 201.21,406.833 209.432,405.788     209.443,405.788 209.871,394.296 209.861,394.296 201.628,394.954 201.21,406.473   " fill="#000000"/>
		<path style="fill:#223b27;" d="M210.498,407.384h-9.977c-0.336,0.002-0.627,0.236-0.7,0.564l-1.619,7.313    c-0.139,0.655,0.28,1.298,0.935,1.436c0.088,0.019,0.177,0.027,0.267,0.026c3.228-0.052,5.579-0.251,9.633-0.251    c2.497,0,10.03,0.261,13.477,0.261c3.448,0,3.897-3.406,2.486-3.719c-6.331-1.379-11.095-3.291-13.122-5.109    C211.501,407.561,211.007,407.374,210.498,407.384z"/>
		<path style="fill:#223b27;" d="M252.81,407.122h-9.977c-0.336,0.002-0.627,0.236-0.7,0.564L240.513,415    c-0.139,0.655,0.28,1.298,0.935,1.437c0.088,0.018,0.177,0.027,0.267,0.026c3.228-0.052,5.579-0.251,9.633-0.251    c2.497,0,10.03,0.261,13.477,0.261c3.448,0,3.897-3.406,2.487-3.719c-6.331-1.379-11.095-3.291-13.122-5.109    C253.814,407.3,253.32,407.113,252.81,407.122z"/>
		<path style="fill:#223b27;" d="M254.278,403.699h-12.046c0,0,0.982-103.697-12.046-138.717    c-0.919,11.576-1.954,23.588-2.967,33.597c-0.637,6.195-1.264,11.517-1.86,15.571c-3.792,26.119-13.362,90.594-13.362,90.594    h-11.9c0,0,1.41-61.781,2.821-87.451c1.557-27.863,2.225-89.112,2.288-94.336h43.587    C252.941,244.897,263.576,332.656,254.278,403.699z"/>
		<g>
			<path style="fill:#e8b699;" d="M232.966,130.885c-0.102,0.399-0.216,0.789-0.354,1.162c-0.805,2.255-2.26,4.112-4.064,5.414     c-0.472,0.345-0.971,0.652-1.487,0.919c-2.729,1.405-5.969,1.667-8.898,0.394c-1.198-0.507-2.358-1.286-3.396-2.35     c-4.115-4.156-4.006-8.954-4.469-17.077c-0.126-1.748,0.149-3.501,0.83-5.11c2.356-5.676,8.874-8.358,14.539-6     C233.635,111.486,234.727,123.572,232.966,130.885z"/>
			<path style="opacity:0.2;enable-background:new    ;" d="M228.548,137.46c-0.472,0.345-0.971,0.652-1.487,0.919     c-2.729,1.405-5.969,1.667-8.898,0.394c0.572-1.57,1.451-2.757,1.451-2.757S224.468,135.268,228.548,137.46z" fill="#000000"/>
			<path style="fill:#e8b699;" d="M212.201,147.996c4.001,3.636,13.804,2.291,13.804,2.291s6.119-1.675,4.834-3.587     c-3.604-0.596-5.349-2.278-6.07-4.43c-0.418-1.254-0.481-2.664-0.366-4.116c0.052-0.763,0.167-1.536,0.303-2.299l-12.119-8.974     C214.175,132.805,216.119,143.702,212.201,147.996z"/>
			<path style="fill:#223b27;" d="M223.355,104.733c0,0,5.279-2.216,8.945,1.24c3.09,2.913,1.082,7.404,2.952,11.141     c1.87,3.738-4.884,6.169-4.884,6.169s-1.783,3.84-4.885,3.598c0,0-2.53,3.064-2.127,6.232c0.403,3.169-4.144,5.673-10.343,5.592     c-6.2-0.081-3.72-3.951-3.72-3.951s-2.263-2.339-4.3-6.95c-2.037-4.611-1.762-9.708-1.762-9.708s-0.551-4.74,3.582-9.396     C210.945,104.045,220.809,101.703,223.355,104.733z"/>
			<path style="fill:#e8b699;" d="M223.931,124.07c0.485,1.767,1.458,3.065,2.704,3.609c1.655,0.702,2.74-1.629,2.502-4.071     c-0.227-2.164-1.347-5.211-3.118-4.809C224.248,119.201,223.355,121.885,223.931,124.07z"/>
			<path style="fill:#386641;" d="M233.69,105.834c2.438,3.01-5.085,23.934-16.36,25.912c-11.275,1.978-14.989,2.769-13.33-5.736     c0,0-3.445-7.319-0.794-15.033c0,0-1.294-0.198-1.003-2.769c0.291-2.571,9.796-9.494,15.922-10.088     c6.127-0.593,12.891,6.898,12.891,6.898S232.248,104.054,233.69,105.834z"/>
		</g>
		<path style="opacity:0.2;enable-background:new    ;" d="M230.186,264.935c-0.919,11.576-1.954,23.611-2.967,33.62    c-1.483-14.449-3.301-24.75-3.301-24.75s-1.703-1.4-6.383-8.87c-4.68-7.48,0-21.417,0-21.417    C217.388,256.473,230.186,264.935,230.186,264.935z" fill="#000000"/>
		<polygon style="fill:#386641;" points="255.629,400.303 255.041,403.699 240.806,403.699 240.806,400.565   "/>
		<polygon style="fill:#386641;" points="213.363,401.609 211.997,404.744 200.061,404.744 199.277,401.609   "/>
		<g>
			<polygon style="fill:#386641;" points="204.815,230.104 204.815,236.51 250.484,233.307 250.484,227.627    "/>
			<polygon style="opacity:0.2;fill:#FFFFFF;enable-background:new    ;" points="204.815,230.104 204.815,236.51 250.484,233.307      250.484,227.627    "/>
		</g>
		<g>
			<path style="fill:#386641;" d="M252.711,224.813c0.177,2.424-1.682,4.513-4.106,4.628l-42.856,2.09     c-1.379,0.073-2.539-1.013-2.549-2.403c-0.272-26.087-9.204-73.54-3.103-78.262c6.31-4.879,37.266-7.439,37.266-7.439     c1.379,3.207,2.644,6.728,3.793,10.458c0.136,0.449,0.282,0.898,0.407,1.358c1.776,5.872,3.27,12.203,4.555,18.618     c0.094,0.428,0.178,0.867,0.261,1.295C250.308,195.351,252.084,216.005,252.711,224.813z"/>
			<path style="opacity:0.6;fill:#FFFFFF;enable-background:new    ;" d="M252.71,224.81c0.18,2.43-1.68,4.52-4.1,4.63l-42.86,2.09     c-1.38,0.07-2.54-1.01-2.55-2.4c-0.27-26.09-9.2-73.54-3.1-78.26c6.31-4.88,37.26-7.44,37.26-7.44c1.26,2.92,2.42,6.1,3.49,9.46     c0.1,0.33,0.21,0.66,0.31,0.99c0.13,0.45,0.28,0.9,0.4,1.36c1.66,5.46,3.06,11.33,4.29,17.29c0.09,0.44,0.18,0.89,0.27,1.33     c0.09,0.43,0.18,0.87,0.26,1.3C250.31,195.35,252.08,216.01,252.71,224.81z"/>
		</g>
		<g>
			<path style="fill:#223b27;" d="M187.725,169.637c0,0-4.512-14.877,2.11-22.311c6.622-7.434,29.888-6.103,32.411-5.579     c7.792,1.618,10.549,14.383,13.333,28.037c2.784,13.654,5.949,60.226,1.201,63.182c-4.747,2.956-36.923,6.505-42.462,3.544     C188.78,233.548,187.725,169.637,187.725,169.637z"/>
			<path style="fill:#386641;" d="M183.508,169.173c0,0-4.512-15.225,2.11-22.833c6.622-7.608,29.888-6.246,32.411-5.71     c7.792,1.656,8.37,11.573,10.519,35.315c3.815,42.163,7.216,55.701,2.469,58.726c-4.747,3.025-35.377,5.969-40.915,2.938     C184.563,234.58,183.508,169.173,183.508,169.173z"/>
		</g>
		<path style="fill:#223b27;" d="M226.463,148.362c0,0,1.659-6.507,10.9-4.935c0,0-5.701-0.07-5.45,18.751    c0.251,18.821,7.112,43.79,7.112,43.79s8.305-0.378,10.414-12.278l1.044,3.615c0,0-1.308,17.365-13.769,20.804    C236.714,218.109,231.048,158.054,226.463,148.362z"/>
		<path style="opacity:0.2;enable-background:new    ;" d="M245.85,172.53c-10.84-9.57-7.13-20.39-7.13-20.39l2.13,0.75    c0.1,0.33,0.21,0.66,0.31,0.99c0.13,0.45,0.28,0.9,0.4,1.36C243.22,160.7,244.62,166.57,245.85,172.53z" fill="#000000"/>
		<path style="fill:#386641;" d="M286.363,128.977c-2.09-13.933-33.003-18.664-40.364-19.596c-2.056,6.644-1.174,11.66-1.174,11.66    s22.352,6.156,22.549,7.739c0.198,1.582-26.308,12.066-30.01,14.647c0,0-1.785,3.946,1.11,11.66    c2.411,6.425,5.287,8.191,5.287,8.191S288.736,144.801,286.363,128.977z"/>
		<path style="opacity:0.6;fill:#FFFFFF;enable-background:new    ;" d="M286.363,128.977c-2.09-13.933-33.003-18.664-40.364-19.596    c-2.056,6.644-1.174,11.66-1.174,11.66s22.352,6.156,22.549,7.739c0.198,1.582-26.308,12.066-30.01,14.647    c0,0-1.785,3.946,1.11,11.66c2.411,6.425,5.287,8.191,5.287,8.191S288.736,144.801,286.363,128.977z"/>
	</g>
</g>
</svg>