<svg xmlns="http://www.w3.org/2000/svg" xmlns:xlink="http://www.w3.org/1999/xlink" version="1.1" x="0px" y="0px" viewBox="0 0 500 500" style="enable-background:new 0 0 500 500;" xml:space="preserve">
<g id="Background_complete">
	<g>
		<g>
			<g>
				<g>
					<path style="fill:#e0e0e0;" d="M444.587,328.385H263.841c-3.232,0-5.862-2.63-5.862-5.862V59.25       c0-3.232,2.63-5.862,5.862-5.862h180.746c3.232,0,5.862,2.629,5.862,5.862v263.273       C450.449,325.756,447.819,328.385,444.587,328.385z M263.841,53.638c-3.095,0-5.612,2.518-5.612,5.612v263.273       c0,3.095,2.518,5.612,5.612,5.612h180.746c3.095,0,5.612-2.518,5.612-5.612V59.25c0-3.094-2.518-5.612-5.612-5.612H263.841z"/>
				</g>
			</g>
			<g>
				<g>
					<path style="fill:#e0e0e0;" d="M236.159,328.385H55.413c-3.232,0-5.862-2.63-5.862-5.862V59.25       c0-3.232,2.629-5.862,5.862-5.862h180.747c3.232,0,5.862,2.629,5.862,5.862v263.273       C242.021,325.756,239.392,328.385,236.159,328.385z M55.413,53.638c-3.094,0-5.612,2.518-5.612,5.612v263.273       c0,3.095,2.518,5.612,5.612,5.612h180.747c3.095,0,5.612-2.518,5.612-5.612V59.25c0-3.094-2.518-5.612-5.612-5.612H55.413z"/>
				</g>
			</g>
		</g>
		<g>
			<g>
				<rect x="0" y="391.267" style="fill:#e0e0e0;" width="500" height="0.25"/>
			</g>
		</g>
		<g>
			<rect x="57.445" y="403.719" style="fill:#e0e0e0;" width="16.06" height="0.25"/>
			<rect x="176.125" y="401.009" style="fill:#e0e0e0;" width="53.53" height="0.25"/>
			<rect x="74.505" y="413.009" style="fill:#e0e0e0;" width="36.25" height="0.25"/>
			<rect x="384.125" y="400.879" style="fill:#e0e0e0;" width="43.19" height="0.25"/>
			<rect x="436.225" y="400.879" style="fill:#e0e0e0;" width="6.33" height="0.25"/>
			<rect x="321.985" y="407.109" style="fill:#e0e0e0;" width="53.89" height="0.25"/>
		</g>
	</g>
	<g>
		<path style="fill:#F5F5F5;" d="M357.134,238.437H52.681c0,0,9.391-14.464,17.219-26.057c4.958-7.332,9.277-13.52,10.211-14.187    c2.403-1.716,8.581-2.746,11.317-9.105c2.736-6.359,2.736-9.067,6.674-16.266c3.938-7.199,19.069-26.744,20.642-26.696    c1.573,0.048,15.207-21.3,20.432-23.016c5.225-1.716,5.721-6.855,11.336-14.569c5.616-7.713,24.236-32.417,32.121-32.979    c7.885-0.563,27.183,36.555,34.639,39.282c7.456,2.727,15.741-9.258,18.382-6.34c2.641,2.917,7.99,13.882,13.434,22.797    c5.444,8.915,10.936,13.024,11.441,16.399c0.505,3.375,11.584,9.315,17.114,9.315c1.907,0,5.921,4.157,10.488,9.668l0,0    c8.896,10.764,19.679,26.649,19.679,26.649c1.478,2.145,4.062-1.03,8.514,0.677C320.779,195.713,357.134,238.437,357.134,238.437z    "/>
		<path style="fill:#F5F5F5;" d="M436.909,238.427H118.736c0,0,10.059-22.415,15.198-20.251    c5.139,2.164,21.376-11.308,23.712-16.723c2.336-5.416,10.488,1.773,21.433-0.515c10.945-2.288,26.973-37.489,31.912-35.668    c4.939,1.821,19.288,34.743,22.692,35.964c3.404,1.22,6.674-9.439,11.394-10.364c4.72-0.925,8.514,7.322,9.43,9.611    c0.915,2.288,5.52,9.601,5.52,9.601s7.284-2.288,9.592-4.119c2.307-1.831,13.691-24.685,16.094-27.936    c2.403-3.251,7.198-5.892,14.445-4.519c7.246,1.373,10.126-11.441,18.115-19.231c7.99-7.79,12.099-5.005,14.883-5.377    s17.791-25.676,21.452-23.541c3.661,2.136,20.108,33.056,23.064,36.717c2.956,3.661,9.84-2.279,10.659,0    c0.82,2.279,13.558,20.118,13.558,20.118s5.721-0.467,9.191,2.288c0.582,0.458,1.697,2.288,3.156,5.034l0.286,0.553    C421.863,203.97,436.909,238.427,436.909,238.427z"/>
	</g>
	<g>
		<path style="fill:#e0e0e0;" d="M264.297,301.016l-20.876,3.241c0,0-0.127,63.541-0.872,71.372    c-0.746,7.831-10.709,15.639-10.709,15.639h39.224C260.874,372.364,264.297,301.016,264.297,301.016z"/>
		<g>
			<path style="fill:#E6E6E6;" d="M325.509,287.171c0.827-4.848,1.654-9.695,2.481-14.543c0.251-1.47,0.491-3.087-0.798-4.249     c-0.41-0.37-0.912-0.597-1.426-0.683c-3.181-0.536-5.511,3.306-8.581,3.274c-1.826-2.757,0.198-6.677,2.351-9.094     c2.224-2.497,4.918-5.61,3.876-9.102c-0.521-1.744-1.871-2.953-3.41-3.411c-2.668-0.794-5.238,0.327-7.695,1.43     c-1.588-4.422,3.311-7.899,6.19-11.728c1.762-2.343,0.036-5.96-2.607-5.462c-3.296,0.621-6.591,1.242-9.886,1.863     c-0.963,0.181-1.962,0.135-2.878-0.256c-3.674-1.568-2.919-6.542-1.231-9.776c0.658-1.26,1.434-2.51,2.074-3.802     c1.155-2.329-0.202-5.315-2.514-5.421c-2.146-0.098-4.301,0.078-6.413,0.53c-2.099-4.141,1.836-8.86,5.437-11.225     c1.69-1.109,3.554-2.472,4.961-4.089c2.131-2.45,0.932-6.681-2.031-7.21c-2.377-0.424-4.753-0.849-7.13-1.273     c-0.64-0.114-1.272-0.335-1.821-0.735c-2.677-1.951-1.285-5.804,0.543-8.065c0.544-0.673,1.141-1.344,1.695-2.044     c1.425-1.798,0.386-4.715-1.715-4.841l-2.18-0.131c1.353-2.898,2.436-5.966,3.227-9.132c0.965-3.858-2.005-7.502-5.379-6.615     l-4.531,1.19c-0.585,0.154-1.207,0.306-1.774,0.08c-0.709-0.282-1.17-1.107-1.344-1.953c-1.208-5.905,8.424-9.041,7.353-14.981     c-0.78-4.327-6.053-4.38-9.758-3.366c0.281-5.553,1.138-11.066,2.544-16.383c0.401-1.514-0.578-3.04-1.942-3.009     c-1.858,0.041-3.716,0.082-5.573,0.124c-0.599,0.013-1.26,0.001-1.705-0.465c-0.366-0.384-0.492-0.988-0.528-1.56     c-0.2-3.225,1.822-6.009,2.634-9.102c0.812-3.093-0.941-7.644-3.597-6.675c-3.553-1.678-6.008,0.885-7.037-2.841     c-0.186-0.672-0.253-1.389-0.193-2.091c0.355-4.182,3.838-6.78,4.692-10.703c0.511-2.346,0-4.812-0.517-7.156     c-0.174-0.788-0.383-1.638-0.945-2.125c-0.565-0.49-1.329-0.478-2.011-0.683c-3.379-1.017-3.636-6.506-2.699-10.411     c0.714-2.976,1.591-6.452,0.879-9.21c-0.386-1.494-1.747-2.341-3.048-1.954c-1.409,0.42-2.755,1.124-3.956,2.078     c-1.748-3.73-0.694-8.551-2.653-12.26c-0.477-0.904-1.143-1.679-1.958-2.158c-2.993-1.762-5.545,1.309-5.951,4.443     c-0.319,2.466,0.357,4.944,1.024,7.314c-1.849-1.073-4.18,0.529-5.031,2.717c-0.851,2.188-0.635,4.709-0.403,7.095     c0.434,4.453,0.867,8.906,1.301,13.359c-1.432-2.512-5.133-1.557-6.457,1.035c-1.324,2.592-0.946,5.869-0.347,8.8     c0.658,3.221,1.251,8.798,0.214,11.973c-4.198,2.218-4.628-3.386-8-2.728c-1.632,0.318-2.849,1.9-3.148,3.791     c-0.822,5.192,0.82,10.194,0.663,15.078c-3.248-1.141-6.888,2.958-6.006,6.763c0.537,2.32,2.316,4.059,2.427,6.601     c0.046,1.058-0.344,2.121-1.12,2.678c-1.793,1.285-2.902-1.597-4.754-0.081c-0.787,0.644-1.193,1.766-1.127,2.881     c0.181,3.066,2.601,4.999,2.911,8.018c0.113,1.101-0.211,2.238-0.926,2.973c-1.123,1.153-2.107,0.355-3.153,0.227     c-2.445-0.299-4.121,3.204-3.683,6.014c0.438,2.81,2.158,5.07,3.472,7.484c1.314,2.413,2.247,5.576,1.025,8.053     c-2.116-1.726-3.057-4.907-5.405-6.413c-0.897-0.575-1.964-0.797-2.924-0.383c-2.007,0.865-2.258,3.65-2.112,5.953     c0.367,5.803,1.923,11.501,4.501,16.489c-2.926,2.694-6.235-6.231-9.699-3.852c-1.005,0.69-1.504,2.051-1.416,3.403     c0.534,8.282,3.245,16.342,7.643,22.885c-1.109-1.343-2.865-1.965-4.415-1.454c-1.836,0.606-3.213,2.735-3.201,4.953     c0.017,3.16,2.404,5.491,3.893,8.136c1.489,2.644,1.421,7.314-1.263,7.827c-2.771,0.53-4.114-3.94-6.582-5.496     c-2.923-1.842-6.714,1.306-7.383,5.09c-0.668,3.784,0.82,7.611,2.513,10.936c1.691,3.321,3.674,6.615,4.145,10.433     c-0.786,0.507-0.26,0.168-1.047,0.675c-4.139-3.79-8.564,0.749-7.184,5.187c0.577,1.857,1.195,3.762,1.194,5.625l-0.128,2.869     c-0.086,4.785-3.935,9.038-8.054,8.9c-3.285-0.111-6.685,0.92-8.135,4.346c-1.688,3.986-0.246,9.469,3.356,11.347     c0.998,0.521,1.967,1.134,2.755,2.015c3.265,3.647,0.704,6.086-0.126,8.97c-1.046,3.634,0.928,7.771,3.823,9.607     c2.896,1.836,6.425,1.778,9.65,0.97c2.082-0.522,4.194-1.338,6.294-0.928c3.908,1.877,0.86,6.89,4.6,11.537     c0.875,1.087,2.661,2.21,3.897,2.605c4.433,1.416,7.443-0.352,9.883-3.338c1.099-1.345,2.515-2.655,3.992-3.279     c1.665-0.703,3.4,0.819,3.358,2.876c-0.073,3.561,0.208,7.121,2.132,10.138c1.193,1.871,3.047,3.111,5.051,3.062     c3.951-0.098,5.92-4.696,7.543-8.58c1.997-4.778,5.773-10.248,11.111-5.13c1.286,1.233,2.064,3.005,2.435,4.893     c0.804,4.096,5.183,9.985,8.729,7.398c2.929-2.137,2.109-8.229,6.278-9.21c1.232-0.29,2.513,0.042,3.601,0.772     c4.408,2.955,5.048,9.942,9.927,12.215c1.713,0.798,3.725,0.368,4.939-1.247c1.442-1.919,0.575-3.802,0.407-5.716     c-0.381-4.333,2.917-8.083,6.475-9.463c3.557-1.38,7.41-1.102,11.136-1.597c3.726-0.495,7.718-2.085,9.593-5.857     c0.694-1.396,1.046-3,1.795-4.355c2.181-3.945,6.809-4.586,10.814-5.165c4.005-0.58,8.7-2.205,9.845-6.701     C335.462,289.045,329.229,283.976,325.509,287.171z"/>
		</g>
	</g>
	<g>
		<circle style="fill:#F5F5F5;" cx="346.913" cy="40.618" r="22.831"/>
		<path style="fill:#E6E6E6;" d="M352.206,66.122c0.013-3.624-2.915-6.573-6.54-6.586c-0.655-0.002-1.307,0.094-1.934,0.285    c1.121-7.612-4.14-14.692-11.752-15.814c-0.675-0.099-1.356-0.149-2.038-0.149c-0.862-0.001-1.722,0.079-2.568,0.239    c-3.498-5.749-10.994-7.573-16.743-4.075c-3.58,2.179-5.789,6.044-5.849,10.235h-0.172c-6.202,0-11.229,5.027-11.229,11.229    s5.027,11.229,11.229,11.229h41.235C349.397,72.594,352.212,69.676,352.206,66.122z"/>
		<path style="fill:#EBEBEB;" d="M24.166,100.976c0-3.366,2.729-6.094,6.094-6.094l0,0c0.591-0.003,1.178,0.085,1.743,0.26    c-0.087-0.62-0.131-1.246-0.13-1.873c0-7.126,5.777-12.903,12.903-12.903c0.795,0,1.589,0.073,2.371,0.216    c3.239-5.321,10.178-7.009,15.499-3.771c3.314,2.017,5.359,5.596,5.414,9.475h0.195c5.742,0.185,10.247,4.99,10.061,10.733    c-0.177,5.482-4.58,9.884-10.061,10.061H30.087C26.782,106.993,24.153,104.281,24.166,100.976z"/>
		<path style="fill:#e0e0e0;" d="M440.169,76.427c0-2.994,2.427-5.421,5.421-5.421l0,0c0.525-0.002,1.048,0.076,1.55,0.231    c-0.077-0.552-0.116-1.109-0.116-1.666c0-6.339,5.139-11.477,11.477-11.477c0.707,0,1.413,0.065,2.109,0.193    c2.881-4.733,9.053-6.235,13.786-3.354c2.948,1.794,4.767,4.978,4.816,8.428h0.173c5.108,0.165,9.115,4.439,8.95,9.547    c-0.157,4.876-4.074,8.792-8.95,8.95h-33.95C442.496,81.779,440.158,79.368,440.169,76.427z"/>
		<path style="fill:#F0F0F0;" d="M138.052,55.012c0-2.062,1.672-3.734,3.734-3.734l0,0c0.367-0.003,0.732,0.051,1.083,0.162    c-0.053-0.38-0.078-0.764-0.076-1.147c-0.024-4.346,3.48-7.889,7.826-7.913c0.512-0.003,1.024,0.044,1.527,0.141    c1.973-3.264,6.218-4.311,9.482-2.339c2.046,1.237,3.308,3.444,3.334,5.835h0.119c3.518,0.145,6.253,3.115,6.108,6.633    c-0.137,3.315-2.793,5.971-6.108,6.108h-23.392C139.66,58.704,138.045,57.041,138.052,55.012z"/>
	</g>
</g>
<g id="Background_simple" style="display:none;">
	<g style="display:inline;">
		<path style="fill:#386641;" d="M343.733,113.255c0,50.997-42.081,142.143-93.077,142.143c-50.997,0-30.528-58.961-98.338-112.009    c-40.166-31.422,0.525-111.099,50.673-120.367C295.439,5.935,343.733,62.259,343.733,113.255z"/>
		<path style="opacity:0.9;fill:#ffffff;" d="M343.733,113.255c0,50.997-42.081,142.143-93.077,142.143    c-50.997,0-30.528-58.961-98.338-112.009c-40.166-31.422,0.525-111.099,50.673-120.367    C295.439,5.935,343.733,62.259,343.733,113.255z"/>
	</g>
</g>
<g id="Shadow">
	<g>
		<g>
			<path style="fill:#F5F5F5;stroke:#F5F5F5;stroke-miterlimit:10;" d="M458.875,461.254c0,3.387-93.517,6.132-208.875,6.132     s-208.875-2.746-208.875-6.132c0-3.387,93.516-6.132,208.875-6.132S458.875,457.867,458.875,461.254z"/>
		</g>
	</g>
</g>
<g id="Plant">
	<g>
		<path style="fill:#386641;" d="M217.316,372.483c1.704-2.716,8.652,4.254,8.652,4.254s-9.849-16.566-4.686-17.98    c5.162-1.414,9.432,13.864,9.432,13.864s-6.31-30.941,1.054-30.287c7.364,0.654,4.653,30.449,4.653,30.449s3.648-21.633,7.98-18.7    c4.332,2.933-2.438,22.002-2.438,22.002s6.679-7.294,7.126-3.456c0.447,3.838-14.446,18.074-14.446,18.074    C227.34,385.556,215.612,375.199,217.316,372.483z"/>
		<g>
			
				<path style="opacity:0.3;fill:none;stroke:#000000;stroke-width:0.5;stroke-linecap:round;stroke-linejoin:round;stroke-miterlimit:10;" d="     M234.654,390.894c0,0-0.674-13.754-1.423-23.041"/>
			
				<line style="opacity:0.3;fill:none;stroke:#000000;stroke-width:0.5;stroke-linecap:round;stroke-linejoin:round;stroke-miterlimit:10;" x1="234.203" y1="381.806" x2="237.799" y2="373.804"/>
		</g>
		<path style="fill:none;stroke:#386641;stroke-width:0.5;stroke-linecap:round;stroke-linejoin:round;stroke-miterlimit:10;" d="    M220.147,380.697c2.075,2.781,4.624,5.206,7.506,7.139"/>
	</g>
</g>
<g id="Trees">
	<g>
		<path style="fill:#263829;" d="M403.558,304.256l-21.835,3.119c0,0-0.132,61.165-0.912,68.703    c-0.78,7.538-11.201,15.054-11.201,15.054h41.026C399.978,372.937,403.558,304.256,403.558,304.256z"/>
		<g>
			<path style="fill:#386641;" d="M467.581,289.776c0.865-5.07,1.73-10.14,2.594-15.211c0.262-1.537,0.513-3.229-0.835-4.444     c-0.429-0.387-0.954-0.624-1.492-0.715c-3.327-0.56-5.764,3.457-8.974,3.425c-1.909-2.884,0.207-6.983,2.459-9.512     c2.326-2.612,5.144-5.867,4.054-9.52c-0.545-1.824-1.957-3.089-3.567-3.568c-2.79-0.83-5.478,0.342-8.049,1.495     c-1.661-4.625,3.463-8.262,6.474-12.266c1.842-2.45,0.038-6.234-2.727-5.713c-3.447,0.649-6.894,1.299-10.34,1.948     c-1.007,0.19-2.052,0.141-3.01-0.268c-3.843-1.64-3.053-6.843-1.288-10.225c0.688-1.318,1.5-2.625,2.17-3.976     c1.208-2.436-0.211-5.559-2.63-5.67c-2.244-0.103-4.498,0.082-6.707,0.555c-2.195-4.332,1.92-9.267,5.687-11.74     c1.767-1.16,3.717-2.585,5.189-4.277c2.229-2.563,0.975-6.987-2.125-7.541c-2.486-0.444-4.972-0.888-7.458-1.332     c-0.67-0.12-1.33-0.35-1.904-0.768c-2.799-2.041-1.344-6.071,0.568-8.435c0.569-0.704,1.193-1.406,1.773-2.137     c1.49-1.881,0.404-4.932-1.794-5.063l-2.28-0.137c1.416-3.031,2.547-6.24,3.375-9.551c1.009-4.035-2.097-7.846-5.626-6.919     l-4.739,1.245c-0.612,0.161-1.262,0.32-1.856,0.084c-0.741-0.295-1.224-1.158-1.405-2.043c-1.264-6.176,8.811-9.456,7.691-15.669     c-0.816-4.526-6.331-4.581-10.206-3.521c0.294-5.808,1.19-11.574,2.661-17.136c0.419-1.584-0.605-3.179-2.031-3.148     c-1.943,0.043-3.886,0.086-5.829,0.129c-0.626,0.014-1.318,0.001-1.784-0.486c-0.383-0.401-0.515-1.034-0.552-1.631     c-0.209-3.373,1.905-6.285,2.755-9.52c0.849-3.235-0.984-7.995-3.762-6.981c-3.717-1.755-6.283,0.926-7.36-2.971     c-0.194-0.703-0.265-1.452-0.202-2.187c0.371-4.374,4.014-7.091,4.907-11.195c0.534-2.454,0-5.032-0.541-7.485     c-0.182-0.824-0.401-1.713-0.988-2.222c-0.59-0.512-1.39-0.499-2.103-0.714c-3.534-1.064-3.803-6.805-2.823-10.89     c0.747-3.112,1.664-6.748,0.92-9.633c-0.403-1.563-1.827-2.449-3.188-2.043c-1.474,0.439-2.882,1.176-4.137,2.174     c-1.829-3.901-0.726-8.944-2.774-12.823c-0.499-0.946-1.196-1.756-2.048-2.257c-3.13-1.842-5.799,1.369-6.224,4.647     c-0.334,2.58,0.373,5.171,1.071,7.65c-1.934-1.122-4.372,0.553-5.262,2.842c-0.89,2.288-0.664,4.926-0.421,7.421     c0.453,4.658,0.907,9.315,1.36,13.973c-1.498-2.628-5.369-1.629-6.753,1.082c-1.384,2.711-0.989,6.138-0.363,9.204     c0.689,3.369,1.308,9.202,0.224,12.523c-4.391,2.32-4.841-3.541-8.367-2.853c-1.707,0.333-2.98,1.987-3.293,3.965     c-0.859,5.43,0.858,10.662,0.693,15.771c-3.397-1.194-7.204,3.094-6.282,7.074c0.562,2.427,2.423,4.246,2.538,6.904     c0.048,1.107-0.36,2.218-1.172,2.8c-1.875,1.344-3.036-1.67-4.973-0.084c-0.823,0.673-1.247,1.847-1.178,3.014     c0.189,3.207,2.721,5.228,3.045,8.386c0.118,1.152-0.22,2.341-0.968,3.109c-1.174,1.206-2.204,0.372-3.298,0.238     c-2.557-0.313-4.31,3.352-3.852,6.291c0.458,2.939,2.257,5.303,3.632,7.827c1.375,2.524,2.351,5.832,1.072,8.423     c-2.213-1.805-3.197-5.133-5.653-6.708c-0.938-0.602-2.054-0.834-3.059-0.401c-2.1,0.905-2.362,3.818-2.209,6.226     c0.384,6.07,2.011,12.029,4.708,17.247c-3.06,2.818-6.522-6.517-10.144-4.029c-1.051,0.722-1.573,2.146-1.481,3.56     c0.559,8.662,3.394,17.092,7.994,23.935c-1.16-1.405-2.996-2.055-4.618-1.521c-1.921,0.633-3.361,2.861-3.348,5.18     c0.018,3.305,2.515,5.744,4.072,8.509c1.557,2.766,1.486,7.65-1.321,8.187c-2.898,0.554-4.303-4.121-6.885-5.748     c-3.057-1.927-7.023,1.366-7.722,5.324c-0.699,3.958,0.858,7.961,2.628,11.438c1.768,3.473,3.842,6.918,4.336,10.912     c-0.823,0.531-0.272,0.176-1.095,0.706c-4.329-3.964-8.957,0.784-7.513,5.425c0.604,1.942,1.25,3.935,1.249,5.883l-0.134,3.001     c-0.09,5.004-4.116,9.453-8.424,9.308c-3.436-0.116-6.992,0.962-8.509,4.545c-1.765,4.169-0.257,9.904,3.51,11.868     c1.044,0.544,2.057,1.186,2.882,2.107c3.415,3.814,0.737,6.366-0.132,9.382c-1.094,3.801,0.97,8.128,3.999,10.048     c3.029,1.92,6.72,1.859,10.093,1.014c2.178-0.546,4.386-1.4,6.583-0.97c4.088,1.963,0.899,7.206,4.811,12.067     c0.915,1.137,2.784,2.312,4.076,2.724c4.637,1.481,7.785-0.368,10.337-3.491c1.15-1.406,2.63-2.777,4.175-3.43     c1.741-0.735,3.556,0.857,3.512,3.008c-0.076,3.724,0.218,7.448,2.23,10.604c1.248,1.956,3.186,3.254,5.282,3.202     c4.133-0.102,6.191-4.912,7.889-8.974c2.088-4.998,6.038-10.719,11.622-5.366c1.345,1.29,2.159,3.142,2.547,5.118     c0.841,4.284,5.421,10.444,9.13,7.738c3.063-2.235,2.206-8.607,6.567-9.633c1.288-0.303,2.628,0.044,3.767,0.807     c4.611,3.091,5.279,10.399,10.383,12.775c1.792,0.835,3.896,0.385,5.166-1.305c1.508-2.007,0.602-3.977,0.425-5.979     c-0.399-4.532,3.051-8.454,6.772-9.897c3.72-1.443,7.75-1.153,11.647-1.671c3.897-0.518,8.072-2.18,10.033-6.126     c0.726-1.46,1.094-3.137,1.878-4.556c2.281-4.126,7.121-4.796,11.311-5.403c4.189-0.607,9.1-2.307,10.297-7.009     C477.991,291.736,471.472,286.435,467.581,289.776z"/>
		</g>
		<g style="opacity:0.6;">
			<path style="fill:#ffffff;" d="M467.581,289.776c0.865-5.07,1.73-10.14,2.594-15.211c0.262-1.537,0.513-3.229-0.835-4.444     c-0.429-0.387-0.954-0.624-1.492-0.715c-3.327-0.56-5.764,3.457-8.974,3.425c-1.909-2.884,0.207-6.983,2.459-9.512     c2.326-2.612,5.144-5.867,4.054-9.52c-0.545-1.824-1.957-3.089-3.567-3.568c-2.79-0.83-5.478,0.342-8.049,1.495     c-1.661-4.625,3.463-8.262,6.474-12.266c1.842-2.45,0.038-6.234-2.727-5.713c-3.447,0.649-6.894,1.299-10.34,1.948     c-1.007,0.19-2.052,0.141-3.01-0.268c-3.843-1.64-3.053-6.843-1.288-10.225c0.688-1.318,1.5-2.625,2.17-3.976     c1.208-2.436-0.211-5.559-2.63-5.67c-2.244-0.103-4.498,0.082-6.707,0.555c-2.195-4.332,1.92-9.267,5.687-11.74     c1.767-1.16,3.717-2.585,5.189-4.277c2.229-2.563,0.975-6.987-2.125-7.541c-2.486-0.444-4.972-0.888-7.458-1.332     c-0.67-0.12-1.33-0.35-1.904-0.768c-2.799-2.041-1.344-6.071,0.568-8.435c0.569-0.704,1.193-1.406,1.773-2.137     c1.49-1.881,0.404-4.932-1.794-5.063l-2.28-0.137c1.416-3.031,2.547-6.24,3.375-9.551c1.009-4.035-2.097-7.846-5.626-6.919     l-4.739,1.245c-0.612,0.161-1.262,0.32-1.856,0.084c-0.741-0.295-1.224-1.158-1.405-2.043c-1.264-6.176,8.811-9.456,7.691-15.669     c-0.816-4.526-6.331-4.581-10.206-3.521c0.294-5.808,1.19-11.574,2.661-17.136c0.419-1.584-0.605-3.179-2.031-3.148     c-1.943,0.043-3.886,0.086-5.829,0.129c-0.626,0.014-1.318,0.001-1.784-0.486c-0.383-0.401-0.515-1.034-0.552-1.631     c-0.209-3.373,1.905-6.285,2.755-9.52c0.849-3.235-0.984-7.995-3.762-6.981c-3.717-1.755-6.283,0.926-7.36-2.971     c-0.194-0.703-0.265-1.452-0.202-2.187c0.371-4.374,4.014-7.091,4.907-11.195c0.534-2.454,0-5.032-0.541-7.485     c-0.182-0.824-0.401-1.713-0.988-2.222c-0.59-0.512-1.39-0.499-2.103-0.714c-3.534-1.064-3.803-6.805-2.823-10.89     c0.747-3.112,1.664-6.748,0.92-9.633c-0.403-1.563-1.827-2.449-3.188-2.043c-1.474,0.439-2.882,1.176-4.137,2.174     c-1.829-3.901-0.726-8.944-2.774-12.823c-0.499-0.946-1.196-1.756-2.048-2.257c-3.13-1.842-5.799,1.369-6.224,4.647     c-0.334,2.58,0.373,5.171,1.071,7.65c-1.934-1.122-4.372,0.553-5.262,2.842c-0.89,2.288-0.664,4.926-0.421,7.421     c0.453,4.658,0.907,9.315,1.36,13.973c-1.498-2.628-5.369-1.629-6.753,1.082c-1.384,2.711-0.989,6.138-0.363,9.204     c0.689,3.369,1.308,9.202,0.224,12.523c-4.391,2.32-4.841-3.541-8.367-2.853c-1.707,0.333-2.98,1.987-3.293,3.965     c-0.859,5.43,0.858,10.662,0.693,15.771c-3.397-1.194-7.204,3.094-6.282,7.074c0.562,2.427,2.423,4.246,2.538,6.904     c0.048,1.107-0.36,2.218-1.172,2.8c-1.875,1.344-3.036-1.67-4.973-0.084c-0.823,0.673-1.247,1.847-1.178,3.014     c0.189,3.207,2.721,5.228,3.045,8.386c0.118,1.152-0.22,2.341-0.968,3.109c-1.174,1.206-2.204,0.372-3.298,0.238     c-2.557-0.313-4.31,3.352-3.852,6.291c0.458,2.939,2.257,5.303,3.632,7.827c1.375,2.524,2.351,5.832,1.072,8.423     c-2.213-1.805-3.197-5.133-5.653-6.708c-0.938-0.602-2.054-0.834-3.059-0.401c-2.1,0.905-2.362,3.818-2.209,6.226     c0.384,6.07,2.011,12.029,4.708,17.247c-3.06,2.818-6.522-6.517-10.144-4.029c-1.051,0.722-1.573,2.146-1.481,3.56     c0.559,8.662,3.394,17.092,7.994,23.935c-1.16-1.405-2.996-2.055-4.618-1.521c-1.921,0.633-3.361,2.861-3.348,5.18     c0.018,3.305,2.515,5.744,4.072,8.509c1.557,2.766,1.486,7.65-1.321,8.187c-2.898,0.554-4.303-4.121-6.885-5.748     c-3.057-1.927-7.023,1.366-7.722,5.324c-0.699,3.958,0.858,7.961,2.628,11.438c1.768,3.473,3.842,6.918,4.336,10.912     c-0.823,0.531-0.272,0.176-1.095,0.706c-4.329-3.964-8.957,0.784-7.513,5.425c0.604,1.942,1.25,3.935,1.249,5.883l-0.134,3.001     c-0.09,5.004-4.116,9.453-8.424,9.308c-3.436-0.116-6.992,0.962-8.509,4.545c-1.765,4.169-0.257,9.904,3.51,11.868     c1.044,0.544,2.057,1.186,2.882,2.107c3.415,3.814,0.737,6.366-0.132,9.382c-1.094,3.801,0.97,8.128,3.999,10.048     c3.029,1.92,6.72,1.859,10.093,1.014c2.178-0.546,4.386-1.4,6.583-0.97c4.088,1.963,0.899,7.206,4.811,12.067     c0.915,1.137,2.784,2.312,4.076,2.724c4.637,1.481,7.785-0.368,10.337-3.491c1.15-1.406,2.63-2.777,4.175-3.43     c1.741-0.735,3.556,0.857,3.512,3.008c-0.076,3.724,0.218,7.448,2.23,10.604c1.248,1.956,3.186,3.254,5.282,3.202     c4.133-0.102,6.191-4.912,7.889-8.974c2.088-4.998,6.038-10.719,11.622-5.366c1.345,1.29,2.159,3.142,2.547,5.118     c0.841,4.284,5.421,10.444,9.13,7.738c3.063-2.235,2.206-8.607,6.567-9.633c1.288-0.303,2.628,0.044,3.767,0.807     c4.611,3.091,5.279,10.399,10.383,12.775c1.792,0.835,3.896,0.385,5.166-1.305c1.508-2.007,0.602-3.977,0.425-5.979     c-0.399-4.532,3.051-8.454,6.772-9.897c3.72-1.443,7.75-1.153,11.647-1.671c3.897-0.518,8.072-2.18,10.033-6.126     c0.726-1.46,1.094-3.137,1.878-4.556c2.281-4.126,7.121-4.796,11.311-5.403c4.189-0.607,9.1-2.307,10.297-7.009     C477.991,291.736,471.472,286.435,467.581,289.776z"/>
		</g>
	</g>
	<g>
		<path style="fill:#263829;" d="M104.856,310.404l-20.429,2.918c0,0-0.124,57.226-0.854,64.279    c-0.73,7.053-10.48,14.085-10.48,14.085h38.384C101.506,374.662,104.856,310.404,104.856,310.404z"/>
		<g>
			<path style="fill:#386641;" d="M164.757,296.856c0.809-4.744,1.618-9.487,2.427-14.231c0.245-1.438,0.48-3.021-0.781-4.158     c-0.402-0.362-0.893-0.584-1.396-0.668c-3.113-0.524-5.393,3.235-8.397,3.204c-1.786-2.698,0.194-6.534,2.301-8.9     c2.176-2.444,4.813-5.49,3.793-8.907c-0.509-1.707-1.831-2.89-3.337-3.338c-2.61-0.777-5.125,0.32-7.53,1.399     c-1.554-4.327,3.24-7.73,6.057-11.477c1.724-2.292,0.035-5.833-2.552-5.345c-3.225,0.608-6.45,1.215-9.674,1.823     c-0.943,0.178-1.92,0.132-2.816-0.25c-3.595-1.535-2.857-6.402-1.205-9.567c0.643-1.233,1.403-2.456,2.03-3.72     c1.13-2.279-0.198-5.201-2.46-5.305c-2.1-0.096-4.209,0.077-6.275,0.519c-2.054-4.053,1.796-8.67,5.321-10.984     c1.653-1.085,3.478-2.419,4.854-4.002c2.085-2.398,0.913-6.538-1.988-7.055c-2.326-0.415-4.652-0.831-6.977-1.246     c-0.627-0.112-1.245-0.328-1.782-0.719c-2.619-1.909-1.257-5.68,0.532-7.892c0.533-0.659,1.117-1.316,1.659-2     c1.394-1.76,0.378-4.614-1.678-4.737l-2.133-0.128c1.324-2.836,2.383-5.838,3.158-8.936c0.944-3.776-1.962-7.341-5.264-6.474     l-4.434,1.165c-0.573,0.151-1.181,0.299-1.736,0.078c-0.693-0.276-1.145-1.083-1.315-1.912c-1.183-5.778,8.244-8.847,7.195-14.66     c-0.764-4.235-5.923-4.286-9.549-3.294c0.275-5.434,1.113-10.829,2.489-16.032c0.392-1.482-0.566-2.975-1.9-2.945     c-1.818,0.04-3.636,0.081-5.454,0.121c-0.586,0.013-1.233,0.001-1.669-0.455c-0.358-0.375-0.482-0.967-0.516-1.526     c-0.196-3.156,1.783-5.881,2.577-8.907c0.794-3.027-0.921-7.48-3.52-6.532c-3.477-1.642-5.879,0.866-6.886-2.78     c-0.182-0.658-0.248-1.359-0.189-2.046c0.347-4.092,3.755-6.635,4.591-10.474c0.5-2.296,0-4.708-0.506-7.003     c-0.17-0.771-0.375-1.603-0.924-2.079c-0.553-0.479-1.3-0.467-1.968-0.668c-3.306-0.995-3.558-6.367-2.641-10.188     c0.699-2.912,1.557-6.314,0.861-9.013c-0.377-1.462-1.71-2.291-2.983-1.912c-1.379,0.411-2.696,1.1-3.871,2.034     c-1.711-3.65-0.679-8.368-2.596-11.997c-0.467-0.885-1.119-1.643-1.916-2.112c-2.929-1.724-5.426,1.281-5.823,4.347     c-0.313,2.413,0.349,4.838,1.002,7.158c-1.809-1.05-4.091,0.517-4.923,2.659c-0.832,2.141-0.622,4.608-0.394,6.943     c0.424,4.358,0.849,8.715,1.273,13.073c-1.402-2.459-5.023-1.524-6.318,1.012c-1.295,2.536-0.925,5.743-0.339,8.612     c0.644,3.152,1.224,8.609,0.21,11.716c-4.108,2.17-4.529-3.313-7.828-2.669c-1.597,0.312-2.788,1.859-3.081,3.709     c-0.804,5.08,0.802,9.975,0.649,14.755c-3.178-1.117-6.74,2.894-5.877,6.619c0.526,2.271,2.266,3.972,2.375,6.459     c0.045,1.036-0.337,2.076-1.097,2.62c-1.754,1.257-2.84-1.563-4.652-0.079c-0.77,0.63-1.167,1.728-1.103,2.82     c0.177,3,2.545,4.892,2.849,7.846c0.111,1.077-0.206,2.19-0.906,2.909c-1.099,1.129-2.062,0.348-3.085,0.223     c-2.393-0.292-4.032,3.136-3.604,5.886c0.428,2.75,2.112,4.962,3.398,7.323c1.286,2.361,2.199,5.457,1.003,7.881     c-2.071-1.689-2.991-4.802-5.289-6.276c-0.878-0.563-1.922-0.78-2.862-0.375c-1.964,0.847-2.21,3.572-2.067,5.825     c0.36,5.679,1.882,11.254,4.405,16.136c-2.863,2.637-6.102-6.097-9.491-3.77c-0.983,0.675-1.471,2.008-1.386,3.331     c0.523,8.104,3.176,15.992,7.479,22.394c-1.085-1.314-2.803-1.923-4.321-1.423c-1.797,0.593-3.144,2.677-3.132,4.846     c0.017,3.092,2.353,5.374,3.81,7.961c1.457,2.588,1.391,7.157-1.236,7.659c-2.712,0.518-4.026-3.856-6.441-5.378     c-2.861-1.803-6.571,1.278-7.225,4.981c-0.654,3.703,0.802,7.448,2.459,10.702c1.655,3.25,3.595,6.473,4.056,10.209     c-0.77,0.496-0.255,0.164-1.024,0.661c-4.05-3.709-8.38,0.733-7.03,5.076c0.565,1.817,1.169,3.682,1.169,5.504l-0.125,2.807     c-0.084,4.682-3.851,8.845-7.881,8.709c-3.215-0.108-6.542,0.901-7.961,4.253c-1.651,3.901-0.241,9.266,3.284,11.104     c0.977,0.509,1.925,1.11,2.697,1.972c3.195,3.568,0.689,5.956-0.123,8.778c-1.024,3.556,0.908,7.605,3.741,9.401     c2.834,1.797,6.288,1.74,9.443,0.949c2.037-0.51,4.104-1.31,6.159-0.908c3.825,1.837,0.841,6.742,4.501,11.29     c0.856,1.064,2.604,2.163,3.813,2.549c4.338,1.386,7.283-0.344,9.671-3.266c1.076-1.316,2.461-2.599,3.906-3.209     c1.629-0.688,3.327,0.801,3.286,2.814c-0.071,3.485,0.204,6.969,2.087,9.921c1.167,1.831,2.981,3.045,4.942,2.996     c3.867-0.095,5.793-4.595,7.381-8.396c1.954-4.676,5.649-10.029,10.873-5.02c1.258,1.206,2.02,2.94,2.383,4.788     c0.786,4.008,5.072,9.771,8.542,7.239c2.866-2.091,2.064-8.052,6.144-9.012c1.205-0.284,2.459,0.041,3.524,0.755     c4.314,2.892,4.939,9.729,9.715,11.953c1.677,0.781,3.645,0.36,4.833-1.221c1.411-1.878,0.563-3.72,0.398-5.594     c-0.373-4.241,2.855-7.91,6.336-9.26c3.481-1.35,7.251-1.079,10.897-1.563c3.646-0.484,7.552-2.04,9.387-5.731     c0.679-1.366,1.023-2.935,1.757-4.262c2.134-3.861,6.663-4.487,10.582-5.055c3.92-0.568,8.514-2.158,9.634-6.557     C174.497,298.69,168.397,293.73,164.757,296.856z"/>
		</g>
		<g style="opacity:0.4;">
			<path style="fill:#ffffff;" d="M164.757,296.856c0.809-4.744,1.618-9.487,2.427-14.231c0.245-1.438,0.48-3.021-0.781-4.158     c-0.402-0.362-0.893-0.584-1.396-0.668c-3.113-0.524-5.393,3.235-8.397,3.204c-1.786-2.698,0.194-6.534,2.301-8.9     c2.176-2.444,4.813-5.49,3.793-8.907c-0.509-1.707-1.831-2.89-3.337-3.338c-2.61-0.777-5.125,0.32-7.53,1.399     c-1.554-4.327,3.24-7.73,6.057-11.477c1.724-2.292,0.035-5.833-2.552-5.345c-3.225,0.608-6.45,1.215-9.674,1.823     c-0.943,0.178-1.92,0.132-2.816-0.25c-3.595-1.535-2.857-6.402-1.205-9.567c0.643-1.233,1.403-2.456,2.03-3.72     c1.13-2.279-0.198-5.201-2.46-5.305c-2.1-0.096-4.209,0.077-6.275,0.519c-2.054-4.053,1.796-8.67,5.321-10.984     c1.653-1.085,3.478-2.419,4.854-4.002c2.085-2.398,0.913-6.538-1.988-7.055c-2.326-0.415-4.652-0.831-6.977-1.246     c-0.627-0.112-1.245-0.328-1.782-0.719c-2.619-1.909-1.257-5.68,0.532-7.892c0.533-0.659,1.117-1.316,1.659-2     c1.394-1.76,0.378-4.614-1.678-4.737l-2.133-0.128c1.324-2.836,2.383-5.838,3.158-8.936c0.944-3.776-1.962-7.341-5.264-6.474     l-4.434,1.165c-0.573,0.151-1.181,0.299-1.736,0.078c-0.693-0.276-1.145-1.083-1.315-1.912c-1.183-5.778,8.244-8.847,7.195-14.66     c-0.764-4.235-5.923-4.286-9.549-3.294c0.275-5.434,1.113-10.829,2.489-16.032c0.392-1.482-0.566-2.975-1.9-2.945     c-1.818,0.04-3.636,0.081-5.454,0.121c-0.586,0.013-1.233,0.001-1.669-0.455c-0.358-0.375-0.482-0.967-0.516-1.526     c-0.196-3.156,1.783-5.881,2.577-8.907c0.794-3.027-0.921-7.48-3.52-6.532c-3.477-1.642-5.879,0.866-6.886-2.78     c-0.182-0.658-0.248-1.359-0.189-2.046c0.347-4.092,3.755-6.635,4.591-10.474c0.5-2.296,0-4.708-0.506-7.003     c-0.17-0.771-0.375-1.603-0.924-2.079c-0.553-0.479-1.3-0.467-1.968-0.668c-3.306-0.995-3.558-6.367-2.641-10.188     c0.699-2.912,1.557-6.314,0.861-9.013c-0.377-1.462-1.71-2.291-2.983-1.912c-1.379,0.411-2.696,1.1-3.871,2.034     c-1.711-3.65-0.679-8.368-2.596-11.997c-0.467-0.885-1.119-1.643-1.916-2.112c-2.929-1.724-5.426,1.281-5.823,4.347     c-0.313,2.413,0.349,4.838,1.002,7.158c-1.809-1.05-4.091,0.517-4.923,2.659c-0.832,2.141-0.622,4.608-0.394,6.943     c0.424,4.358,0.849,8.715,1.273,13.073c-1.402-2.459-5.023-1.524-6.318,1.012c-1.295,2.536-0.925,5.743-0.339,8.612     c0.644,3.152,1.224,8.609,0.21,11.716c-4.108,2.17-4.529-3.313-7.828-2.669c-1.597,0.312-2.788,1.859-3.081,3.709     c-0.804,5.08,0.802,9.975,0.649,14.755c-3.178-1.117-6.74,2.894-5.877,6.619c0.526,2.271,2.266,3.972,2.375,6.459     c0.045,1.036-0.337,2.076-1.097,2.62c-1.754,1.257-2.84-1.563-4.652-0.079c-0.77,0.63-1.167,1.728-1.103,2.82     c0.177,3,2.545,4.892,2.849,7.846c0.111,1.077-0.206,2.19-0.906,2.909c-1.099,1.129-2.062,0.348-3.085,0.223     c-2.393-0.292-4.032,3.136-3.604,5.886c0.428,2.75,2.112,4.962,3.398,7.323c1.286,2.361,2.199,5.457,1.003,7.881     c-2.071-1.689-2.991-4.802-5.289-6.276c-0.878-0.563-1.922-0.78-2.862-0.375c-1.964,0.847-2.21,3.572-2.067,5.825     c0.36,5.679,1.882,11.254,4.405,16.136c-2.863,2.637-6.102-6.097-9.491-3.77c-0.983,0.675-1.471,2.008-1.386,3.331     c0.523,8.104,3.176,15.992,7.479,22.394c-1.085-1.314-2.803-1.923-4.321-1.423c-1.797,0.593-3.144,2.677-3.132,4.846     c0.017,3.092,2.353,5.374,3.81,7.961c1.457,2.588,1.391,7.157-1.236,7.659c-2.712,0.518-4.026-3.856-6.441-5.378     c-2.861-1.803-6.571,1.278-7.225,4.981c-0.654,3.703,0.802,7.448,2.459,10.702c1.655,3.25,3.595,6.473,4.056,10.209     c-0.77,0.496-0.255,0.164-1.024,0.661c-4.05-3.709-8.38,0.733-7.03,5.076c0.565,1.817,1.169,3.682,1.169,5.504l-0.125,2.807     c-0.084,4.682-3.851,8.845-7.881,8.709c-3.215-0.108-6.542,0.901-7.961,4.253c-1.651,3.901-0.241,9.266,3.284,11.104     c0.977,0.509,1.925,1.11,2.697,1.972c3.195,3.568,0.689,5.956-0.123,8.778c-1.024,3.556,0.908,7.605,3.741,9.401     c2.834,1.797,6.288,1.74,9.443,0.949c2.037-0.51,4.104-1.31,6.159-0.908c3.825,1.837,0.841,6.742,4.501,11.29     c0.856,1.064,2.604,2.163,3.813,2.549c4.338,1.386,7.283-0.344,9.671-3.266c1.076-1.316,2.461-2.599,3.906-3.209     c1.629-0.688,3.327,0.801,3.286,2.814c-0.071,3.485,0.204,6.969,2.087,9.921c1.167,1.831,2.981,3.045,4.942,2.996     c3.867-0.095,5.793-4.595,7.381-8.396c1.954-4.676,5.649-10.029,10.873-5.02c1.258,1.206,2.02,2.94,2.383,4.788     c0.786,4.008,5.072,9.771,8.542,7.239c2.866-2.091,2.064-8.052,6.144-9.012c1.205-0.284,2.459,0.041,3.524,0.755     c4.314,2.892,4.939,9.729,9.715,11.953c1.677,0.781,3.645,0.36,4.833-1.221c1.411-1.878,0.563-3.72,0.398-5.594     c-0.373-4.241,2.855-7.91,6.336-9.26c3.481-1.35,7.251-1.079,10.897-1.563c3.646-0.484,7.552-2.04,9.387-5.731     c0.679-1.366,1.023-2.935,1.757-4.262c2.134-3.861,6.663-4.487,10.582-5.055c3.92-0.568,8.514-2.158,9.634-6.557     C174.497,298.69,168.397,293.73,164.757,296.856z"/>
		</g>
	</g>
</g>
<g id="Rocks">
	<g>
		<polygon style="fill:#263829;" points="41.939,391.686 50.419,378.146 69.316,372.188 79.201,376.183 91.205,391.686   "/>
		<polygon style="opacity:0.5;fill:#ffffff;enable-background:new    ;" points="41.939,391.686 50.419,378.146 69.316,372.188     79.201,376.183 91.205,391.686   "/>
		<polygon style="opacity:0.2;enable-background:new    ;" points="91.205,391.686 79.201,376.183 69.316,372.188 73.514,379.553     65.638,384.419 75.733,381.541 75.733,381.541   " fill="#000000"/>
	</g>
	<g>
		<polygon style="fill:#263829;" points="192.735,391.686 183.573,377.729 173.762,365.125 166.354,363.03 152.029,348.031     133.626,350.772 119.97,357.546 112.255,375.894 107.089,377.729 100.145,391.686   "/>
		<polygon style="opacity:0.5;fill:#ffffff;enable-background:new    ;" points="192.735,391.686 183.573,377.729 173.762,365.125     166.354,363.03 152.029,348.031 133.626,350.772 119.97,357.546 112.255,375.894 107.089,377.729 100.145,391.686   "/>
		<polygon style="opacity:0.2;enable-background:new    ;" points="173.762,365.125 161.616,367.001 152.029,348.031     166.354,363.03   " fill="#000000"/>
		<path style="opacity:0.2;enable-background:new    ;" d="M112.255,375.894v1.346l13.768,1.333c0,0-17.662,0.667-17.717,0.833    c-0.056,0.167-7.529,11.009-7.529,11.009l6.311-12.687L112.255,375.894z" fill="#000000"/>
	</g>
	<g>
		<polygon style="fill:#263829;" points="386.557,391.517 393.412,381.073 400.753,371.643 406.296,370.075 417.015,358.853     430.784,360.903 441.002,365.972 446.775,379.701 450.641,381.073 455.836,391.517   "/>
		<polygon style="opacity:0.5;fill:#ffffff;enable-background:new    ;" points="386.557,391.517 393.412,381.073 400.753,371.643     406.296,370.075 417.015,358.853 430.784,360.903 441.002,365.972 446.775,379.701 450.641,381.073 455.836,391.517   "/>
		<polygon style="opacity:0.2;enable-background:new    ;" points="400.753,371.643 409.841,373.046 417.015,358.853     406.296,370.075   " fill="#000000"/>
		<path style="opacity:0.2;enable-background:new    ;" d="M446.775,379.701v1.007l-10.302,0.997c0,0,13.215,0.499,13.257,0.623    c0.042,0.125,5.633,8.238,5.633,8.238l-4.722-9.493L446.775,379.701z" fill="#000000"/>
	</g>
</g>
<g id="Character_2">
	<g>
		<g>
			<path style="fill:#b97964;" d="M317.481,205.865c-0.777,11.925-5.12,27.695-5.12,27.695c-2.669,0.894-22.403,2.581-22.403,2.581     l1.779,7.906c0,0,7.476,0.643,14.944,1.448c13.181,1.42,15.448,0.301,17.798-7.495s5.363-31.425,5.363-31.425L317.481,205.865z"/>
			<g>
				<path style="fill:#b97964;" d="M289.617,226.816c-0.186-0.478-0.397-1.481-0.687-1.906c-0.29-0.424-0.859-0.712-1.338-0.511      c-0.479,0.201-0.869,1.073-0.964,1.577c-0.285,1.5,0.131,3.199,0.429,4.692c-1.42-0.609-3.19-1.337-4.74-1.253      c-0.814,0.044-1.671,0.208-2.278,0.75c-0.608,0.541-0.839,1.557-0.303,2.159c-1.028,0.826-1.367,2.385-0.77,3.544      c-0.572,0.82-0.994,1.942-0.447,2.77c0.189,0.286,0.483,0.516,0.571,0.846c0.082,0.308-0.034,0.633-0.048,0.952      c-0.047,1.063,0.987,1.818,1.916,2.348c3.719,2.12,8.308,1.139,12.615,1.175l0.601-8.207      C291.744,233.143,291.156,230.772,289.617,226.816z"/>
			</g>
			<path style="fill:#263829;" d="M267.757,234.676c-0.675-0.012-1.337-0.187-1.929-0.511c-1.198-0.538-1.733-1.945-1.195-3.143     c0.012-0.027,0.025-0.053,0.037-0.079c1.752-5.026,13.826-12.856,19.686-11.688c0.12,0.022,0.213,0.118,0.229,0.24     c0.012,0.123-0.055,0.24-0.167,0.292c-4.702,2.21-7.737,6.256-10.166,9.436C272.001,232.195,270.134,234.676,267.757,234.676z      M283.084,219.703c-5.87,0-16.328,6.996-17.871,11.469c-0.474,0.883-0.143,1.983,0.739,2.457c0.045,0.024,0.09,0.046,0.137,0.066     c2.951,1.522,4.942-1.116,7.705-4.775c2.325-3.066,5.213-6.84,9.52-9.176L283.084,219.703z"/>
			<polygon style="fill:#386641;" points="267.965,455.796 265.317,455.587 281.468,242.225 286.379,242.621    "/>
			<polygon style="opacity:0.7;fill:#ffffff;enable-background:new    ;" points="267.965,455.796 265.317,455.587 281.468,242.225      286.379,242.621    "/>
			<path style="fill:#386641;" d="M289.517,221.246l0.052-0.553c0.042-0.623-0.421-1.165-1.043-1.22l-5.464-0.438     c-0.624-0.048-1.17,0.418-1.22,1.043v0.563c-0.048,0.62,0.417,1.161,1.036,1.209c0.002,0,0.004,0,0.006,0.001h0.209     c0,0,0,0,0,0.063l-1.627,19.404h-0.198c-0.62-0.048-1.161,0.416-1.209,1.036c0,0.002,0,0.004,0,0.006v0.553     c-0.048,0.624,0.418,1.17,1.043,1.22l5.464,0.438c0.624,0.048,1.17-0.418,1.22-1.043v-0.553c0.048-0.624-0.418-1.17-1.043-1.22     h-0.229l1.554-19.352v-0.115h0.24c0.62,0.048,1.161-0.416,1.209-1.036C289.517,221.251,289.517,221.249,289.517,221.246z"/>
			<g>
				<path style="fill:#b97964;" d="M284.071,233.372c-0.409-0.66-1.281-0.997-2.025-0.776c0.449-0.042,0.905-0.085,1.322-0.257      c0.416-0.172,0.795-0.494,0.921-0.927c0.242-0.831-0.574-1.666-1.432-1.782s-1.697,0.261-2.48,0.629l0.006,10.851      c0.505,0.196,1.073,0.278,1.591,0.118c0.518-0.16,0.968-0.597,1.042-1.134c0.074-0.537-0.312-1.126-0.85-1.184      c0.675,0.208,1.472-0.107,1.826-0.717c0.354-0.611,0.234-1.456-0.274-1.946c-0.123-0.119-0.267-0.212-0.422-0.283      c0.222-0.105,0.43-0.236,0.593-0.421C284.398,234.956,284.48,234.032,284.071,233.372z"/>
			</g>
		</g>
		<g>
			<g>
				<path style="fill:#386641;" d="M346.725,188.362c0,0-0.655-23.9,4.584-30.505c5.239-6.604,18.992-4.403,35.691,0      c16.699,4.403,24.231,6.29,22.921,17.611c-1.31,11.321-10.478,17.611-10.478,17.611l-2.619,33.335      c0,0,7.531,27.989,5.566,37.423c-1.965,9.434-10.151,15.724-18.992,15.095c-8.841-0.629-16.699,0.043-16.699,0.043      l-24.231-2.245L346.725,188.362z"/>
				<path style="opacity:0.4;enable-background:new    ;" d="M346.725,188.362c0,0-0.655-23.9,4.584-30.505      c5.239-6.604,18.992-4.403,35.691,0c16.699,4.403,24.231,6.29,22.921,17.611c-1.31,11.321-10.478,17.611-10.478,17.611      l-2.619,33.335c0,0,7.531,27.989,5.566,37.423c-1.965,9.434-10.151,15.724-18.992,15.095      c-8.841-0.629-16.699,0.043-16.699,0.043l-24.231-2.245L346.725,188.362z" fill="#000000"/>
				<path style="opacity:0.2;enable-background:new    ;" d="M371.812,265.69c0,0,11.307-0.678,18.918-2.294      c-1.299,1.616-10.412,5.745-13.398,6.384c-0.421,0.09,2.045,8.946,2.045,8.946h-3.109L371.812,265.69z" fill="#000000"/>
				<path style="fill:none;stroke:#263829;stroke-width:0.25;stroke-miterlimit:10;" d="M386.451,278.975      c-0.633-4.18-5.683-93.821-5.568-97.652c0.115-3.831,0.436-7.555,2.705-10.644c2.204-3,5.581-5.065,9.213-5.883      c3.632-0.818,7.493-0.422,10.973,0.899"/>
			</g>
			<path style="opacity:0.3;" d="M383.157,181.323c0.24,0.612,1.265,9.757,7.747,14.195c4.724,3.235,8.081,3.396,8.081,3.396     l0.603-8.643L383.157,181.323z" fill="#000000"/>
			
				<ellipse transform="matrix(0.9252 -0.3796 0.3796 0.9252 -38.416 163.9648)" style="fill:#386641;" cx="396.612" cy="179.406" rx="13.455" ry="13.455"/>
			<path style="fill:none;stroke:#263829;stroke-width:0.25;stroke-linecap:round;stroke-linejoin:round;stroke-miterlimit:10;" d="     M391.021,191.998c-0.338,14.537,0.499,35.043,2.503,49.445c1.973-0.478,3.945-0.957,5.918-1.435"/>
			<path style="fill:none;stroke:#263829;stroke-width:0.25;stroke-miterlimit:10;" d="M371.853,265.444     c8.029,1.965,16.914,0.061,23.433-5.02"/>
			<path style="fill:none;stroke:#263829;stroke-width:0.25;stroke-linecap:round;stroke-linejoin:round;stroke-miterlimit:10;" d="     M391.703,224.394c0,0,4.048-0.603,5.37-0.884"/>
			<path style="fill:none;stroke:#263829;stroke-width:0.25;stroke-linecap:round;stroke-linejoin:round;stroke-miterlimit:10;" d="     M391.351,218.971c1.672-0.363,4.329-0.939,6.001-1.302"/>
			
				<line style="fill:none;stroke:#263829;stroke-width:0.25;stroke-linecap:round;stroke-linejoin:round;stroke-miterlimit:10;" x1="384.199" y1="246.017" x2="400.082" y2="241.564"/>
		</g>
		<g>
			<path style="fill:#263829;" d="M371.385,172.427c-0.932-0.59-2.037-0.991-2.714-1.849c-1.352-1.713-0.332-4.153-0.375-6.313     c-0.044-2.185-1.266-4.221-2.876-5.744c-0.016-0.015-0.032-0.03-0.048-0.046c-2.693-2.519-6.536-3.398-10.134-2.587l-2.842,0.641     c-1.898,4.206-3.808,8.449-4.774,12.945c-0.088,0.408-0.157,0.822-0.228,1.235l-4.574-1.071c0.045,1.525-1.251,2.81-2.681,3.34     c-1.43,0.53-2.995,0.5-4.515,0.628c-1.52,0.128-3.125,0.47-4.203,1.549c-1.078,1.079-1.315,3.096-0.128,4.054     c-3.664,0.732-6.83,3.569-7.956,7.132c-1.127,3.563-0.168,7.704,2.409,10.41c2.348,2.465,5.775,3.65,9.159,4.022     c7.159,0.786,14.62-1.885,19.654-7.036c0.915-0.936,1.743-1.952,2.486-3.029c0.7,0.22,1.419,0.384,2.159,0.468     c3.053,0.346,6.16-0.538,8.813-2.048c3.016-1.716,5.61-4.376,6.51-7.661C375.426,178.183,374.313,174.283,371.385,172.427z"/>
		</g>
		<g>
			<g>
				<path style="fill:#b97964;" d="M316.753,268.396c-0.721,2.134-8.794,70.502-8.701,85.257      c0.075,11.942,10.929,92.428,10.929,92.428h11.784c0,0,3.105-40.309,3.613-54.109c0.508-13.8-2.811-39.738-2.811-39.738      l20.816-62.254l-0.781-20.885L316.753,268.396z"/>
				<g>
					<polygon style="fill:#386641;" points="318.642,444.914 316.5,427.453 332.272,427.673 331.085,446.79 323.254,447.332             "/>
					<polygon style="opacity:0.8;fill:#ffffff;" points="318.642,444.914 316.5,427.453 332.272,427.673 331.085,446.79        323.254,447.332      "/>
					<path style="fill:#386641;" d="M316.921,445.384c-0.12-1.516-0.027-2.779,1.49-2.871l2.149-0.13       c0.813,0,1.393,0.581,2.044,1.066c4.926,3.672,6.947-1.069,8.859-1.066c2.456-0.002,0.876,8.412,0.993,8.853L335.14,461       c0.233,0.815-0.239,2.576-1.054,2.809c-0.145,0.041-0.295,0.061-0.446,0.059c-4.36,0-6.423,0-11.851,0h-16.598       c-4.525,0-4.577-5.937-2.713-6.358c8.381-1.852,11.687-4.79,14.448-6.939C316.926,450.571,317.105,447.714,316.921,445.384z"/>
					<path style="opacity:0.4;fill:#ffffff;" d="M305.191,463.868h16.598c5.427,0,7.49,0,11.851,0       c0.151,0.002,0.301-0.018,0.446-0.059c0.554-0.158,0.942-1.019,1.066-1.812l-0.012-0.743h-33.581       C302.005,462.635,303.13,463.868,305.191,463.868z"/>
					<g>
						<g>
							<path style="fill:#263829;" d="M311.55,454.305c0.751,0.692,1.329,1.465,1.784,2.384c0.09,0.181,0.347,0.232,0.513,0.135         c0.185-0.108,0.225-0.331,0.134-0.513c-0.471-0.951-1.121-1.816-1.901-2.535c-0.149-0.137-0.383-0.147-0.53,0         C311.411,453.914,311.4,454.167,311.55,454.305L311.55,454.305z"/>
						</g>
					</g>
					<g>
						<g>
							<path style="fill:#263829;" d="M314.308,452.62c0.695,0.664,1.224,1.356,1.684,2.203c0.094,0.173,0.347,0.242,0.513,0.134         c0.175-0.113,0.235-0.328,0.134-0.513c-0.473-0.871-1.084-1.67-1.801-2.355c-0.142-0.136-0.391-0.152-0.53,0         C314.173,452.236,314.156,452.475,314.308,452.62L314.308,452.62z"/>
						</g>
					</g>
					<g>
						<g>
							<path style="fill:#263829;" d="M316.904,451.003c0.083,0.045,0.164,0.093,0.243,0.145c0.04,0.026,0.079,0.052,0.117,0.079         c0.017,0.012,0.035,0.025,0.052,0.038c0.015,0.011,0.09,0.059,0.006,0.004c0.15,0.099,0.286,0.242,0.409,0.372         c0.062,0.065,0.122,0.133,0.178,0.203c0.016,0.019,0.031,0.043,0.048,0.06c-0.028-0.029-0.035-0.045-0.004-0.004         c0.028,0.038,0.055,0.076,0.082,0.115c0.107,0.156,0.2,0.32,0.282,0.49c0.085,0.177,0.353,0.238,0.513,0.134         c0.182-0.117,0.225-0.323,0.135-0.513c-0.356-0.745-0.96-1.375-1.683-1.771c-0.172-0.094-0.417-0.048-0.513,0.135         C316.676,450.665,316.72,450.902,316.904,451.003L316.904,451.003z"/>
						</g>
					</g>
					<g>
						<g>
							<path style="fill:#263829;" d="M317.122,447.707c0.204,0.003,0.408,0.014,0.611,0.036c0.169,0.018,0.332,0.045,0.526,0.086         c0.393,0.082,0.776,0.203,1.146,0.357c0.182,0.075,0.42-0.081,0.461-0.262c0.05-0.219-0.067-0.381-0.262-0.461         c-0.785-0.326-1.633-0.493-2.483-0.505c-0.196-0.003-0.384,0.174-0.375,0.375         C316.756,447.538,316.912,447.704,317.122,447.707L317.122,447.707z"/>
						</g>
					</g>
					<g style="opacity:0.3;">
						<path d="M324.936,448.014c0.047,0.872,0.354,1.83,1.128,2.234c0.48,0.251,1.049,0.241,1.59,0.225        c1.618-0.047,3.236-0.094,4.853-0.141l0.02-0.047c0.255-2.298,0.941-7.906-1.065-7.904c-1.579-0.002-3.236,3.217-6.537,2.277        C324.953,445.877,324.904,447.427,324.936,448.014z" fill="#000000"/>
					</g>
				</g>
			</g>
			<g>
				<path style="fill:#b97964;" d="M378.924,360.247c-0.457-1.992-1.188-6.039-2.084-11.376c0.027-0.006,0.057-0.012,0.084-0.019      c-0.657-7.058,1.609-43.618-0.624-64.498c-1.716-13.301-4.89-20.372-8.313-24.779c-0.176-0.226-0.338-0.432-0.485-0.615      c-0.569-0.71-0.914-1.1-0.914-1.1c-0.651,0.163-1.298,0.314-1.941,0.455c-0.241,0.053-0.48,0.104-0.718,0.154      c-24.167,5.053-44.622-2.189-44.622-2.189c-2.224,5.494-3.439,19.121-5.062,31.269c2.528,2.774,12.363,5.351,25.09,7.736      l3.629,16.413c1.909,10.176,4.362,20.158,6.444,29.145l2.177,9.844c0.132,0.645,0.262,1.285,0.384,1.914      c1.104,5.659,16.39,95.375,16.39,95.375l13.107,0.213C381.466,448.19,385.116,387.224,378.924,360.247z"/>
				<g>
					<polygon style="fill:#386641;" points="367.357,444.595 364.371,425.161 383.242,425.473 381.617,446.718 372.643,447.332             "/>
					<polygon style="opacity:0.8;fill:#ffffff;" points="367.357,444.595 364.371,425.161 383.242,425.473 381.617,446.718        372.643,447.332      "/>
					<path style="fill:#386641;" d="M366.878,445.384c-0.12-1.516-0.027-2.779,1.49-2.871l2.149-0.13       c0.813,0,1.393,0.581,2.044,1.066c4.926,3.672,6.947-1.069,8.859-1.066c2.456-0.002,0.876,8.412,0.993,8.853l2.684,9.764       c0.233,0.815-0.239,2.576-1.054,2.809c-0.145,0.041-0.295,0.061-0.446,0.059c-4.36,0-6.423,0-11.851,0h-16.598       c-4.525,0-4.577-5.937-2.713-6.358c8.381-1.852,11.687-4.79,14.448-6.939C366.884,450.571,367.063,447.714,366.878,445.384z"/>
					<path style="opacity:0.4;fill:#ffffff;" d="M355.148,463.868h16.598c5.427,0,7.49,0,11.851,0       c0.151,0.002,0.301-0.018,0.446-0.059c0.554-0.158,0.942-1.019,1.066-1.812l-0.012-0.743h-33.581       C351.963,462.635,353.088,463.868,355.148,463.868z"/>
					<g>
						<g>
							<path style="fill:#263829;" d="M361.507,454.305c0.751,0.692,1.329,1.465,1.784,2.384c0.09,0.181,0.347,0.232,0.513,0.135         c0.185-0.108,0.225-0.331,0.135-0.513c-0.471-0.951-1.121-1.816-1.901-2.535c-0.149-0.137-0.383-0.147-0.53,0         C361.368,453.914,361.358,454.167,361.507,454.305L361.507,454.305z"/>
						</g>
					</g>
					<g>
						<g>
							<path style="fill:#263829;" d="M364.265,452.62c0.695,0.664,1.224,1.356,1.684,2.203c0.094,0.173,0.347,0.242,0.513,0.134         c0.175-0.113,0.235-0.328,0.135-0.513c-0.473-0.871-1.084-1.67-1.802-2.355c-0.142-0.136-0.391-0.152-0.53,0         C364.131,452.236,364.114,452.475,364.265,452.62L364.265,452.62z"/>
						</g>
					</g>
					<g>
						<g>
							<path style="fill:#263829;" d="M366.861,451.003c0.083,0.045,0.164,0.093,0.243,0.145c0.04,0.026,0.079,0.052,0.117,0.079         c0.018,0.012,0.035,0.025,0.052,0.038c0.016,0.011,0.09,0.059,0.006,0.004c0.15,0.099,0.286,0.242,0.409,0.372         c0.062,0.065,0.121,0.133,0.178,0.203c0.016,0.019,0.031,0.043,0.048,0.06c-0.028-0.029-0.035-0.045-0.004-0.004         c0.028,0.038,0.056,0.076,0.082,0.115c0.107,0.156,0.2,0.32,0.282,0.49c0.085,0.177,0.353,0.238,0.513,0.134         c0.182-0.117,0.225-0.323,0.135-0.513c-0.356-0.745-0.96-1.375-1.683-1.771c-0.172-0.094-0.417-0.048-0.513,0.135         C366.634,450.665,366.677,450.902,366.861,451.003L366.861,451.003z"/>
						</g>
					</g>
					<g>
						<g>
							<path style="fill:#263829;" d="M367.079,447.707c0.204,0.003,0.408,0.014,0.611,0.036c0.169,0.018,0.332,0.045,0.526,0.086         c0.393,0.082,0.776,0.203,1.146,0.357c0.182,0.075,0.42-0.081,0.461-0.262c0.05-0.219-0.067-0.381-0.262-0.461         c-0.785-0.326-1.633-0.493-2.483-0.505c-0.196-0.003-0.384,0.174-0.375,0.375         C366.714,447.538,366.869,447.704,367.079,447.707L367.079,447.707z"/>
						</g>
					</g>
					<g style="opacity:0.3;">
						<path d="M374.893,448.014c0.047,0.872,0.354,1.83,1.129,2.234c0.48,0.251,1.049,0.241,1.59,0.225        c1.618-0.047,3.236-0.094,4.854-0.141l0.02-0.047c0.255-2.298,0.941-7.906-1.065-7.904c-1.578-0.002-3.236,3.217-6.537,2.277        C374.911,445.877,374.862,447.427,374.893,448.014z" fill="#000000"/>
					</g>
				</g>
			</g>
			<g>
				<path style="fill:#263829;" d="M306.812,323.767l35.236,5.81l1.75-8.603l2.232,8.419l37.836-1.244      c0,0-4.406-34.489-5.904-43.478c-2.744-16.462-9.976-25.096-9.976-25.096l-50.838,2.32c0,0-3.81,21.81-5.778,32.681      C309.197,306.595,306.812,323.767,306.812,323.767z"/>
				<path style="opacity:0.2;enable-background:new    ;" d="M343.798,320.974l-6.585-22.985c0,0-1.267,21.54,5.063,30.47      L343.798,320.974z" fill="#000000"/>
				
					<path style="opacity:0.3;fill:none;stroke:#ffffff;stroke-width:0.5;stroke-linecap:round;stroke-linejoin:round;stroke-miterlimit:10;" d="      M351.121,273.438c1.883,3.68,5.283,6.555,9.224,7.8c3.942,1.245,9.091,0.405,12.031-2.535"/>
				
					<path style="opacity:0.3;fill:none;stroke:#000000;stroke-width:0.5;stroke-linecap:round;stroke-linejoin:round;stroke-miterlimit:10;" d="      M331.566,290.986c2.284,3.387,5.544,6.754,5.544,6.754l8.921,31.653"/>
				
					<path style="opacity:0.3;fill:none;stroke:#ffffff;stroke-width:0.5;stroke-linecap:round;stroke-linejoin:round;stroke-miterlimit:10;" d="      M331.368,289.757c-0.055-5.254,0.5-14.73,0.783-19.977"/>
				
					<path style="opacity:0.3;fill:none;stroke:#ffffff;stroke-width:0.5;stroke-linecap:round;stroke-linejoin:round;stroke-miterlimit:10;" d="      M313.374,285.762c4.788-2.86,7.721-8.562,7.263-14.121"/>
				
					<path style="opacity:0.3;fill:none;stroke:#ffffff;stroke-width:0.5;stroke-linecap:round;stroke-linejoin:round;stroke-miterlimit:10;" d="      M369.667,280.784c3.712,15.512,6.592,40.099,6.691,40.954"/>
				
					<path style="opacity:0.3;fill:none;stroke:#ffffff;stroke-width:0.5;stroke-linecap:round;stroke-linejoin:round;stroke-miterlimit:10;" d="      M345.802,324.091c12.039-0.927,24.955-1.426,36.994-2.353"/>
				
					<line style="opacity:0.3;fill:none;stroke:#ffffff;stroke-width:0.5;stroke-linecap:round;stroke-linejoin:round;stroke-miterlimit:10;" x1="308.051" y1="317.812" x2="343.164" y2="324.091"/>
				
					<path style="opacity:0.3;fill:none;stroke:#ffffff;stroke-width:0.5;stroke-linecap:round;stroke-linejoin:round;stroke-miterlimit:10;" d="      M336.497,297.989c0,0-1.501,16.101-2.668,23.746"/>
			</g>
		</g>
		<path style="opacity:0.2;enable-background:new    ;" d="M316.47,263.814c0,0,7.385,7.798,21.86,7.932    c14.475,0.134,30.713-8.298,30.713-8.298l-1.818-3.112l-41.682,4.541l-7.977-4.541L316.47,263.814z" fill="#000000"/>
		<g>
			<path style="fill:#386641;" d="M324.512,189.784c-6.811,5.495-10.522,26.122-10.522,26.122l18.81,0.24     c0,0,5.497-14.511,3.27-19.821C333.749,190.792,330.15,185.47,324.512,189.784z"/>
			<g style="opacity:0.3;">
				<path d="M323.274,199.21c-1.131,1.933-1.52,3.034-2.229,5.26c-0.709,2.226-1.098,6.276-1.274,8.369l3.822,1.101      C323.445,208.831,323.422,204.318,323.274,199.21z" fill="#000000"/>
			</g>
			<path style="fill:#386641;" d="M373.216,214.659l6.287-21.439c-3.977-5.936-23.657-10.497-23.657-10.497l-12.965,0.709     c0,0-4.983,1.112-9.25,2.503c-5.696,1.857-8.776,3.351-10.133,6.512c0,0-2.377,7.002-0.948,21.431     c0.393,3.968,0.877,24.693-0.23,31.508l-5.724,16.905c23.69,18.449,52.101-0.924,52.101-0.924     c-1.065-3.258-3.405-10.473-3.887-13.657c0.348-4.062,1.488-6.729,3.208-13.841C368.352,232.497,372.64,215.992,373.216,214.659z     "/>
			<path style="opacity:0.3;" d="M369.008,229.787c0,0-4.707-15.507-4.453-26.033l9.047,9.238L369.008,229.787z" fill="#000000"/>
			<path style="fill:#386641;" d="M371.637,247.917c0,0-8.185-7.539-11.207-13.835c-3.022-6.296-4.911-13.904-4.911-22.592     c0-8.688,1.374-14.376,4.018-19.538c2.644-5.163,5.79-7.247,5.79-7.247c3.424,0.494,6.467,1.953,9.151,4.32     c0,0-9.054,1.009-10.151,10.676c-0.557,4.905-0.948,17.866,1.193,25.546c2.141,7.681,16.19,17.848,16.19,17.848L371.637,247.917z     "/>
			<path style="fill:#386641;" d="M323.578,234.712c0,0-4.844-10.232-5.155-17.168c-0.618-13.79,3.57-23.354,6.09-27.76     c1.457-2.549,3.896-4.606,6.031-6.054c3.077-2.085,6.81-3.043,10.485-2.493c1.075,0.161,1.83,0.406,1.96,0.677     c0.05,0.104-1.044,1.568-1.1,1.509c0,0-8.134,3.507-11.385,6.589c-2.456,2.328-8.148,18.478-7.535,30.822     C323.593,233.42,323.578,234.712,323.578,234.712z"/>
			<path style="fill:#263829;" d="M320.645,248.503c0,0,7.368,4.873,20.571,5.546c15.642,0.797,30.192,0.056,30.192,0.056v7.133     c0,0-21.811,2.017-35.213,0.466c-13.402-1.551-18.345-6.997-18.345-6.997L320.645,248.503z"/>
			<path style="opacity:0.4;enable-background:new    ;" d="M371.637,247.917c0,0-8.185-7.539-11.207-13.835     c-3.022-6.296-4.911-13.904-4.911-22.592c0-8.688,1.374-14.376,4.018-19.538c2.644-5.163,5.79-7.247,5.79-7.247     c3.424,0.494,6.467,1.953,9.151,4.32c0,0-9.054,1.009-10.151,10.676c-0.557,4.905-0.948,17.866,1.193,25.546     c2.141,7.681,16.19,17.848,16.19,17.848L371.637,247.917z" fill="#000000"/>
			<path style="opacity:0.4;enable-background:new    ;" d="M323.578,234.712c0,0-4.844-10.232-5.155-17.168     c-0.618-13.79,3.57-23.354,6.09-27.76c1.457-2.549,3.896-4.606,6.031-6.054c3.077-2.085,6.81-3.043,10.485-2.493     c1.075,0.161,1.83,0.406,1.96,0.677c0.05,0.104-1.044,1.568-1.1,1.509c0,0-8.134,3.507-11.385,6.589     c-2.456,2.328-8.148,18.478-7.535,30.822C323.593,233.42,323.578,234.712,323.578,234.712z" fill="#000000"/>
			<g>
				<path style="fill:#263829;" d="M328.099,251.664l-2.866,8.287c0,0,6.482,1.81,8.818,1.635l2.231-8.306L328.099,251.664z"/>
				<path style="opacity:0.3;fill:#ffffff;" d="M328.099,251.664l-2.866,8.287c0,0,6.482,1.81,8.818,1.635l2.231-8.306      L328.099,251.664z"/>
			</g>
			<path style="fill:#386641;" d="M357.117,255.685c0,0,0.176-4.309,3.171-6.851c4.769-4.05,20.487-1.581,24.877-3.455     c4.39-1.874,10.853-3.865,10.853-3.865s0,18.538-1.22,19.751c-1.219,1.213-14.146,6.015-21.34,4.375     C366.263,264,358.214,264.469,357.117,255.685z"/>
			<path style="opacity:0.4;enable-background:new    ;" d="M357.117,255.685c0,0,0.176-4.309,3.171-6.851     c4.769-4.05,20.487-1.581,24.877-3.455c4.39-1.874,10.853-3.865,10.853-3.865s0,18.538-1.22,19.751     c-1.219,1.213-14.146,6.015-21.34,4.375C366.263,264,358.214,264.469,357.117,255.685z" fill="#000000"/>
		</g>
		<g>
			<path style="fill:#386641;" d="M318.15,133.107c-1.478,3.701,7.671,8.252,13.008,10.061c5.337,1.81,6.13-8.048,6.13-8.048     S319.575,129.523,318.15,133.107z"/>
			<path style="opacity:0.4;enable-background:new    ;" d="M318.15,133.107c-1.478,3.701,7.671,8.252,13.008,10.061     c5.337,1.81,6.13-8.048,6.13-8.048S319.575,129.523,318.15,133.107z" fill="#000000"/>
			<g>
				<g>
					<path style="fill:#b97964;" d="M358.755,183.31c0,0-4.021,3.091-9.197,7.552c-1.078,0.929-2.266,1.733-3.523,2.401       c-3.392,1.802-6.484,2.833-7.322,1.197c-0.186-0.359-0.329-0.749-0.435-1.157c-0.711-2.739-0.419-6.589,1.794-8.351       c2.496-1.987,3.699-3.686,3.249-6.376c-0.236-1.525-0.788-3.099-1.433-4.627l2.882-1.73l10.273-10.368       C353.868,168.208,353.344,179.552,358.755,183.31z"/>
				</g>
				<path style="opacity:0.2;" d="M343.404,179.167c2.825-1.677,5.925-4.586,5.554-7.91c-0.166-1.4-0.467-2.726-0.803-3.576      l-5.739,7.598C342.888,176.504,343.06,177.314,343.404,179.167z" fill="#000000"/>
				<path style="fill:#b97964;" d="M357.033,150.163c-0.967,10.555-1.153,15.031-6.6,20.566c-8.193,8.325-20.797,5.525-22.967-4.938      c-1.953-9.417-0.044-25.095,10.318-29.531C347.993,131.889,358,139.608,357.033,150.163z"/>
				<path style="fill:#263829;" d="M342.642,153.599c-0.052,1.117-0.657,2.034-1.351,2.048c-0.694,0.014-1.215-0.879-1.163-1.996      c0.052-1.117,0.657-2.034,1.351-2.048C342.173,151.589,342.694,152.482,342.642,153.599z"/>
				<path style="fill:#263829;" d="M332.086,153.424c-0.052,1.082-0.656,1.971-1.348,1.986c-0.692,0.014-1.21-0.851-1.158-1.934      c0.053-1.082,0.656-1.971,1.348-1.985C331.62,151.476,332.138,152.341,332.086,153.424z"/>
				<path style="fill:#263829;" d="M345.564,149.709c-0.134,0.015-0.271-0.024-0.375-0.12c-1.626-1.506-3.457-0.977-3.478-0.971      c-0.271,0.079-0.546-0.075-0.608-0.351c-0.061-0.276,0.111-0.567,0.386-0.65c0.096-0.028,2.394-0.694,4.411,1.175      c0.201,0.186,0.205,0.516,0.009,0.736C345.814,149.634,345.69,149.695,345.564,149.709z"/>
				<path style="fill:#263829;" d="M329.452,148.271c-0.106-0.036-0.195-0.115-0.241-0.23c-0.096-0.239,0.021-0.543,0.262-0.678      c2.412-1.356,4.201-0.325,4.276-0.28c0.212,0.126,0.263,0.426,0.114,0.67c-0.149,0.244-0.441,0.339-0.654,0.214      c-0.069-0.042-1.47-0.818-3.388,0.261C329.697,148.297,329.564,148.309,329.452,148.271z"/>
				<path style="fill:#a24e3f;" d="M335.784,153.053c0,0-1.651,3.951-3.514,6.414c-0.326,0.43-0.124,1.059,0.382,1.245      c1.303,0.48,2.829,0.046,2.829,0.046L335.784,153.053z"/>
			</g>
			<path style="fill:#263829;" d="M341.824,151.765l-2.422-0.572C339.402,151.193,340.727,152.999,341.824,151.765z"/>
			<path style="fill:#263829;" d="M331.272,151.561l-2.422-0.572C328.849,150.988,330.174,152.795,331.272,151.561z"/>
			<path style="fill:#263829;" d="M353.369,153.809c0,0-5.445-8.196-5.164-14.833c0,0-10.421-2.717-18.733,8.386     c-1.324,1.768-2.114,4.718-2.47,7.262c-5.974,2.375-11.901-16.473,15.003-21.729c17.537-3.426,21.29,23.371,12.609,31.788     C354.614,164.683,356.741,158.937,353.369,153.809z"/>
			<g>
				<path style="fill:#386641;" d="M359.409,156.995c-1.493,1.143-2.855,2.456-4.053,3.905l-0.406,0.734      c0.249,0.477,0.503,0.963,0.882,1.346c0.379,0.383,0.907,0.655,1.442,0.598c0.475-0.051,0.884-0.345,1.268-0.63      c0.592-0.439,1.191-0.884,1.653-1.458c0.461-0.574,0.778-1.302,0.71-2.036C360.815,158.479,360.093,157.697,359.409,156.995z"/>
			</g>
			<path style="fill:#b97964;" d="M360.226,158.765c-1.247,2.165-3.272,3.524-5.13,3.99c-2.794,0.701-4.237-3.791-3.283-6.59     c0.859-2.52,3.604-4.188,6.323-3.638C360.815,153.068,361.652,156.29,360.226,158.765z"/>
			
				<path style="opacity:0.2;fill:none;stroke:#000000;stroke-width:0.5;stroke-linecap:round;stroke-linejoin:round;stroke-miterlimit:10;" d="     M354.322,158.203c0.067-1,0.543-1.966,1.297-2.626c0.753-0.661,1.773-1.008,2.773-0.945"/>
			<path style="fill:none;stroke:#263829;stroke-width:0.5;stroke-linecap:round;stroke-linejoin:round;stroke-miterlimit:10;" d="     M342.099,161.711c0,0-1.022,2.784-4.153,2.138"/>
			<g>
				<path style="fill:#386641;" d="M332.531,134.867c9.661,2.944,20.614,10.451,27.781,18.265      c1.164-2.619,3.965-12.118-4.981-18.785C348.325,129.467,339.277,129.578,332.531,134.867z"/>
				<path style="opacity:0.1;enable-background:new    ;" d="M332.531,134.867c9.661,2.944,20.614,10.451,27.781,18.265      c1.164-2.619,3.965-12.118-4.981-18.785C348.325,129.467,339.277,129.578,332.531,134.867z" fill="#000000"/>
			</g>
			<path style="fill:#386641;" d="M356.079,149.09c-7.688-4.604-16.004-8.578-20.442-12.021c-4.767-4.226-10.989-5.041-17.487-3.961     C318.694,130.4,339.366,130.781,356.079,149.09z"/>
			<path style="fill:none;stroke:#386641;stroke-width:0.5;stroke-linecap:round;stroke-linejoin:round;stroke-miterlimit:10;" d="     M332.528,130.833c5.413-2.417,11.623-3.004,17.393-1.645"/>
			<path style="fill:none;stroke:#386641;stroke-width:0.5;stroke-linecap:round;stroke-linejoin:round;stroke-miterlimit:10;" d="     M351.895,129.974c0.932,0.285,1.832,0.671,2.68,1.15"/>
		</g>
		<g>
			<g>
				<path style="fill:#b97964;" d="M366.622,210.651c0.588-0.018,4.657,25.901,4.385,26.662c-1.004,2.803-31.332-3.602-31.332-3.602      l-1.072,10.829c0,0,12.656,3.661,26.712,5.955c14.503,2.367,19.996-1.312,19.995-13.893c-0.001-9.014-3.667-30.931-3.667-30.931      L366.622,210.651z"/>
				<path style="fill:#386641;" d="M376.599,191.244c4.61,2.512,6.762,18.863,6.762,18.863l-16.076,6.968      c0,0-6.228-14.01-3.564-20.213C365.986,191.626,370.749,188.044,376.599,191.244z"/>
			</g>
			<path style="opacity:0.3;" d="M371.033,237.313c0,0,3.059-0.179,5.816,2.021c0,0-0.104-1.38-2.439-2.647     c-1.427-0.774-3.535-1.137-3.535-1.137L371.033,237.313z" fill="#000000"/>
			<g>
				<path style="fill:#263829;" d="M322.125,245.857c-5.636,1.574-10.334,0.8-13.969-2.632l9.647-23.215l7.905,1.256      L322.125,245.857z"/>
				
					<rect x="319.808" y="217.127" transform="matrix(0.9876 0.157 -0.157 0.9876 38.3684 -47.8236)" style="fill:#263829;" width="4.38" height="3.812"/>
				
					<rect x="318.622" y="216.499" transform="matrix(0.9876 0.157 -0.157 0.9876 38.1033 -47.8898)" style="fill:#263829;" width="7.299" height="1.622"/>
				<path style="fill:#263829;" d="M323.648,246.099c3.623,3.254,8.898,3.655,15.128,2.404l-1.683-25.427l-7.906-1.256      L323.648,246.099z"/>
				
					<rect x="331.219" y="218.94" transform="matrix(-0.9876 -0.157 0.157 -0.9876 628.0214 491.2852)" style="fill:#263829;" width="4.38" height="3.812"/>
				
					<rect x="330.032" y="218.313" transform="matrix(-0.9876 -0.157 0.157 -0.9876 628.8354 487.9055)" style="fill:#263829;" width="7.299" height="1.622"/>
				
					<rect x="324.44" y="222.722" transform="matrix(0.9876 0.157 -0.157 0.9876 39.2845 -48.5676)" style="fill:#263829;" width="5.437" height="3.466"/>
			</g>
			<g>
				<g>
					<path style="fill:#b97964;" d="M336.682,233.521c0,0-9.136,2.173-10.006,3.972c-0.869,1.799,1.98,1.701,1.98,1.701       s-3.128,0.3-3.181,1.646c-0.063,1.615,2.922,1.499,2.922,1.499s-2.544,0.35-2.51,1.549c0.035,1.245,3.413,1.354,3.413,1.354       s-1.745,0.585-1.25,1.406c0.496,0.821,7.661,1.19,9.791-0.121c2.13-1.311,2.271-10.523,1.889-12.54       c-0.383-2.016-0.951-2.568-3.432-5.657L336.682,233.521L336.682,233.521z"/>
				</g>
				<g>
					<path style="opacity:0.2;" d="M328.662,239.344c0.004,0,0.009,0,0.013-0.001l5.429-0.784c0.073-0.011,0.124-0.087,0.114-0.169       c-0.01-0.083-0.08-0.142-0.15-0.131l-5.429,0.785c-0.073,0.011-0.124,0.087-0.114,0.169       C328.534,239.29,328.594,239.347,328.662,239.344z" fill="#000000"/>
				</g>
				<g>
					<path style="opacity:0.2;" d="M328.559,242.484c0.001,0,0.002,0,0.003,0l5.274-0.339c0.073-0.005,0.129-0.076,0.124-0.159       c-0.005-0.084-0.057-0.134-0.142-0.143l-5.274,0.339c-0.074,0.005-0.129,0.076-0.124,0.159       C328.426,242.424,328.487,242.487,328.559,242.484z" fill="#000000"/>
				</g>
				<g>
					<path style="opacity:0.2;" d="M329.487,245.386l3.926-0.139c0.074-0.003,0.131-0.073,0.128-0.156       c-0.003-0.083-0.065-0.149-0.138-0.146l-3.926,0.139c-0.074,0.003-0.131,0.073-0.128,0.156       C329.351,245.323,329.413,245.389,329.487,245.386z" fill="#000000"/>
				</g>
			</g>
		</g>
	</g>
</g>
<g id="Character_1">
	<g>
		<g>
			<g>
				<g>
					<g>
						<g>
							<g>
								<polygon style="fill:#895555;" points="124.606,428.105 115.929,451.524 108.065,448.983 110.778,424.264         "/>
							</g>
						</g>
					</g>
				</g>
			</g>
			<g>
				<path style="fill:#386641;" d="M103.128,443.84c-0.129-1.516-0.03-2.779,1.597-2.871l2.303-0.13      c0.871,0,1.493,0.581,2.191,1.066c5.279,3.672,7.445-1.069,9.494-1.066c2.632-0.002,0.939,8.412,1.064,8.853l2.877,9.764      c0.25,0.815-0.256,2.576-1.13,2.809c-0.155,0.041-0.317,0.061-0.478,0.059c-4.673,0-6.884,0-12.7,0H90.557      c-4.849,0-4.905-5.937-2.908-6.358c8.982-1.852,12.525-4.79,15.484-6.939C103.133,449.026,103.326,446.169,103.128,443.84z"/>
				<path style="opacity:0.4;fill:#ffffff;" d="M90.557,462.324h17.788c5.816,0,8.027,0,12.7,0c0.162,0.002,0.323-0.018,0.478-0.059      c0.593-0.158,1.01-1.019,1.142-1.812l-0.013-0.743h-35.99C87.143,461.091,88.348,462.324,90.557,462.324z"/>
				<g>
					<g>
						<path style="fill:#263829;" d="M98.386,452.581c0.751,0.692,1.329,1.465,1.784,2.384c0.09,0.181,0.347,0.232,0.513,0.134        c0.185-0.108,0.225-0.331,0.135-0.513c-0.471-0.951-1.121-1.816-1.901-2.535c-0.149-0.137-0.383-0.147-0.53,0        C98.247,452.19,98.237,452.444,98.386,452.581L98.386,452.581z"/>
					</g>
				</g>
				<g>
					<g>
						<path style="fill:#263829;" d="M101.19,450.88c0.695,0.664,1.224,1.356,1.684,2.203c0.094,0.173,0.347,0.242,0.513,0.134        c0.175-0.113,0.235-0.328,0.135-0.513c-0.473-0.872-1.084-1.671-1.801-2.355c-0.142-0.135-0.391-0.152-0.53,0        C101.055,450.496,101.038,450.735,101.19,450.88L101.19,450.88z"/>
					</g>
				</g>
				<g>
					<g>
						<path style="fill:#263829;" d="M103.257,449.459c0.083,0.045,0.164,0.093,0.243,0.145c0.04,0.026,0.079,0.052,0.117,0.08        c0.018,0.012,0.035,0.025,0.052,0.038c0.015,0.011,0.09,0.059,0.006,0.003c0.15,0.099,0.286,0.242,0.409,0.372        c0.062,0.065,0.122,0.133,0.179,0.203c0.016,0.019,0.031,0.043,0.048,0.06c-0.028-0.029-0.035-0.045-0.004-0.004        c0.028,0.038,0.056,0.076,0.082,0.115c0.107,0.156,0.2,0.32,0.282,0.49c0.085,0.177,0.353,0.238,0.513,0.134        c0.182-0.118,0.225-0.323,0.135-0.513c-0.356-0.745-0.96-1.375-1.683-1.771c-0.172-0.094-0.417-0.048-0.513,0.135        C103.03,449.121,103.073,449.358,103.257,449.459L103.257,449.459z"/>
					</g>
				</g>
				<g>
					<g>
						<path style="fill:#263829;" d="M103.448,446.409c0.204,0.003,0.408,0.014,0.611,0.035c0.169,0.018,0.332,0.045,0.526,0.086        c0.393,0.082,0.776,0.203,1.146,0.357c0.182,0.075,0.42-0.081,0.461-0.262c0.05-0.219-0.067-0.38-0.262-0.461        c-0.785-0.326-1.633-0.493-2.483-0.504c-0.196-0.003-0.384,0.174-0.375,0.375        C103.082,446.239,103.238,446.406,103.448,446.409L103.448,446.409z"/>
					</g>
				</g>
				<g style="opacity:0.3;">
					<path d="M112.453,446.47c0.047,0.872,0.354,1.83,1.129,2.234c0.48,0.251,1.049,0.241,1.59,0.225       c1.618-0.047,3.236-0.094,4.854-0.141l0.02-0.047c0.256-2.298,0.941-7.906-1.065-7.904c-1.578-0.002-3.236,3.217-6.537,2.277       C112.471,444.333,112.422,445.883,112.453,446.47z" fill="#000000"/>
				</g>
			</g>
		</g>
		<g>
			<path style="fill:#895555;" d="M91.923,167.337c0.14,0.438,23.211,31.469,23.211,31.469l16.498-21.743     c0,0,11.758,15.937,11.252,16.065c-0.506,0.128-21.904,32.468-32.397,24.409c-10.493-8.059-27.177-43.002-27.177-43.002     L91.923,167.337z"/>
			<path style="opacity:0.2;enable-background:new    ;" d="M115.134,198.807c0,0,1.775,4.171,0.916,7.706     c0,0,1.338-1.587,1.466-4.49c0.127-2.903-0.954-5.097-0.954-5.097L115.134,198.807z" fill="#000000"/>
			<path style="fill:#895555;" d="M92.339,167.95c0,0,0.34-8.754-1.121-9.95c-1.462-1.197-3.071-1.373-3.071-1.373     s-7.502-12.619-9.183-11.305c-0.91,0.711,0.427,4.112,4.057,10.029c0,0-3.659-0.55-3.411,1.907c0,0-2.805-0.202-2.831,2.68     c0,0-2.108,1.402-1.504,3.368c0.604,1.965,4.792,8.777,8.036,11.231c3.244,2.454,9.064-3.272,9.064-3.272L92.339,167.95z"/>
			
				<path style="opacity:0.3;fill:none;stroke:#000000;stroke-width:0.5;stroke-linecap:round;stroke-linejoin:round;stroke-miterlimit:10;" d="     M88.707,156.739c-1.392,0.09-3.583,0.369-4.975,0.459c-0.513,0.033-1.726-0.042-2.116,0.292c-0.64,0.548-0.683,1.086-0.243,1.805     c0.814,1.333,3.502,1.9,4.996,1.444c-0.512,1.098-0.988,3.037-0.899,4.245c0.089,1.208,0.702,2.424,1.765,3.004"/>
			
				<path style="opacity:0.3;fill:none;stroke:#000000;stroke-width:0.5;stroke-linecap:round;stroke-linejoin:round;stroke-miterlimit:10;" d="     M76.651,164.86c0.224,0.398,0.454,0.802,0.791,1.111c0.336,0.309,0.803,0.511,1.25,0.421c0.714-0.145,1.096-0.954,1.13-1.682     c0.048-1.005-0.377-2.023-1.125-2.696c0.453,0.625,1.049,1.173,1.778,1.427c0.729,0.254,1.602,0.171,2.186-0.334     c0.584-0.504,0.776-1.458,0.324-2.084"/>
		</g>
		<g>
			<g>
				<path style="fill:#263829;" d="M250.861,216.579c-1.091-3.85-2.426-8.728-5.987-12.512c-0.085-0.09-0.104-0.223-0.048-0.333      c0.06-0.107,0.182-0.163,0.301-0.139c5.879,1.068,14.23,12.788,14.012,18.105c0.003,0.029,0.004,0.058,0.006,0.087      c0.06,1.312-0.955,2.423-2.266,2.484c-0.67,0.084-1.35,0.003-1.982-0.234C252.687,223.164,251.864,220.17,250.861,216.579z       M245.918,204.434c3.146,3.755,4.445,8.327,5.481,12.032c1.225,4.419,2.107,7.605,5.411,7.273      c0.051-0.002,0.101-0.006,0.151-0.011c0.995-0.117,1.707-1.018,1.59-2.013c0.209-4.727-6.946-15.077-12.405-17.235      L245.918,204.434z"/>
				<polygon style="fill:#386641;" points="234.66,224.583 239.372,226.019 219.576,302.125 217.037,301.346     "/>
				<polygon style="opacity:0.7;fill:#ffffff;enable-background:new    ;" points="234.66,224.583 239.372,226.019 219.576,302.125       217.037,301.346     "/>
				<path style="fill:#386641;" d="M239.594,203.557c-0.184,0.594,0.149,1.225,0.743,1.408l0.223,0.088l-0.042,0.107l-5.667,18.569      l-0.213-0.084c-0.599-0.183-1.233,0.153-1.418,0.751l-0.203,0.514c-0.183,0.599,0.153,1.233,0.751,1.418l5.242,1.601      c0.599,0.183,1.233-0.153,1.418-0.751l0.203-0.514c0.001-0.002,0.001-0.004,0.002-0.006c0.184-0.594-0.149-1.225-0.743-1.408      l-0.184-0.073l5.619-18.644c0.023-0.058,0.023-0.058,0.023-0.058l0.194,0.077c0.002,0.001,0.004,0.001,0.006,0.002      c0.594,0.184,1.225-0.149,1.408-0.743l0.207-0.524c0.183-0.599-0.153-1.233-0.751-1.418l-5.242-1.601      c-0.598-0.177-1.228,0.157-1.418,0.751l-0.155,0.533C239.596,203.553,239.595,203.555,239.594,203.557z"/>
			</g>
			<g>
				<path style="fill:#386641;" d="M176.599,176.719c0,0-1.497-22.496,4.315-29.821c5.811-7.325,21.836-8.899,40.359-4.015      c18.523,4.883,26.877,6.977,25.424,19.534c-1.453,12.558-11.623,19.534-11.623,19.534l-2.906,36.976      c0,0,8.354,31.046,6.174,41.511c-2.179,10.465-11.259,17.441-21.066,16.744c-9.806-0.698-18.523,0.048-18.523,0.048      l-26.877-2.49L176.599,176.719z"/>
				<path style="opacity:0.4;enable-background:new    ;" d="M176.599,176.719c0,0-1.497-22.496,4.315-29.821      c5.811-7.325,21.836-8.899,40.359-4.015c18.523,4.883,26.877,6.977,25.424,19.534c-1.453,12.558-11.623,19.534-11.623,19.534      l-2.906,36.976c0,0,8.354,31.046,6.174,41.511c-2.179,10.465-11.259,17.441-21.066,16.744      c-9.806-0.698-18.523,0.048-18.523,0.048l-26.877-2.49L176.599,176.719z" fill="#000000"/>
				<path style="opacity:0.2;enable-background:new    ;" d="M204.425,262.494c0,0,12.541-0.752,20.984-2.545      c-1.441,1.792-11.549,6.372-14.862,7.081c-0.467,0.1,2.268,9.923,2.268,9.923h-3.449L204.425,262.494z" fill="#000000"/>
				<path style="fill:none;stroke:#263829;stroke-width:0.25;stroke-miterlimit:10;" d="M220.663,277.23      c-0.702-4.636-6.303-104.068-6.176-108.318s0.484-8.38,3-11.806c2.445-3.328,6.191-5.619,10.22-6.525      c4.029-0.907,8.311-0.469,12.172,0.997"/>
			</g>
			<path style="opacity:0.3;" d="M217.01,168.912c0.266,0.679,1.404,10.823,8.593,15.745c5.24,3.588,8.963,3.768,8.963,3.768     l0.669-9.587L217.01,168.912z" fill="#000000"/>
			<circle style="fill:#263829;" cx="231.934" cy="166.786" r="14.924"/>
			<path style="fill:none;stroke:#263829;stroke-width:0.25;stroke-linecap:round;stroke-linejoin:round;stroke-miterlimit:10;" d="     M225.733,180.753c-0.375,16.124,0.554,38.87,2.776,54.845c2.188-0.531,4.376-1.061,6.564-1.592"/>
			<path style="fill:none;stroke:#263829;stroke-width:0.25;stroke-linecap:round;stroke-linejoin:round;stroke-miterlimit:10;" d="     M226.488,216.688c0,0,4.491-0.669,5.957-0.98"/>
			<path style="fill:none;stroke:#263829;stroke-width:0.25;stroke-linecap:round;stroke-linejoin:round;stroke-miterlimit:10;" d="     M226.099,210.672c1.855-0.403,4.802-1.042,6.657-1.445"/>
			
				<line style="fill:none;stroke:#263829;stroke-width:0.25;stroke-linecap:round;stroke-linejoin:round;stroke-miterlimit:10;" x1="218.166" y1="240.672" x2="235.784" y2="235.732"/>
		</g>
		<g>
			<g>
				<g>
					<g>
						<g>
							<polygon style="fill:#895555;" points="181.232,423.934 184.705,449.419 193.011,449.839 195.701,425.271        "/>
						</g>
					</g>
				</g>
			</g>
			<g>
				<g>
					<g>
						<path style="fill:#386641;" d="M200.083,461.252h-18.578c0,0-0.405-0.78,0.058-2.858c0.071-0.324,0.163-0.679,0.283-1.067        c0.007-0.019,0.011-0.039,0.017-0.058c0.174-0.575,0.373-1.282,0.585-2.045c0.851-3.11,1.43-10.265,1.43-10.265        s3.513-3.527,7.129-1.874c3.173,1.449,2.68,3.287,2.68,3.287s0.051,4.745,2.456,6.893c1.488,1.327,2.967,2.354,3.678,4.004        c0.133,0.309,0.238,0.637,0.313,0.992c0.008,0.043,0.017,0.088,0.024,0.133C200.306,459.19,200.297,460.122,200.083,461.252z"/>
					</g>
				</g>
			</g>
			<g style="opacity:0.4;">
				<path style="fill:#ffffff;" d="M181.563,458.394c-0.463,2.077-0.058,2.858-0.058,2.858h18.578      c0.214-1.13,0.223-2.062,0.075-2.858H181.563z"/>
			</g>
			<g>
				<g>
					<g>
						<g>
							<path style="fill:#263829;" d="M192.679,449.724c-1.045-0.814-2.416-0.709-3.356,0.208c-0.253,0.246-0.641-0.141-0.388-0.388         c1.173-1.144,2.848-1.208,4.131-0.208C193.345,449.552,192.954,449.938,192.679,449.724L192.679,449.724z"/>
						</g>
					</g>
				</g>
			</g>
			<g>
				<g>
					<g>
						<g>
							<path style="fill:#263829;" d="M193.204,451.459c-1.045-0.814-2.416-0.709-3.356,0.208c-0.253,0.247-0.641-0.141-0.388-0.388         c1.173-1.144,2.848-1.208,4.131-0.208C193.869,451.287,193.479,451.673,193.204,451.459L193.204,451.459z"/>
						</g>
					</g>
				</g>
			</g>
			<g>
				<g>
					<g>
						<g>
							<path style="fill:#263829;" d="M193.73,453.054c-1.045-0.814-2.416-0.709-3.356,0.208c-0.253,0.247-0.641-0.141-0.387-0.388         c1.173-1.144,2.848-1.208,4.131-0.208C194.396,452.883,194.005,453.268,193.73,453.054L193.73,453.054z"/>
						</g>
					</g>
				</g>
			</g>
		</g>
		<g>
			<g>
				<g>
					<path style="fill:#263829;" d="M200.429,262.279l-40.104,0.34l-24.41-0.74c0,0-17.147,73.902-18.602,87.819       c-1.454,13.918-13.956,87.201-13.956,87.201l18.982,4.168c0,0,21.581-78.356,23.138-85.886       c1.357-6.563,16.353-48.637,20.183-59.335c0.385,2.191,0.78,4.392,1.183,6.574c0.969,9.864,4.075,41.314,5.427,53.017       c0,0,2.938,66.853,6.349,86.266l17.863,0.03c2.358-27.56,3.871-124.365,3.871-124.365l-0.003-0.002       C201.672,296.342,200.429,262.279,200.429,262.279z"/>
				</g>
			</g>
			<g style="opacity:0.5;">
				<path d="M145.926,272.929c-2.268,7.456-8.333,13.444-15.815,15.622c-0.404,0.117-0.232,0.749,0.174,0.631      c7.703-2.242,13.937-8.404,16.272-16.079C146.68,272.699,146.048,272.527,145.926,272.929L145.926,272.929z" fill="#000000"/>
				<path d="M166.298,272.928c-0.442,6.523-0.873,13.056-1.315,19.578c-0.021,0.421-0.673,0.421-0.652,0      c0.231-3.345,0.452-6.701,0.673-10.057c-1.61,1.242-3.493-0.263-4.019-1.925c-0.863-2.693-0.536-5.892,0.137-8.585      c0.105-0.41,0.736-0.232,0.631,0.168c-0.473,1.894-0.673,3.83-0.536,5.776c0.063,0.989,0.158,2.125,0.621,3.03      c0.515,1.01,1.82,1.862,2.861,0.947c0.116-0.095,0.242-0.105,0.347-0.053c0.2-2.956,0.4-5.923,0.6-8.879      C165.666,272.507,166.319,272.507,166.298,272.928z" fill="#000000"/>
				<path d="M185.478,274.039c-0.092,8.647,6.564,15.888,15.171,16.567c0.413,0.033,0.41-0.611,0-0.643      c-8.259-0.652-14.616-7.65-14.528-15.924C186.126,273.625,185.483,273.625,185.478,274.039L185.478,274.039z" fill="#000000"/>
				<path d="M189.699,358.386c2.68,0.989,5.557,1.005,8.248,0.046c0.387-0.138,0.22-0.76-0.171-0.62      c-2.594,0.924-5.323,0.908-7.907-0.046C189.481,357.623,189.314,358.244,189.699,358.386L189.699,358.386z" fill="#000000"/>
			</g>
		</g>
		<g>
			<path style="fill:#386641;" d="M151.717,158.325c6.869,5.01,7.725,19.105-13.504,49.419l-16.852-17.818     c4.366-7.711,8.159-11.486,14.643-20.66C146.235,155.053,151.717,158.325,151.717,158.325z"/>
			<path style="fill:#386641;" d="M151.557,157.788c5.456-0.339,27.282-2.53,49.558,1.941l-1.3,85.383c0,0,0.58,11.306,2.019,22.656     c-23.298,9.004-53.25,6.334-68.091-2.914c0.159,0.366,1.115-8.963,2.565-22.625c2.556-24.076,6.647-61.611,10.62-83.264     C147.034,158.431,151.013,157.822,151.557,157.788z"/>
			<polygon style="opacity:0.2;enable-background:new    ;" points="140.521,204.382 144.019,177.251 136.081,205.49      138.213,207.745    " fill="#000000"/>
			<polygon style="opacity:0.2;enable-background:new    ;" points="198.667,207.645 197.44,207.804 193.018,186.117      195.065,210.46 198.96,211.094    " fill="#000000"/>
			<g>
				<path style="fill:#386641;" d="M202.155,243.016c0,0-15.892-13.284-19.963-21.766s-6.615-18.73-6.615-30.434      c0-11.704,1.851-19.366,5.413-26.321c3.562-6.955,7.8-9.763,7.8-9.763c4.613,0.666,8.71,1.808,12.325,4.996      c0,0-12.195,2.183-13.673,15.206c-0.75,6.608-1.276,24.067,1.607,34.414c2.884,10.347,21.81,24.044,21.81,24.044      L202.155,243.016z"/>
				<path style="opacity:0.4;enable-background:new    ;" d="M202.155,243.016c0,0-15.892-13.284-19.963-21.766      s-6.615-18.73-6.615-30.434c0-11.704,1.851-19.366,5.413-26.321c3.562-6.955,7.8-9.763,7.8-9.763      c4.613,0.666,8.71,1.808,12.325,4.996c0,0-12.195,2.183-13.673,15.206c-0.75,6.608-1.276,24.067,1.607,34.414      c2.884,10.347,21.81,24.044,21.81,24.044L202.155,243.016z" fill="#000000"/>
			</g>
			<g>
				<path style="fill:#895555;" d="M198.198,200.349l3.627,16.339l-11.828-15.563l-9.974,5.583c0,0,17.772,32.347,28.505,32.686      c15.67,0.495,7.807-42.083,7.807-42.083L198.198,200.349z"/>
				<path style="fill:#386641;" d="M201.115,159.729c0,0,8.771,1.622,10.882,12.613c1.944,10.121,7.399,32.619,7.399,32.619      l-21.956,2.843l-4.422-26.32L201.115,159.729z"/>
			</g>
			<g>
				<path style="fill:#386641;" d="M138.853,218.828c0,0-3.301-8.371-3.146-16.478c0.373-19.478,4.791-33.173,7.733-38.318      c1.702-2.977,4.512-5.388,7.006-7.078c3.593-2.435,8.792-3.355,13.085-2.713c1.255,0.188,2.151,0.637,2.151,0.637l-0.518,2.077      c0,0-5.985-1.024-13.925,7.534c-5.147,5.548-6.8,22.236-9.761,36.362C140.748,204.335,138.853,218.828,138.853,218.828z"/>
			</g>
			<g style="opacity:0.4;enable-background:new    ;">
				<path d="M138.853,218.828c0,0-3.301-8.371-3.146-16.478c0.373-19.478,4.791-33.173,7.733-38.318      c1.702-2.977,4.512-5.388,7.006-7.078c3.593-2.435,8.792-3.355,13.085-2.713c1.255,0.188,2.151,0.637,2.151,0.637l-0.518,2.077      c0,0-5.985-1.024-13.925,7.534c-5.147,5.548-6.8,22.236-9.761,36.362C140.748,204.335,138.853,218.828,138.853,218.828z" fill="#000000"/>
			</g>
			<path style="fill:#895555;" d="M185.964,190.838c0,0-10.076-7.366-10.81-6.736c-0.734,0.63-2.437,3.141-2.056,5.235     c0,0-2.132,1.955-0.946,4.328l0.946,1.396c0,0-3.04,0.297-1.574,4.092c1.466,3.796,5.526,6.717,8.543,8.208     s9.857,0.59,9.871,0.008s0.921-13.285,0.712-16.566c-0.209-3.281-3.84-7.028-4.188-7.109L185.964,190.838z"/>
			<g>
				<path style="fill:#263829;" d="M135.976,245.36c0,0,13.815,6.318,28.812,7.083c17.768,0.905,34.296,0.064,34.296,0.064v8.103      c0,0-24.234,1.478-39.457-0.284c-15.223-1.762-24.557-6.404-24.557-6.404L135.976,245.36z"/>
				<path style="fill:#386641;" d="M182.994,254.3c0,0,0.2-4.895,3.602-7.783c5.417-4.6,23.271-1.796,28.258-3.924      c4.987-2.129,12.328-4.39,12.328-4.39s0,21.058-1.385,22.436c-1.385,1.378-16.068,6.832-24.241,4.97      C193.383,263.745,184.241,264.277,182.994,254.3z"/>
				<path style="opacity:0.4;enable-background:new    ;" d="M182.994,254.3c0,0,0.2-4.895,3.602-7.783      c5.417-4.6,23.271-1.796,28.258-3.924c4.987-2.129,12.328-4.39,12.328-4.39s0,21.058-1.385,22.436      c-1.385,1.378-16.068,6.832-24.241,4.97C193.383,263.745,184.241,264.277,182.994,254.3z" fill="#000000"/>
				<g>
					<path style="fill:#263829;" d="M150.507,249.307l-1.714,10.133c0,0,6.817,2.299,9.42,1.749l1.69-10.118L150.507,249.307z"/>
					<path style="opacity:0.3;fill:#ffffff;" d="M150.507,249.307l-1.714,10.133c0,0,6.817,2.299,9.42,1.749l1.69-10.118       L150.507,249.307z"/>
				</g>
			</g>
		</g>
		<g>
			<g>
				<g>
					<g>
						<path style="fill:#895555;" d="M180.122,158.562c0,0-0.97-6.96,3.105-19.026c0-0.013-0.631-0.326-0.631-0.34        c0.563-1.688,1.151-3.244,1.701-4.592c0.013-0.039,0.013-0.052,0.013-0.052l-17.164,9.603        c0.222,3.925-1.509,11.415-2.484,14.567c0,0-2.362,5.683,5.309,6.27C175.575,165.42,180.122,158.562,180.122,158.562z"/>
						<path style="opacity:0.2;" d="M166.619,149.636l9.714-1.75c-1.003,2.954-3.805,6.385-10.512,6.383        C165.822,154.269,166.635,150.95,166.619,149.636z" fill="#000000"/>
					</g>
					<g>
						<path style="fill:#895555;" d="M184.792,126.438c-1.588,10.548-2.272,16.529-8.115,21.449        c-8.789,7.401-21.177,1.532-22.776-9.31c-1.439-9.758,1.4-25.368,12.166-28.57        C176.675,106.852,186.381,115.89,184.792,126.438z"/>
						<path style="fill:#263829;" d="M187.264,113.805c-0.94-5.973-15.582-7.331-19.936-4.706c-0.651,0.392,7.64,5.517,7.131,5.278        l3.96,1.773c0.642-0.084,1.812,0.76,2.28,2.772c0,0-1.901,16.219,2.29,21.333c3.862-1.479,4.648-7.904,6.155-11.639        C191.388,123.053,194.223,114.864,187.264,113.805z"/>
						<path style="opacity:0.1;" d="M153.902,138.577c0,0,8.962-1.066,11.92-2.095c0,0,3.147-1.013,7.274-1.612        c2.067-0.3,7.028-5.596,7.028-5.596l1.315,0.728l1.257,11.054c0,0-6.045,11.501-16.285,10.056        C156.988,149.781,154.126,141.199,153.902,138.577" fill="#000000"/>
						<path style="fill:#895555;" d="M188.2,135.648c-1.089,2.656-3.307,4.548-5.504,5.407c-3.304,1.293-4.178-2.272-3.583-5.587        c0.536-2.984,1.737-6.57,5.208-6.445C187.742,129.147,189.445,132.612,188.2,135.648z"/>
						<path style="fill:#263829;" d="M169.342,128.159c-0.096,1.085-0.749,1.908-1.459,1.839c-0.71-0.07-1.208-1.006-1.112-2.091        c0.096-1.085,0.749-1.909,1.459-1.839C168.94,126.137,169.438,127.073,169.342,128.159z"/>
						<path style="fill:#263829;" d="M158.679,127.43c-0.096,1.085-0.749,1.908-1.458,1.839c-0.71-0.07-1.208-1.006-1.112-2.091        c0.096-1.085,0.749-1.909,1.459-1.839C158.277,125.409,158.775,126.345,158.679,127.43z"/>
						<path style="fill:#561616;" d="M162.196,127.134c0,0-3.912,5.089-5.207,7.187c1.39,1.498,4.048,1.099,4.048,1.099        L162.196,127.134z"/>
						<path style="fill:#263829;" d="M172.447,123.278c-0.17,0.052-0.363,0.015-0.503-0.117c-1.67-1.558-3.502-1.141-3.52-1.137        c-0.274,0.065-0.552-0.103-0.62-0.375c-0.068-0.273,0.1-0.547,0.372-0.613c0.096-0.024,2.392-0.546,4.464,1.387        c0.207,0.193,0.219,0.515,0.027,0.719C172.604,123.207,172.528,123.253,172.447,123.278z"/>
						
							<path style="fill:none;stroke:#263829;stroke-width:0.75;stroke-linecap:round;stroke-linejoin:round;stroke-miterlimit:10;" d="        M164.287,139.193c1.759,0.169,3.202-0.589,4.681-1.779"/>
					</g>
					
						<path style="opacity:0.2;fill:none;stroke:#000000;stroke-width:0.5;stroke-linecap:round;stroke-linejoin:round;stroke-miterlimit:10;" d="       M186.037,132.502c-0.371-0.671-1.222-0.981-1.98-0.864c-0.758,0.117-1.42,0.593-1.927,1.168       c-0.608,0.691-1.032,1.543-1.216,2.445"/>
				</g>
				<path style="fill:#263829;" d="M154.388,122.435c-0.093-0.029-0.178-0.084-0.244-0.165c-0.179-0.219-0.149-0.541,0.067-0.72      c2.17-1.79,4.404-1.081,4.508-1.062c0.268,0.087,0.417,0.374,0.334,0.643c-0.083,0.268-0.366,0.416-0.633,0.333      c-0.092-0.033-1.82-0.557-3.562,0.88C154.723,122.455,154.545,122.484,154.388,122.435z"/>
			</g>
			<g>
				<path style="fill:#263829;" d="M189.846,109.386c-0.621-2.435-3.667-3.183-6.041-2.864c0.319-2.898-3.345-4.847-5.734-4.94      c-2.488-0.096-3.45,0.833-3.45,0.833c0.189,0.054-0.649-1.494-1.191-2.122c-2.003-2.321-5.363-3.219-8.173-2.183      c-2.81,1.036-4.907,3.944-5.1,7.075c-1.429-1.68-4.193-1.814-5.762-0.28c-1.57,1.534-1.65,4.448-0.168,6.076      c-1.83-0.017-3.488,1.795-3.405,3.722c0.083,1.926,1.89,3.572,3.711,3.381c-0.042,2.158-0.001,4.859-0.043,7.018l3.425-7.703      c1.516-0.422,1.845-1.077,2.257-2.671c0.944,2.106,2.661,2.062,4.87,2.132c2.21,0.07,4.409-1.255,5.471-3.298      c0.993,2.201,3.045,3.962,5.355,4.07c2.31,0.107,4.679-1.765,4.839-4.195c1.217,2.171,4.039,3.156,6.246,2.179      C189.159,114.636,190.467,111.822,189.846,109.386z"/>
			</g>
		</g>
	</g>
</g>
</svg>